SplineFontDB: 3.2
FontName: Krub-Regular
FullName: Krub Regular
FamilyName: Krub
Weight: Book
Copyright: Copyright 2018 The Krub Project Authors (https://github.com/cadsondemak/Krub)
Version: 1.000; ttfautohint (v1.6)
ItalicAngle: 0
UnderlinePosition: -100
UnderlineWidth: 50
Ascent: 800
Descent: 200
InvalidEm: 0
sfntRevision: 0x00010000
LayerCount: 2
Layer: 0 1 "Back" 1
Layer: 1 1 "Fore" 0
XUID: [1021 226 -1497385041 5950255]
StyleMap: 0x0040
FSType: 0
OS2Version: 3
OS2_WeightWidthSlopeOnly: 0
OS2_UseTypoMetrics: 0
CreationTime: 1534948280
ModificationTime: 1627863147
PfmFamily: 81
TTFWeight: 400
TTFWidth: 5
LineGap: 0
VLineGap: 0
Panose: 0 0 5 0 0 0 0 0 0 0
OS2TypoAscent: 1007
OS2TypoAOffset: 0
OS2TypoDescent: -293
OS2TypoDOffset: 0
OS2TypoLinegap: 0
OS2WinAscent: 1232
OS2WinAOffset: 0
OS2WinDescent: 507
OS2WinDOffset: 0
HheadAscent: 1007
HheadAOffset: 0
HheadDescent: -293
HheadDOffset: 0
OS2SubXSize: 650
OS2SubYSize: 600
OS2SubXOff: 0
OS2SubYOff: 75
OS2SupXSize: 650
OS2SupYSize: 600
OS2SupXOff: 0
OS2SupYOff: 350
OS2StrikeYSize: 50
OS2StrikeYPos: 330
OS2CapHeight: 700
OS2XHeight: 550
OS2Vendor: 'CDK '
OS2CodePages: 20010193.00000000
OS2UnicodeRanges: 21000007.00000001.00000000.00000000
Lookup: 1 0 0 "'aalt' Access All Alternates lookup 0" { "'aalt' Access All Alternates lookup 0 subtable"  } ['aalt' ('DFLT' <'dflt' > 'latn' <'CAT ' 'MOL ' 'ROM ' 'dflt' > 'thai' <'dflt' > ) ]
Lookup: 3 0 0 "'aalt' Access All Alternates lookup 1" { "'aalt' Access All Alternates lookup 1 subtable"  } ['aalt' ('DFLT' <'dflt' > 'latn' <'CAT ' 'MOL ' 'ROM ' 'dflt' > 'thai' <'dflt' > ) ]
Lookup: 6 0 0 "'ccmp' Glyph Composition/Decomposition in Latin lookup 2" { "'ccmp' Glyph Composition/Decomposition in Latin lookup 2 contextual 0"  "'ccmp' Glyph Composition/Decomposition in Latin lookup 2 contextual 1"  } ['ccmp' ('latn' <'dflt' > ) ]

StartChar: A
Encoding: 65 65 4
Width: 620
GlyphClass: 2
Flags: W
AnchorPoint: "Anchor-10" 0 0 basechar 0
AnchorPoint: "Anchor-9" 310 660 basechar 0
AnchorPoint: "Anchor-8" 605 0 basechar 0
AnchorPoint: "Anchor-7" 310 0 basechar 0
LayerCount: 2
Fore
SplineSet
480 203 m 1,1,-1
 140 203 l 1,2,3
 116 124 116 124 89 0 c 1,4,-1
 15 0 l 1,5,6
 67 214 67 214 128 380.5 c 128,-1,7
 189 547 189 547 273 700 c 1,8,-1
 348 700 l 1,9,10
 431 548 431 548 492 381.5 c 128,-1,11
 553 215 553 215 605 0 c 1,12,-1
 531 0 l 1,13,0
 504 124 504 124 480 203 c 1,1,-1
463 263 m 1,14,15
 402 457 402 457 310 627 c 1,16,17
 218 457 218 457 157 263 c 1,18,-1
 463 263 l 1,14,15
EndSplineSet
Substitution2: "Single Substitution lookup 20 subtable" ordfeminine
Substitution2: "'aalt' Access All Alternates lookup 0 subtable" ordfeminine
EndChar

StartChar: AE
Encoding: 198 198 28
Width: 930
GlyphClass: 2
Flags: W
AnchorPoint: "Anchor-10" 0 0 basechar 0
AnchorPoint: "Anchor-9" 525 700 basechar 0
AnchorPoint: "Anchor-8" 0 0 basechar 0
AnchorPoint: "Anchor-7" 465 0 basechar 0
LayerCount: 2
Fore
SplineSet
535 640 m 1,0,-1
 535 403 l 1,1,-1
 832 403 l 1,2,-1
 832 343 l 1,3,-1
 535 343 l 1,4,-1
 535 60 l 1,5,-1
 870 60 l 1,6,7
 870 24 870 24 859.5 12 c 128,-1,8
 849 0 849 0 818 0 c 2,9,-1
 470 0 l 1,10,-1
 470 206 l 1,11,-1
 152 206 l 1,12,13
 107 96 107 96 89 0 c 1,14,-1
 15 0 l 1,15,16
 53 188 53 188 159 373.5 c 128,-1,17
 265 559 265 559 425 700 c 1,18,-1
 875 700 l 1,19,-1
 875 640 l 1,20,-1
 535 640 l 1,0,-1
470 266 m 1,21,-1
 470 640 l 1,22,-1
 461 640 l 1,23,24
 379 571 379 571 306 473.5 c 128,-1,25
 233 376 233 376 180 266 c 1,26,-1
 470 266 l 1,21,-1
EndSplineSet
EndChar

StartChar: B
Encoding: 66 66 30
Width: 615
GlyphClass: 2
Flags: W
AnchorPoint: "Anchor-10" 0 0 basechar 0
AnchorPoint: "Anchor-9" 308 660 basechar 0
AnchorPoint: "Anchor-8" 0 0 basechar 0
AnchorPoint: "Anchor-7" 308 0 basechar 0
LayerCount: 2
Fore
SplineSet
537 300 m 128,-1,1
 572 254 572 254 572 194 c 0,2,3
 572 101 572 101 508 50.5 c 128,-1,4
 444 0 444 0 326 0 c 2,5,-1
 86 0 l 1,6,-1
 86 700 l 1,7,-1
 316 700 l 2,8,9
 420 700 420 700 480 650.5 c 128,-1,10
 540 601 540 601 540 516 c 0,11,12
 540 463 540 463 514.5 421 c 128,-1,13
 489 379 489 379 447 361 c 1,14,0
 502 346 502 346 537 300 c 128,-1,1
427.5 607 m 128,-1,16
 387 640 387 640 316 640 c 2,17,-1
 158 640 l 1,18,-1
 158 385 l 1,19,-1
 313 385 l 2,20,21
 468 385 468 385 468 516 c 0,22,15
 468 574 468 574 427.5 607 c 128,-1,16
457 91.5 m 128,-1,24
 500 123 500 123 500 194 c 0,25,26
 500 264 500 264 455.5 296 c 128,-1,27
 411 328 411 328 314 328 c 2,28,-1
 158 328 l 1,29,-1
 158 60 l 1,30,-1
 316 60 l 2,31,23
 414 60 414 60 457 91.5 c 128,-1,24
EndSplineSet
EndChar

StartChar: C
Encoding: 67 67 31
Width: 596
GlyphClass: 2
Flags: W
AnchorPoint: "Anchor-10" 0 0 basechar 0
AnchorPoint: "Anchor-9" 352 660 basechar 0
AnchorPoint: "Anchor-8" 0 0 basechar 0
AnchorPoint: "Anchor-7" 352 0 basechar 0
LayerCount: 2
Fore
SplineSet
130.5 84 m 128,-1,1
 52 178 52 178 52 350 c 0,2,3
 52 523 52 523 130 616.5 c 128,-1,4
 208 710 208 710 352 710 c 0,5,6
 410 710 410 710 460 690.5 c 128,-1,7
 510 671 510 671 546 633 c 1,8,9
 540 614 540 614 529 604 c 128,-1,10
 518 594 518 594 504 594 c 256,11,12
 490 594 490 594 478 603 c 0,13,14
 424 645 424 645 350 645 c 0,15,16
 240 645 240 645 183 570 c 128,-1,17
 126 495 126 495 126 350 c 0,18,19
 126 206 126 206 183 131 c 128,-1,20
 240 56 240 56 350 56 c 0,21,22
 397 56 397 56 434.5 69 c 128,-1,23
 472 82 472 82 509 112 c 1,24,25
 522 111 522 111 531 101.5 c 128,-1,26
 540 92 540 92 540 78 c 0,27,28
 540 55 540 55 513.5 35 c 128,-1,29
 487 15 487 15 443.5 2.5 c 128,-1,30
 400 -10 400 -10 352 -10 c 0,31,0
 209 -10 209 -10 130.5 84 c 128,-1,1
EndSplineSet
EndChar

StartChar: Ccedilla
Encoding: 199 199 34
Width: 596
GlyphClass: 2
Flags: W
AnchorPoint: "Anchor-10" 0 0 basechar 0
AnchorPoint: "Anchor-9" 0 0 basechar 0
AnchorPoint: "Anchor-8" 0 0 basechar 0
AnchorPoint: "Anchor-7" 352 -214 basechar 0
LayerCount: 2
Fore
SplineSet
531 101.5 m 128,-1,1
 540 92 540 92 540 78 c 0,2,3
 540 47 540 47 492.5 21.5 c 128,-1,4
 445 -4 445 -4 379 -9 c 1,5,-1
 341 -55 l 1,6,-1
 348 -55 l 2,7,8
 390 -55 390 -55 416 -76 c 128,-1,9
 442 -97 442 -97 442 -136 c 0,10,11
 442 -180 442 -180 407 -204.5 c 128,-1,12
 372 -229 372 -229 321 -229 c 0,13,14
 276 -229 276 -229 252 -218 c 128,-1,15
 228 -207 228 -207 228 -187 c 0,16,17
 228 -181 228 -181 231 -173 c 1,18,19
 272 -184 272 -184 315 -184 c 0,20,21
 345 -184 345 -184 362 -171.5 c 128,-1,22
 379 -159 379 -159 379 -138 c 0,23,24
 379 -123 379 -123 365.5 -111.5 c 128,-1,25
 352 -100 352 -100 328 -100 c 0,26,27
 309 -100 309 -100 288 -107 c 1,28,-1
 271 -75 l 1,29,-1
 321 -9 l 1,30,31
 192 2 192 2 122 95 c 128,-1,32
 52 188 52 188 52 350 c 0,33,34
 52 523 52 523 130 616.5 c 128,-1,35
 208 710 208 710 352 710 c 0,36,37
 410 710 410 710 460 690.5 c 128,-1,38
 510 671 510 671 546 633 c 1,39,40
 540 614 540 614 529 604 c 128,-1,41
 518 594 518 594 504 594 c 256,42,43
 490 594 490 594 478 603 c 0,44,45
 424 645 424 645 350 645 c 0,46,47
 240 645 240 645 183 570 c 128,-1,48
 126 495 126 495 126 350 c 0,49,50
 126 206 126 206 183 131 c 128,-1,51
 240 56 240 56 350 56 c 0,52,53
 397 56 397 56 434.5 69 c 128,-1,54
 472 82 472 82 509 112 c 1,55,0
 522 111 522 111 531 101.5 c 128,-1,1
EndSplineSet
EndChar

StartChar: D
Encoding: 68 68 37
Width: 672
GlyphClass: 2
Flags: W
AnchorPoint: "Anchor-10" 0 0 basechar 0
AnchorPoint: "Anchor-9" 336 660 basechar 0
AnchorPoint: "Anchor-8" 0 0 basechar 0
AnchorPoint: "Anchor-7" 336 0 basechar 0
LayerCount: 2
Fore
SplineSet
531.5 609.5 m 128,-1,1
 615 519 615 519 615 350 c 0,2,3
 615 242 615 242 576.5 163 c 128,-1,4
 538 84 538 84 465.5 42 c 128,-1,5
 393 0 393 0 293 0 c 2,6,-1
 86 0 l 1,7,-1
 86 700 l 1,8,-1
 293 700 l 2,9,0
 448 700 448 700 531.5 609.5 c 128,-1,1
478 133.5 m 128,-1,11
 541 207 541 207 541 349 c 0,12,13
 541 496 541 496 479.5 568 c 128,-1,14
 418 640 418 640 293 640 c 2,15,-1
 158 640 l 1,16,-1
 158 60 l 1,17,-1
 293 60 l 2,18,10
 415 60 415 60 478 133.5 c 128,-1,11
EndSplineSet
EndChar

StartChar: Eth
Encoding: 208 208 38
Width: 672
GlyphClass: 2
Flags: W
AnchorPoint: "Anchor-10" 0 0 basechar 0
AnchorPoint: "Anchor-9" 336 660 basechar 0
AnchorPoint: "Anchor-8" 0 0 basechar 0
AnchorPoint: "Anchor-7" 336 0 basechar 0
LayerCount: 2
Fore
SplineSet
531.5 609.5 m 128,-1,1
 615 519 615 519 615 350 c 0,2,3
 615 242 615 242 576.5 163 c 128,-1,4
 538 84 538 84 465.5 42 c 128,-1,5
 393 0 393 0 293 0 c 2,6,-1
 86 0 l 1,7,-1
 86 327 l 1,8,-1
 1 327 l 1,9,-1
 1 384 l 1,10,-1
 86 384 l 1,11,-1
 86 700 l 1,12,-1
 293 700 l 2,13,0
 448 700 448 700 531.5 609.5 c 128,-1,1
478 133.5 m 128,-1,15
 541 207 541 207 541 349 c 0,16,17
 541 496 541 496 479.5 568 c 128,-1,18
 418 640 418 640 293 640 c 2,19,-1
 158 640 l 1,20,-1
 158 384 l 1,21,-1
 346 384 l 1,22,-1
 346 327 l 1,23,-1
 158 327 l 1,24,-1
 158 60 l 1,25,-1
 293 60 l 2,26,14
 415 60 415 60 478 133.5 c 128,-1,15
EndSplineSet
EndChar

StartChar: Dcroat
Encoding: 272 272 40
Width: 672
GlyphClass: 2
Flags: W
AnchorPoint: "Anchor-10" 0 0 basechar 0
AnchorPoint: "Anchor-9" 336 660 basechar 0
AnchorPoint: "Anchor-8" 0 0 basechar 0
AnchorPoint: "Anchor-7" 336 0 basechar 0
LayerCount: 2
Fore
SplineSet
531.5 609.5 m 128,-1,1
 615 519 615 519 615 350 c 0,2,3
 615 242 615 242 576.5 163 c 128,-1,4
 538 84 538 84 465.5 42 c 128,-1,5
 393 0 393 0 293 0 c 2,6,-1
 86 0 l 1,7,-1
 86 327 l 1,8,-1
 1 327 l 1,9,-1
 1 384 l 1,10,-1
 86 384 l 1,11,-1
 86 700 l 1,12,-1
 293 700 l 2,13,0
 448 700 448 700 531.5 609.5 c 128,-1,1
478 133.5 m 128,-1,15
 541 207 541 207 541 349 c 0,16,17
 541 496 541 496 479.5 568 c 128,-1,18
 418 640 418 640 293 640 c 2,19,-1
 158 640 l 1,20,-1
 158 384 l 1,21,-1
 346 384 l 1,22,-1
 346 327 l 1,23,-1
 158 327 l 1,24,-1
 158 60 l 1,25,-1
 293 60 l 2,26,14
 415 60 415 60 478 133.5 c 128,-1,15
EndSplineSet
EndChar

StartChar: E
Encoding: 69 69 43
Width: 560
GlyphClass: 2
Flags: W
AnchorPoint: "Anchor-10" 0 0 basechar 0
AnchorPoint: "Anchor-9" 280 660 basechar 0
AnchorPoint: "Anchor-8" 492 10 basechar 0
AnchorPoint: "Anchor-7" 280 0 basechar 0
LayerCount: 2
Fore
SplineSet
505 60 m 1,0,1
 505 24 505 24 494.5 12 c 128,-1,2
 484 0 484 0 453 0 c 2,3,-1
 86 0 l 1,4,-1
 86 700 l 1,5,-1
 504 700 l 1,6,-1
 504 640 l 1,7,-1
 158 640 l 1,8,-1
 158 388 l 1,9,-1
 456 388 l 1,10,-1
 456 328 l 1,11,-1
 158 328 l 1,12,-1
 158 60 l 1,13,-1
 505 60 l 1,0,1
EndSplineSet
EndChar

StartChar: Eogonek
Encoding: 280 280 59
Width: 560
GlyphClass: 2
Flags: W
AnchorPoint: "Anchor-10" 0 0 basechar 0
AnchorPoint: "Anchor-9" 280 660 basechar 0
AnchorPoint: "Anchor-8" 492 10 basechar 0
AnchorPoint: "Anchor-7" 280 0 basechar 0
LayerCount: 2
Fore
SplineSet
531 -166 m 0,1,2
 531 -180 531 -180 513 -190 c 128,-1,3
 495 -200 495 -200 462 -200 c 0,4,5
 415 -200 415 -200 386.5 -175.5 c 128,-1,6
 358 -151 358 -151 358 -112 c 0,7,8
 358 -74 358 -74 377.5 -47.5 c 128,-1,9
 397 -21 397 -21 432 0 c 1,10,-1
 86 0 l 1,11,-1
 86 700 l 1,12,-1
 504 700 l 1,13,-1
 504 640 l 1,14,-1
 158 640 l 1,15,-1
 158 388 l 1,16,-1
 456 388 l 1,17,-1
 456 328 l 1,18,-1
 158 328 l 1,19,-1
 158 60 l 1,20,-1
 505 60 l 1,21,22
 505 35 505 35 500.5 22 c 128,-1,23
 496 9 496 9 484 4 c 0,24,25
 453 -18 453 -18 436 -46 c 128,-1,26
 419 -74 419 -74 419 -104 c 0,27,28
 419 -129 419 -129 433 -142.5 c 128,-1,29
 447 -156 447 -156 472 -156 c 0,30,31
 502 -156 502 -156 525 -146 c 1,32,0
 531 -155 531 -155 531 -166 c 0,1,2
EndSplineSet
EndChar

StartChar: F
Encoding: 70 70 61
Width: 530
GlyphClass: 2
Flags: W
AnchorPoint: "Anchor-10" 0 0 basechar 0
AnchorPoint: "Anchor-9" 292 660 basechar 0
AnchorPoint: "Anchor-8" 0 0 basechar 0
AnchorPoint: "Anchor-7" 122 0 basechar 0
LayerCount: 2
Fore
SplineSet
158 640 m 1,0,-1
 158 393 l 1,1,-1
 455 393 l 1,2,-1
 455 333 l 1,3,-1
 158 333 l 1,4,-1
 158 0 l 1,5,-1
 86 0 l 1,6,-1
 86 700 l 1,7,-1
 498 700 l 1,8,-1
 498 640 l 1,9,-1
 158 640 l 1,0,-1
EndSplineSet
EndChar

StartChar: G
Encoding: 71 71 62
Width: 666
GlyphClass: 2
Flags: W
AnchorPoint: "Anchor-10" 0 0 basechar 0
AnchorPoint: "Anchor-9" 377 660 basechar 0
AnchorPoint: "Anchor-8" 0 0 basechar 0
AnchorPoint: "Anchor-7" 377 0 basechar 0
LayerCount: 2
Fore
SplineSet
604 373 m 1,0,-1
 604 73 l 1,1,2
 567 35 567 35 505.5 12.5 c 128,-1,3
 444 -10 444 -10 377 -10 c 0,4,5
 222 -10 222 -10 142 81.5 c 128,-1,6
 62 173 62 173 62 350 c 0,7,8
 62 523 62 523 143.5 616.5 c 128,-1,9
 225 710 225 710 377 710 c 0,10,11
 448 710 448 710 509 683.5 c 128,-1,12
 570 657 570 657 601 613 c 1,13,14
 581 578 581 578 557 578 c 0,15,16
 541 578 541 578 524 592 c 0,17,18
 490 621 490 621 455 634 c 128,-1,19
 420 647 420 647 376 647 c 0,20,21
 258 647 258 647 197 571.5 c 128,-1,22
 136 496 136 496 136 350 c 0,23,24
 136 200 136 200 195.5 126.5 c 128,-1,25
 255 53 255 53 376 53 c 0,26,27
 426 53 426 53 469 66 c 128,-1,28
 512 79 512 79 532 101 c 1,29,-1
 532 311 l 1,30,-1
 391 311 l 2,31,32
 371 311 371 311 362.5 325 c 128,-1,33
 354 339 354 339 354 373 c 1,34,-1
 604 373 l 1,0,-1
EndSplineSet
EndChar

StartChar: H
Encoding: 72 72 69
Width: 680
GlyphClass: 2
Flags: W
AnchorPoint: "Anchor-10" 0 0 basechar 0
AnchorPoint: "Anchor-9" 340 660 basechar 0
AnchorPoint: "Anchor-8" 0 0 basechar 0
AnchorPoint: "Anchor-7" 340 0 basechar 0
LayerCount: 2
Fore
SplineSet
594 700 m 1,0,-1
 594 0 l 1,1,-1
 522 0 l 1,2,-1
 522 330 l 1,3,-1
 158 330 l 1,4,-1
 158 0 l 1,5,-1
 86 0 l 1,6,-1
 86 700 l 1,7,-1
 158 700 l 1,8,-1
 158 390 l 1,9,-1
 522 390 l 1,10,-1
 522 700 l 1,11,-1
 594 700 l 1,0,-1
EndSplineSet
EndChar

StartChar: Hbar
Encoding: 294 294 70
Width: 680
GlyphClass: 2
Flags: W
AnchorPoint: "Anchor-10" 0 0 basechar 0
AnchorPoint: "Anchor-9" 340 660 basechar 0
AnchorPoint: "Anchor-8" 0 0 basechar 0
AnchorPoint: "Anchor-7" 340 0 basechar 0
LayerCount: 2
Fore
SplineSet
670 524 m 1,0,-1
 594 524 l 1,1,-1
 594 0 l 1,2,-1
 522 0 l 1,3,-1
 522 330 l 1,4,-1
 158 330 l 1,5,-1
 158 0 l 1,6,-1
 86 0 l 1,7,-1
 86 524 l 1,8,-1
 10 524 l 1,9,-1
 10 584 l 1,10,-1
 86 584 l 1,11,-1
 86 700 l 1,12,-1
 158 700 l 1,13,-1
 158 584 l 1,14,-1
 522 584 l 1,15,-1
 522 700 l 1,16,-1
 594 700 l 1,17,-1
 594 584 l 1,18,-1
 670 584 l 1,19,-1
 670 524 l 1,0,-1
522 524 m 1,20,-1
 158 524 l 1,21,-1
 158 390 l 1,22,-1
 522 390 l 1,23,-1
 522 524 l 1,20,-1
EndSplineSet
EndChar

StartChar: I
Encoding: 73 73 74
Width: 350
GlyphClass: 2
Flags: W
AnchorPoint: "Anchor-10" 0 0 basechar 0
AnchorPoint: "Anchor-9" 175 660 basechar 0
AnchorPoint: "Anchor-8" 211 0 basechar 0
AnchorPoint: "Anchor-7" 175 0 basechar 0
LayerCount: 2
Fore
SplineSet
139 700 m 1,0,-1
 211 700 l 1,1,-1
 211 0 l 1,2,-1
 139 0 l 1,3,-1
 139 700 l 1,0,-1
EndSplineSet
EndChar

StartChar: J
Encoding: 74 74 88
Width: 427
GlyphClass: 2
Flags: W
AnchorPoint: "Anchor-10" 0 0 basechar 0
AnchorPoint: "Anchor-9" 303 660 basechar 0
AnchorPoint: "Anchor-8" 0 0 basechar 0
AnchorPoint: "Anchor-7" 214 0 basechar 0
LayerCount: 2
Fore
SplineSet
77.5 -1.5 m 128,-1,1
 42 7 42 7 24 17 c 1,2,3
 24 44 24 44 31.5 57 c 128,-1,4
 39 70 39 70 51 70 c 0,5,6
 55 70 55 70 85 61 c 128,-1,7
 115 52 115 52 149 52 c 0,8,9
 267 52 267 52 267 183 c 2,10,-1
 267 700 l 1,11,-1
 339 700 l 1,12,-1
 339 183 l 2,13,14
 339 93 339 93 287.5 41.5 c 128,-1,15
 236 -10 236 -10 147 -10 c 0,16,0
 113 -10 113 -10 77.5 -1.5 c 128,-1,1
EndSplineSet
EndChar

StartChar: K
Encoding: 75 75 90
Width: 610
GlyphClass: 2
Flags: W
AnchorPoint: "Anchor-10" 0 0 basechar 0
AnchorPoint: "Anchor-9" 323 660 basechar 0
AnchorPoint: "Anchor-8" 0 0 basechar 0
AnchorPoint: "Anchor-7" 325 0 basechar 0
LayerCount: 2
Fore
SplineSet
585 3 m 1,0,1
 565 -8 565 -8 542 -8 c 0,2,3
 524 -8 524 -8 513.5 -1.5 c 128,-1,4
 503 5 503 5 492 22 c 2,5,-1
 340 268 l 2,6,7
 317 305 317 305 291.5 317.5 c 128,-1,8
 266 330 266 330 211 330 c 2,9,-1
 172 330 l 1,10,-1
 172 0 l 1,11,-1
 100 0 l 1,12,-1
 100 700 l 1,13,-1
 172 700 l 1,14,-1
 172 392 l 1,15,-1
 231 392 l 2,16,17
 249 392 249 392 258 391 c 1,18,-1
 494 700 l 1,19,-1
 577 700 l 1,20,-1
 322 371 l 1,21,22
 364 348 364 348 402 289 c 2,23,-1
 585 3 l 1,0,1
EndSplineSet
EndChar

StartChar: L
Encoding: 76 76 92
Width: 513
GlyphClass: 2
Flags: W
AnchorPoint: "Anchor-10" 443 660 basechar 0
AnchorPoint: "Anchor-9" 122 660 basechar 0
AnchorPoint: "Anchor-8" 0 0 basechar 0
AnchorPoint: "Anchor-7" 292 0 basechar 0
LayerCount: 2
Fore
SplineSet
498 60 m 1,0,-1
 498 0 l 1,1,-1
 86 0 l 1,2,-1
 86 700 l 1,3,-1
 158 700 l 1,4,-1
 158 60 l 1,5,-1
 498 60 l 1,0,-1
EndSplineSet
EndChar

StartChar: Lslash
Encoding: 321 321 100
Width: 547
GlyphClass: 2
Flags: W
AnchorPoint: "Anchor-10" 463 660 basechar 0
AnchorPoint: "Anchor-9" 142 660 basechar 0
AnchorPoint: "Anchor-8" 0 0 basechar 0
AnchorPoint: "Anchor-7" 312 0 basechar 0
LayerCount: 2
Fore
SplineSet
518 60 m 1,0,-1
 518 0 l 1,1,-1
 106 0 l 1,2,-1
 106 353 l 1,3,-1
 17 317 l 1,4,-1
 17 386 l 1,5,-1
 106 422 l 1,6,-1
 106 700 l 1,7,-1
 178 700 l 1,8,-1
 178 450 l 1,9,-1
 369 527 l 1,10,-1
 369 458 l 1,11,-1
 178 381 l 1,12,-1
 178 60 l 1,13,-1
 518 60 l 1,0,-1
EndSplineSet
EndChar

StartChar: M
Encoding: 77 77 101
Width: 829
GlyphClass: 2
Flags: W
AnchorPoint: "Anchor-10" 0 0 basechar 0
AnchorPoint: "Anchor-9" 415 660 basechar 0
AnchorPoint: "Anchor-8" 0 0 basechar 0
AnchorPoint: "Anchor-7" 415 0 basechar 0
LayerCount: 2
Fore
SplineSet
681 0 m 1,0,1
 672 314 672 314 624 599 c 1,2,3
 588 517 588 517 553 416.5 c 128,-1,4
 518 316 518 316 441 70 c 1,5,-1
 389 70 l 1,6,7
 321 286 321 286 282.5 395.5 c 128,-1,8
 244 505 244 505 205 596 c 1,9,10
 157 323 157 323 148 0 c 1,11,-1
 76 0 l 1,12,13
 81 188 81 188 100.5 370 c 128,-1,14
 120 552 120 552 151 700 c 1,15,-1
 231 700 l 1,16,17
 291 571 291 571 332 464 c 128,-1,18
 373 357 373 357 415 219 c 1,19,20
 457 357 457 357 498 463.5 c 128,-1,21
 539 570 539 570 598 700 c 1,22,-1
 678 700 l 1,23,24
 709 552 709 552 728.5 370 c 128,-1,25
 748 188 748 188 753 0 c 1,26,-1
 681 0 l 1,0,1
EndSplineSet
EndChar

StartChar: N
Encoding: 78 78 103
Width: 690
GlyphClass: 2
Flags: W
AnchorPoint: "Anchor-10" 0 0 basechar 0
AnchorPoint: "Anchor-9" 344 660 basechar 0
AnchorPoint: "Anchor-8" 0 0 basechar 0
AnchorPoint: "Anchor-7" 344 0 basechar 0
LayerCount: 2
Fore
SplineSet
602 64 m 0,1,2
 604 36 604 36 604 27 c 0,3,4
 604 0 604 0 578 0 c 2,5,-1
 528 0 l 1,6,-1
 528 54 l 2,7,8
 528 112 528 112 489 165 c 2,9,-1
 158 601 l 1,10,-1
 158 0 l 1,11,-1
 86 0 l 1,12,-1
 86 700 l 1,13,-1
 144 700 l 2,14,15
 157 700 157 700 164.5 696.5 c 128,-1,16
 172 693 172 693 182 680 c 2,17,-1
 528 225 l 1,18,-1
 528 700 l 1,19,-1
 600 700 l 1,20,-1
 600 137 l 2,21,0
 600 106 600 106 602 64 c 0,1,2
EndSplineSet
EndChar

StartChar: Eng
Encoding: 330 330 109
Width: 685
Flags: W
LayerCount: 2
Fore
SplineSet
599 700 m 1,0,-1
 599 -33 l 2,1,2
 599 -108 599 -108 556.5 -150 c 128,-1,3
 514 -192 514 -192 442 -192 c 0,4,5
 411 -192 411 -192 382 -180.5 c 128,-1,6
 353 -169 353 -169 353 -147 c 0,7,8
 353 -136 353 -136 358.5 -127 c 128,-1,9
 364 -118 364 -118 369 -118 c 0,10,11
 406 -134 406 -134 450 -134 c 0,12,13
 486 -134 486 -134 506.5 -110.5 c 128,-1,14
 527 -87 527 -87 527 -42 c 2,15,-1
 527 54 l 2,16,17
 527 113 527 113 488 165 c 2,18,-1
 158 601 l 1,19,-1
 158 0 l 1,20,-1
 86 0 l 1,21,-1
 86 700 l 1,22,-1
 144 700 l 2,23,24
 157 700 157 700 164.5 696.5 c 128,-1,25
 172 693 172 693 182 680 c 2,26,-1
 527 225 l 1,27,-1
 527 700 l 1,28,-1
 599 700 l 1,0,-1
EndSplineSet
EndChar

StartChar: O
Encoding: 79 79 112
Width: 680
GlyphClass: 2
Flags: W
AnchorPoint: "Anchor-10" 482 639 basechar 0
AnchorPoint: "Anchor-9" 340 660 basechar 0
AnchorPoint: "Anchor-8" 439 31 basechar 0
AnchorPoint: "Anchor-7" 340 0 basechar 0
LayerCount: 2
Fore
SplineSet
123.5 84 m 128,-1,1
 48 178 48 178 48 354 c 0,2,3
 48 526 48 526 123.5 618 c 128,-1,4
 199 710 199 710 340 710 c 256,5,6
 481 710 481 710 556.5 618 c 128,-1,7
 632 526 632 526 632 354 c 0,8,9
 632 178 632 178 556.5 84 c 128,-1,10
 481 -10 481 -10 340 -10 c 256,11,0
 199 -10 199 -10 123.5 84 c 128,-1,1
503 129.5 m 128,-1,13
 558 205 558 205 558 354 c 0,14,15
 558 646 558 646 340 646 c 256,16,17
 122 646 122 646 122 354 c 0,18,19
 122 205 122 205 177 129.5 c 128,-1,20
 232 54 232 54 340 54 c 256,21,12
 448 54 448 54 503 129.5 c 128,-1,13
EndSplineSet
Substitution2: "Single Substitution lookup 20 subtable" ordmasculine
Substitution2: "'aalt' Access All Alternates lookup 0 subtable" ordmasculine
EndChar

StartChar: Ohorn
Encoding: 416 416 126
Width: 680
GlyphClass: 2
Flags: W
AnchorPoint: "Anchor-10" 482 639 basechar 0
AnchorPoint: "Anchor-9" 340 660 basechar 0
AnchorPoint: "Anchor-8" 439 31 basechar 0
AnchorPoint: "Anchor-7" 340 0 basechar 0
LayerCount: 2
Fore
SplineSet
632 354 m 0,1,2
 632 178 632 178 556.5 84 c 128,-1,3
 481 -10 481 -10 340 -10 c 256,4,5
 199 -10 199 -10 123.5 84 c 128,-1,6
 48 178 48 178 48 354 c 0,7,8
 48 526 48 526 123.5 618 c 128,-1,9
 199 710 199 710 340 710 c 0,10,11
 436 710 436 710 500 668 c 1,12,13
 522 673 522 673 535 690.5 c 128,-1,14
 548 708 548 708 548 733 c 0,15,16
 548 763 548 763 519 785 c 1,17,18
 521 798 521 798 532 808 c 128,-1,19
 543 818 543 818 557 818 c 0,20,21
 583 818 583 818 599 798.5 c 128,-1,22
 615 779 615 779 615 743 c 0,23,24
 615 703 615 703 596.5 674.5 c 128,-1,25
 578 646 578 646 545 631 c 1,26,0
 632 538 632 538 632 354 c 0,1,2
503 129.5 m 128,-1,28
 558 205 558 205 558 354 c 0,29,30
 558 646 558 646 340 646 c 256,31,32
 122 646 122 646 122 354 c 0,33,34
 122 205 122 205 177 129.5 c 128,-1,35
 232 54 232 54 340 54 c 256,36,27
 448 54 448 54 503 129.5 c 128,-1,28
EndSplineSet
EndChar

StartChar: Oslash
Encoding: 216 216 134
Width: 680
GlyphClass: 2
Flags: W
AnchorPoint: "Anchor-10" 482 639 basechar 0
AnchorPoint: "Anchor-9" 340 660 basechar 0
AnchorPoint: "Anchor-8" 439 31 basechar 0
AnchorPoint: "Anchor-7" 340 0 basechar 0
LayerCount: 2
Fore
SplineSet
632 354 m 0,1,2
 632 178 632 178 556.5 84 c 128,-1,3
 481 -10 481 -10 340 -10 c 0,4,5
 231 -10 231 -10 159 48 c 1,6,-1
 125 0 l 1,7,-1
 53 0 l 1,8,-1
 118 92 l 1,9,10
 48 185 48 185 48 354 c 0,11,12
 48 526 48 526 123.5 618 c 128,-1,13
 199 710 199 710 340 710 c 0,14,15
 448 710 448 710 517 656 c 1,16,-1
 549 701 l 1,17,-1
 621 701 l 1,18,-1
 560 614 l 1,19,0
 632 522 632 522 632 354 c 0,1,2
162 154 m 1,21,-1
 478 600 l 1,22,23
 426 646 426 646 340 646 c 0,24,25
 122 646 122 646 122 354 c 0,26,20
 122 227 122 227 162 154 c 1,21,-1
503 129.5 m 128,-1,28
 558 205 558 205 558 354 c 0,29,30
 558 481 558 481 516 553 c 1,31,-1
 199 105 l 1,32,33
 251 54 251 54 340 54 c 0,34,27
 448 54 448 54 503 129.5 c 128,-1,28
EndSplineSet
EndChar

StartChar: OE
Encoding: 338 338 137
Width: 1035
GlyphClass: 2
Flags: W
AnchorPoint: "Anchor-10" 482 639 basechar 0
AnchorPoint: "Anchor-9" 755 660 basechar 0
AnchorPoint: "Anchor-8" 967 10 basechar 0
AnchorPoint: "Anchor-7" 755 0 basechar 0
LayerCount: 2
Fore
SplineSet
980 60 m 1,0,1
 980 24 980 24 969.5 12 c 128,-1,2
 959 0 959 0 928 0 c 2,3,-1
 561 0 l 1,4,-1
 561 90 l 1,5,6
 484 -10 484 -10 340 -10 c 0,7,8
 199 -10 199 -10 123.5 84 c 128,-1,9
 48 178 48 178 48 354 c 0,10,11
 48 526 48 526 123.5 618 c 128,-1,12
 199 710 199 710 340 710 c 0,13,14
 484 710 484 710 561 612 c 1,15,-1
 561 700 l 1,16,-1
 979 700 l 1,17,-1
 979 640 l 1,18,-1
 633 640 l 1,19,-1
 633 388 l 1,20,-1
 931 388 l 1,21,-1
 931 328 l 1,22,-1
 633 328 l 1,23,-1
 633 60 l 1,24,-1
 980 60 l 1,0,1
503 129.5 m 128,-1,26
 558 205 558 205 558 354 c 0,27,28
 558 646 558 646 340 646 c 256,29,30
 122 646 122 646 122 354 c 0,31,32
 122 205 122 205 177 129.5 c 128,-1,33
 232 54 232 54 340 54 c 256,34,25
 448 54 448 54 503 129.5 c 128,-1,26
EndSplineSet
EndChar

StartChar: P
Encoding: 80 80 138
Width: 615
GlyphClass: 2
Flags: W
AnchorPoint: "Anchor-10" 0 0 basechar 0
AnchorPoint: "Anchor-9" 308 660 basechar 0
AnchorPoint: "Anchor-8" 0 0 basechar 0
AnchorPoint: "Anchor-7" 308 0 basechar 0
LayerCount: 2
Fore
SplineSet
501.5 643.5 m 128,-1,1
 572 587 572 587 572 477 c 0,2,3
 572 365 572 365 501.5 308 c 128,-1,4
 431 251 431 251 294 251 c 2,5,-1
 158 251 l 1,6,-1
 158 0 l 1,7,-1
 86 0 l 1,8,-1
 86 700 l 1,9,-1
 294 700 l 2,10,0
 431 700 431 700 501.5 643.5 c 128,-1,1
450.5 352.5 m 128,-1,12
 500 392 500 392 500 477 c 0,13,14
 500 561 500 561 450.5 599.5 c 128,-1,15
 401 638 401 638 294 638 c 2,16,-1
 158 638 l 1,17,-1
 158 313 l 1,18,-1
 294 313 l 2,19,11
 401 313 401 313 450.5 352.5 c 128,-1,12
EndSplineSet
EndChar

StartChar: Thorn
Encoding: 222 222 139
Width: 641
GlyphClass: 2
Flags: W
AnchorPoint: "Anchor-10" 0 0 basechar 0
AnchorPoint: "Anchor-9" 321 700 basechar 0
AnchorPoint: "Anchor-8" 0 0 basechar 0
AnchorPoint: "Anchor-7" 321 0 basechar 0
LayerCount: 2
Fore
SplineSet
525 534 m 128,-1,1
 588 470 588 470 588 363 c 256,2,3
 588 256 588 256 525 192 c 128,-1,4
 462 128 462 128 327 128 c 2,5,-1
 181 128 l 1,6,-1
 181 0 l 1,7,-1
 109 0 l 1,8,-1
 109 700 l 1,9,-1
 181 700 l 1,10,-1
 181 598 l 1,11,-1
 327 598 l 2,12,0
 462 598 462 598 525 534 c 128,-1,1
514 363 m 256,14,15
 514 538 514 538 327 538 c 2,16,-1
 181 538 l 1,17,-1
 181 188 l 1,18,-1
 327 188 l 2,19,13
 514 188 514 188 514 363 c 256,14,15
EndSplineSet
EndChar

StartChar: Q
Encoding: 81 81 140
Width: 680
GlyphClass: 2
Flags: W
AnchorPoint: "Anchor-10" 482 639 basechar 0
AnchorPoint: "Anchor-9" 340 660 basechar 0
AnchorPoint: "Anchor-8" 439 31 basechar 0
AnchorPoint: "Anchor-7" 340 0 basechar 0
LayerCount: 2
Fore
SplineSet
592.5 144 m 128,-1,1
 553 59 553 59 478 20 c 1,2,3
 494 -1 494 -1 540 -57 c 1,4,5
 530 -68 530 -68 515.5 -75 c 128,-1,6
 501 -82 501 -82 485 -82 c 0,7,8
 459 -82 459 -82 440 -53 c 2,9,-1
 408 -4 l 1,10,11
 377 -10 377 -10 340 -10 c 0,12,13
 199 -10 199 -10 123.5 84 c 128,-1,14
 48 178 48 178 48 354 c 0,15,16
 48 526 48 526 123.5 618 c 128,-1,17
 199 710 199 710 340 710 c 256,18,19
 481 710 481 710 556.5 618 c 128,-1,20
 632 526 632 526 632 354 c 0,21,0
 632 229 632 229 592.5 144 c 128,-1,1
371 56 m 1,23,-1
 314 149 l 1,24,-1
 390 149 l 1,25,26
 413 111 413 111 439 75 c 1,27,28
 558 134 558 134 558 354 c 0,29,30
 558 646 558 646 340 646 c 256,31,32
 122 646 122 646 122 354 c 0,33,34
 122 205 122 205 177 129.5 c 128,-1,35
 232 54 232 54 340 54 c 0,36,22
 351 54 351 54 371 56 c 1,23,-1
EndSplineSet
EndChar

StartChar: R
Encoding: 82 82 141
Width: 629
GlyphClass: 2
Flags: W
AnchorPoint: "Anchor-10" 0 0 basechar 0
AnchorPoint: "Anchor-9" 313 660 basechar 0
AnchorPoint: "Anchor-8" 0 0 basechar 0
AnchorPoint: "Anchor-7" 315 0 basechar 0
LayerCount: 2
Fore
SplineSet
585 3 m 1,0,1
 565 -8 565 -8 542 -8 c 0,2,3
 524 -8 524 -8 512.5 -1 c 128,-1,4
 501 6 501 6 492 22 c 2,5,-1
 378 218 l 2,6,7
 354 260 354 260 319.5 277.5 c 128,-1,8
 285 295 285 295 226 295 c 2,9,-1
 158 295 l 1,10,-1
 158 0 l 1,11,-1
 86 0 l 1,12,-1
 86 700 l 1,13,-1
 313 700 l 2,14,15
 434 700 434 700 503 646.5 c 128,-1,16
 572 593 572 593 572 498 c 0,17,18
 572 423 572 423 522 368.5 c 128,-1,19
 472 314 472 314 392 301 c 1,20,21
 421 277 421 277 444 240 c 2,22,-1
 585 3 l 1,0,1
308 357 m 2,23,24
 398 357 398 357 447.5 394 c 128,-1,25
 497 431 497 431 497 498 c 0,26,27
 497 567 497 567 450.5 602.5 c 128,-1,28
 404 638 404 638 313 638 c 2,29,-1
 158 638 l 1,30,-1
 158 357 l 1,31,-1
 308 357 l 2,23,24
EndSplineSet
EndChar

StartChar: S
Encoding: 83 83 148
Width: 642
GlyphClass: 2
Flags: W
AnchorPoint: "Anchor-10" 0 0 basechar 0
AnchorPoint: "Anchor-9" 321 660 basechar 0
AnchorPoint: "Anchor-8" 0 0 basechar 0
AnchorPoint: "Anchor-7" 321 0 basechar 0
LayerCount: 2
Fore
SplineSet
195 11.5 m 128,-1,1
 137 33 137 33 103 70 c 128,-1,2
 69 107 69 107 69 151 c 0,3,4
 69 171 69 171 83.5 183.5 c 128,-1,5
 98 196 98 196 122 197 c 1,6,7
 138 126 138 126 190 89 c 128,-1,8
 242 52 242 52 324 52 c 0,9,10
 408 52 408 52 459.5 91 c 128,-1,11
 511 130 511 130 511 193 c 0,12,13
 511 230 511 230 492.5 256 c 128,-1,14
 474 282 474 282 432 302.5 c 128,-1,15
 390 323 390 323 316 342 c 0,16,17
 230 365 230 365 181 390.5 c 128,-1,18
 132 416 132 416 110.5 448.5 c 128,-1,19
 89 481 89 481 89 529 c 0,20,21
 89 613 89 613 151 661.5 c 128,-1,22
 213 710 213 710 322 710 c 0,23,24
 417 710 417 710 480.5 665.5 c 128,-1,25
 544 621 544 621 566 540 c 1,26,27
 553 527 553 527 526 527 c 0,28,29
 498 527 498 527 485 554 c 0,30,31
 463 598 463 598 418.5 624 c 128,-1,32
 374 650 374 650 322 650 c 0,33,34
 243 650 243 650 202 619 c 128,-1,35
 161 588 161 588 161 529 c 0,36,37
 161 499 161 499 176 478.5 c 128,-1,38
 191 458 191 458 226 441 c 128,-1,39
 261 424 261 424 325 406 c 0,40,41
 432 376 432 376 486.5 349 c 128,-1,42
 541 322 541 322 563 288 c 128,-1,43
 585 254 585 254 585 199 c 0,44,45
 585 136 585 136 553 88.5 c 128,-1,46
 521 41 521 41 461.5 15.5 c 128,-1,47
 402 -10 402 -10 322 -10 c 0,48,0
 253 -10 253 -10 195 11.5 c 128,-1,1
EndSplineSet
EndChar

StartChar: Scedilla
Encoding: 350 350 151
Width: 642
GlyphClass: 2
Flags: W
AnchorPoint: "Anchor-10" 0 0 basechar 0
AnchorPoint: "Anchor-9" 0 0 basechar 0
AnchorPoint: "Anchor-8" 0 0 basechar 0
AnchorPoint: "Anchor-7" 321 -214 basechar 0
LayerCount: 2
Fore
SplineSet
521 52.5 m 128,-1,1
 457 -3 457 -3 347 -9 c 1,2,-1
 310 -55 l 1,3,-1
 317 -55 l 2,4,5
 359 -55 359 -55 385 -76 c 128,-1,6
 411 -97 411 -97 411 -136 c 0,7,8
 411 -180 411 -180 376 -204.5 c 128,-1,9
 341 -229 341 -229 290 -229 c 0,10,11
 245 -229 245 -229 221 -218 c 128,-1,12
 197 -207 197 -207 197 -187 c 0,13,14
 197 -181 197 -181 200 -173 c 1,15,16
 241 -184 241 -184 284 -184 c 0,17,18
 314 -184 314 -184 331 -171.5 c 128,-1,19
 348 -159 348 -159 348 -138 c 0,20,21
 348 -123 348 -123 334.5 -111.5 c 128,-1,22
 321 -100 321 -100 297 -100 c 0,23,24
 278 -100 278 -100 257 -107 c 1,25,-1
 240 -75 l 1,26,-1
 290 -9 l 1,27,28
 228 -4 228 -4 177.5 18.5 c 128,-1,29
 127 41 127 41 98 75.5 c 128,-1,30
 69 110 69 110 69 151 c 0,31,32
 69 171 69 171 83.5 183.5 c 128,-1,33
 98 196 98 196 122 197 c 1,34,35
 138 126 138 126 190 89 c 128,-1,36
 242 52 242 52 324 52 c 0,37,38
 408 52 408 52 459.5 91 c 128,-1,39
 511 130 511 130 511 193 c 0,40,41
 511 230 511 230 492.5 256 c 128,-1,42
 474 282 474 282 432 302.5 c 128,-1,43
 390 323 390 323 316 342 c 0,44,45
 230 365 230 365 181 390.5 c 128,-1,46
 132 416 132 416 110.5 448.5 c 128,-1,47
 89 481 89 481 89 529 c 0,48,49
 89 613 89 613 151 661.5 c 128,-1,50
 213 710 213 710 322 710 c 0,51,52
 417 710 417 710 480.5 665.5 c 128,-1,53
 544 621 544 621 566 540 c 1,54,55
 553 527 553 527 526 527 c 0,56,57
 498 527 498 527 485 554 c 0,58,59
 463 598 463 598 418.5 624 c 128,-1,60
 374 650 374 650 322 650 c 0,61,62
 243 650 243 650 202 619 c 128,-1,63
 161 588 161 588 161 529 c 0,64,65
 161 499 161 499 176 478.5 c 128,-1,66
 191 458 191 458 226 441 c 128,-1,67
 261 424 261 424 325 406 c 0,68,69
 432 376 432 376 486.5 349 c 128,-1,70
 541 322 541 322 563 288 c 128,-1,71
 585 254 585 254 585 199 c 0,72,0
 585 108 585 108 521 52.5 c 128,-1,1
EndSplineSet
Substitution2: "'locl' Localized Forms in Latin lookup 7 subtable" uni0218
Substitution2: "'locl' Localized Forms in Latin lookup 6 subtable" uni0218
Substitution2: "'aalt' Access All Alternates lookup 0 subtable" uni0218
EndChar

StartChar: uni1E9E
Encoding: 7838 7838 156
Width: 700
Flags: W
LayerCount: 2
Fore
SplineSet
583.5 333.5 m 128,-1,1
 636 283 636 283 636 194 c 0,2,3
 636 129 636 129 606 83 c 128,-1,4
 576 37 576 37 524 13.5 c 128,-1,5
 472 -10 472 -10 408 -10 c 0,6,7
 365 -10 365 -10 324.5 1.5 c 128,-1,8
 284 13 284 13 261 31 c 0,9,10
 253 38 253 38 248.5 48 c 128,-1,11
 244 58 244 58 244 69 c 0,12,13
 244 81 244 81 250 90.5 c 128,-1,14
 256 100 256 100 267 102 c 1,15,16
 300 77 300 77 335 64.5 c 128,-1,17
 370 52 370 52 412 52 c 0,18,19
 482 52 482 52 522 88 c 128,-1,20
 562 124 562 124 562 193 c 0,21,22
 562 272 562 272 515 309 c 128,-1,23
 468 346 468 346 384 346 c 0,24,25
 367 346 367 346 356.5 358.5 c 128,-1,26
 346 371 346 371 346 388 c 1,27,-1
 509 550 l 1,28,29
 476 646 476 646 335 646 c 0,30,31
 284 646 284 646 243.5 624.5 c 128,-1,32
 203 603 203 603 179.5 563 c 128,-1,33
 156 523 156 523 156 469 c 2,34,-1
 156 0 l 1,35,-1
 84 0 l 1,36,-1
 84 469 l 2,37,38
 84 543 84 543 118.5 597 c 128,-1,39
 153 651 153 651 211 679.5 c 128,-1,40
 269 708 269 708 338 708 c 0,41,42
 442 708 442 708 508 660.5 c 128,-1,43
 574 613 574 613 591 539 c 1,44,-1
 448 396 l 1,45,0
 531 384 531 384 583.5 333.5 c 128,-1,1
EndSplineSet
EndChar

StartChar: uni018F
Encoding: 399 399 157
Width: 692
Flags: W
LayerCount: 2
Fore
SplineSet
554.5 615.5 m 128,-1,1
 634 521 634 521 634 348 c 0,2,3
 634 173 634 173 555.5 81.5 c 128,-1,4
 477 -10 477 -10 328 -10 c 0,5,6
 188 -10 188 -10 115 73 c 128,-1,7
 42 156 42 156 42 315 c 2,8,-1
 42 363 l 1,9,-1
 560 363 l 1,10,11
 557 501 557 501 498 574 c 128,-1,12
 439 647 439 647 330 647 c 0,13,14
 227 647 227 647 162 592 c 0,15,16
 145 578 145 578 129 578 c 0,17,18
 105 578 105 578 85 613 c 1,19,20
 116 657 116 657 183 683.5 c 128,-1,21
 250 710 250 710 329 710 c 0,22,0
 475 710 475 710 554.5 615.5 c 128,-1,1
558 301 m 1,24,-1
 114 301 l 1,25,26
 114 182 114 182 170 117.5 c 128,-1,27
 226 53 226 53 329 53 c 0,28,23
 541 53 541 53 558 301 c 1,24,-1
EndSplineSet
EndChar

StartChar: T
Encoding: 84 84 158
Width: 534
GlyphClass: 2
Flags: W
AnchorPoint: "Anchor-10" 0 0 basechar 0
AnchorPoint: "Anchor-9" 268 660 basechar 0
AnchorPoint: "Anchor-8" 0 0 basechar 0
AnchorPoint: "Anchor-7" 269 0 basechar 0
LayerCount: 2
Fore
SplineSet
523 676 m 0,1,2
 523 659 523 659 514 649.5 c 128,-1,3
 505 640 505 640 487 640 c 2,4,-1
 303 640 l 1,5,-1
 303 0 l 1,6,-1
 231 0 l 1,7,-1
 231 640 l 1,8,-1
 15 640 l 1,9,-1
 15 700 l 1,10,-1
 519 700 l 1,11,0
 523 682 523 682 523 676 c 0,1,2
EndSplineSet
EndChar

StartChar: Tbar
Encoding: 358 358 159
Width: 533
GlyphClass: 2
Flags: W
AnchorPoint: "Anchor-10" 0 0 basechar 0
AnchorPoint: "Anchor-9" 268 660 basechar 0
AnchorPoint: "Anchor-8" 0 0 basechar 0
AnchorPoint: "Anchor-7" 269 0 basechar 0
LayerCount: 2
Fore
SplineSet
523 676 m 0,1,2
 523 659 523 659 514 649.5 c 128,-1,3
 505 640 505 640 487 640 c 2,4,-1
 303 640 l 1,5,-1
 303 363 l 1,6,-1
 434 363 l 1,7,-1
 434 305 l 1,8,-1
 303 305 l 1,9,-1
 303 0 l 1,10,-1
 231 0 l 1,11,-1
 231 305 l 1,12,-1
 102 305 l 1,13,-1
 102 363 l 1,14,-1
 231 363 l 1,15,-1
 231 640 l 1,16,-1
 15 640 l 1,17,-1
 15 700 l 1,18,-1
 519 700 l 1,19,0
 523 682 523 682 523 676 c 0,1,2
EndSplineSet
EndChar

StartChar: U
Encoding: 85 85 165
Width: 708
GlyphClass: 2
Flags: W
AnchorPoint: "Anchor-10" 625 673 basechar 0
AnchorPoint: "Anchor-9" 354 660 basechar 0
AnchorPoint: "Anchor-8" 445 10 basechar 0
AnchorPoint: "Anchor-7" 354 0 basechar 0
LayerCount: 2
Fore
SplineSet
152.5 54.5 m 128,-1,1
 86 119 86 119 86 251 c 2,2,-1
 86 700 l 1,3,-1
 158 700 l 1,4,-1
 158 241 l 2,5,6
 158 144 158 144 206 98 c 128,-1,7
 254 52 254 52 356 52 c 0,8,9
 459 52 459 52 506 97.5 c 128,-1,10
 553 143 553 143 553 241 c 2,11,-1
 553 700 l 1,12,-1
 625 700 l 1,13,-1
 625 251 l 2,14,15
 625 117 625 117 560 53.5 c 128,-1,16
 495 -10 495 -10 356 -10 c 0,17,0
 219 -10 219 -10 152.5 54.5 c 128,-1,1
EndSplineSet
EndChar

StartChar: Uogonek
Encoding: 370 370 186
Width: 708
GlyphClass: 2
Flags: W
AnchorPoint: "Anchor-10" 625 673 basechar 0
AnchorPoint: "Anchor-9" 354 660 basechar 0
AnchorPoint: "Anchor-8" 445 10 basechar 0
AnchorPoint: "Anchor-7" 354 0 basechar 0
LayerCount: 2
Fore
SplineSet
625 700 m 1,0,-1
 625 251 l 2,1,2
 625 134 625 134 576 71 c 128,-1,3
 527 8 527 8 424 -6 c 1,4,5
 372 -50 372 -50 372 -104 c 0,6,7
 372 -129 372 -129 386 -142.5 c 128,-1,8
 400 -156 400 -156 425 -156 c 0,9,10
 455 -156 455 -156 478 -146 c 1,11,12
 484 -155 484 -155 484 -166 c 0,13,14
 484 -180 484 -180 466 -190 c 128,-1,15
 448 -200 448 -200 415 -200 c 0,16,17
 368 -200 368 -200 339.5 -175.5 c 128,-1,18
 311 -151 311 -151 311 -112 c 0,19,20
 311 -48 311 -48 369 -10 c 1,21,-1
 356 -10 l 2,22,23
 219 -10 219 -10 152.5 54.5 c 128,-1,24
 86 119 86 119 86 251 c 2,25,-1
 86 700 l 1,26,-1
 158 700 l 1,27,-1
 158 241 l 2,28,29
 158 144 158 144 206 98 c 128,-1,30
 254 52 254 52 356 52 c 0,31,32
 459 52 459 52 506 97.5 c 128,-1,33
 553 143 553 143 553 241 c 2,34,-1
 553 700 l 1,35,-1
 625 700 l 1,0,-1
EndSplineSet
EndChar

StartChar: V
Encoding: 86 86 189
Width: 638
GlyphClass: 2
Flags: W
AnchorPoint: "Anchor-10" 0 0 basechar 0
AnchorPoint: "Anchor-9" 319 660 basechar 0
AnchorPoint: "Anchor-8" 0 0 basechar 0
AnchorPoint: "Anchor-7" 319 0 basechar 0
LayerCount: 2
Fore
SplineSet
608 700 m 1,0,1
 576 515 576 515 514.5 343.5 c 128,-1,2
 453 172 453 172 357 0 c 1,3,-1
 282 0 l 1,4,5
 185 174 185 174 123 345.5 c 128,-1,6
 61 517 61 517 30 700 c 1,7,-1
 106 700 l 1,8,9
 157 376 157 376 319 79 c 1,10,11
 481 376 481 376 532 700 c 1,12,-1
 608 700 l 1,0,1
EndSplineSet
EndChar

StartChar: W
Encoding: 87 87 190
Width: 856
GlyphClass: 2
Flags: W
AnchorPoint: "Anchor-10" 0 0 basechar 0
AnchorPoint: "Anchor-9" 433 660 basechar 0
AnchorPoint: "Anchor-8" 0 0 basechar 0
AnchorPoint: "Anchor-7" 433 0 basechar 0
LayerCount: 2
Fore
SplineSet
841 700 m 1,0,1
 820 559 820 559 782 408 c 128,-1,2
 744 257 744 257 666 0 c 1,3,-1
 584 0 l 1,4,5
 515 232 515 232 484.5 344 c 128,-1,6
 454 456 454 456 433 551 c 1,7,8
 409 443 409 443 376 321.5 c 128,-1,9
 343 200 343 200 282 0 c 1,10,-1
 200 0 l 1,11,12
 122 242 122 242 80.5 398.5 c 128,-1,13
 39 555 39 555 15 700 c 1,14,-1
 87 700 l 1,15,16
 106 575 106 575 139.5 442.5 c 128,-1,17
 173 310 173 310 241 95 c 1,18,19
 281 219 281 219 316.5 345.5 c 128,-1,20
 352 472 352 472 410 700 c 1,21,-1
 452 700 l 1,22,23
 539 384 539 384 567.5 285 c 128,-1,24
 596 186 596 186 625 96 c 1,25,26
 690 308 690 308 722.5 441 c 128,-1,27
 755 574 755 574 773 700 c 1,28,-1
 841 700 l 1,0,1
EndSplineSet
EndChar

StartChar: X
Encoding: 88 88 195
Width: 582
GlyphClass: 2
Flags: W
AnchorPoint: "Anchor-10" 0 0 basechar 0
AnchorPoint: "Anchor-9" 301 660 basechar 0
AnchorPoint: "Anchor-8" 0 0 basechar 0
AnchorPoint: "Anchor-7" 301 0 basechar 0
LayerCount: 2
Fore
SplineSet
481 0 m 1,0,1
 465 96 465 96 418 168.5 c 128,-1,2
 371 241 371 241 291 322 c 1,3,4
 211 241 211 241 164 168.5 c 128,-1,5
 117 96 117 96 101 0 c 1,6,-1
 24 0 l 1,7,8
 39 82 39 82 71.5 147.5 c 128,-1,9
 104 213 104 213 145 263 c 128,-1,10
 186 313 186 313 244 370 c 1,11,12
 159 455 159 455 109 528.5 c 128,-1,13
 59 602 59 602 39 700 c 1,14,-1
 114 700 l 1,15,16
 132 616 132 616 175.5 552.5 c 128,-1,17
 219 489 219 489 291 417 c 1,18,19
 363 489 363 489 406.5 552.5 c 128,-1,20
 450 616 450 616 468 700 c 1,21,-1
 543 700 l 1,22,23
 523 602 523 602 473 528.5 c 128,-1,24
 423 455 423 455 338 370 c 1,25,26
 396 313 396 313 437 263 c 128,-1,27
 478 213 478 213 510.5 147.5 c 128,-1,28
 543 82 543 82 558 0 c 1,29,-1
 481 0 l 1,0,1
EndSplineSet
EndChar

StartChar: Y
Encoding: 89 89 196
Width: 590
GlyphClass: 2
Flags: W
AnchorPoint: "Anchor-10" 0 0 basechar 0
AnchorPoint: "Anchor-9" 295 660 basechar 0
AnchorPoint: "Anchor-8" 0 0 basechar 0
AnchorPoint: "Anchor-7" 295 0 basechar 0
LayerCount: 2
Fore
SplineSet
570 700 m 1,0,-1
 331 294 l 1,1,-1
 331 0 l 1,2,-1
 259 0 l 1,3,-1
 259 294 l 1,4,-1
 20 700 l 1,5,-1
 98 700 l 1,6,-1
 296 361 l 1,7,-1
 493 700 l 1,8,-1
 570 700 l 1,0,-1
EndSplineSet
EndChar

StartChar: Z
Encoding: 90 90 205
Width: 580
GlyphClass: 2
Flags: W
AnchorPoint: "Anchor-10" 0 0 basechar 0
AnchorPoint: "Anchor-9" 290 660 basechar 0
AnchorPoint: "Anchor-8" 0 0 basechar 0
AnchorPoint: "Anchor-7" 290 0 basechar 0
LayerCount: 2
Fore
SplineSet
528 60 m 1,0,-1
 528 0 l 1,1,-1
 54 0 l 1,2,-1
 54 60 l 1,3,-1
 441 640 l 1,4,-1
 52 640 l 1,5,-1
 52 700 l 1,6,-1
 520 700 l 1,7,-1
 520 636 l 1,8,-1
 138 60 l 1,9,-1
 528 60 l 1,0,-1
EndSplineSet
EndChar

StartChar: a
Encoding: 97 97 210
Width: 558
GlyphClass: 2
Flags: W
AnchorPoint: "Anchor-10" 0 0 basechar 0
AnchorPoint: "Anchor-9" 277 550 basechar 0
AnchorPoint: "Anchor-8" 502 10 basechar 0
AnchorPoint: "Anchor-7" 279 0 basechar 0
LayerCount: 2
Fore
SplineSet
483.5 64.5 m 128,-1,1
 491 38 491 38 510 17 c 1,2,3
 500 7 500 7 486.5 1 c 128,-1,4
 473 -5 473 -5 461 -5 c 0,5,6
 441 -5 441 -5 427.5 18 c 128,-1,7
 414 41 414 41 410 81 c 1,8,9
 379 39 379 39 327 14.5 c 128,-1,10
 275 -10 275 -10 218 -10 c 0,11,12
 142 -10 142 -10 96 29.5 c 128,-1,13
 50 69 50 69 50 133 c 0,14,15
 50 227 50 227 141.5 280 c 128,-1,16
 233 333 233 333 408 341 c 1,17,-1
 408 373 l 2,18,19
 408 439 408 439 374.5 471.5 c 128,-1,20
 341 504 341 504 273 504 c 0,21,22
 229 504 229 504 191.5 485.5 c 128,-1,23
 154 467 154 467 111 424 c 0,24,25
 105 418 105 418 96 418 c 0,26,27
 86 418 86 418 74 426.5 c 128,-1,28
 62 435 62 435 51 451 c 1,29,30
 96 504 96 504 153.5 532 c 128,-1,31
 211 560 211 560 276 560 c 0,32,33
 369 560 369 560 422.5 510 c 128,-1,34
 476 460 476 460 476 373 c 2,35,-1
 476 137 l 2,36,0
 476 91 476 91 483.5 64.5 c 128,-1,1
325 76 m 128,-1,38
 373 106 373 106 408 161 c 1,39,-1
 408 285 l 1,40,41
 120 273 120 273 120 134 c 0,42,43
 120 46 120 46 223 46 c 0,44,37
 277 46 277 46 325 76 c 128,-1,38
EndSplineSet
Substitution2: "Single Substitution lookup 20 subtable" ordfeminine
Substitution2: "'aalt' Access All Alternates lookup 0 subtable" ordfeminine
EndChar

StartChar: uni0251
Encoding: 593 593 229
Width: 598
Flags: W
LayerCount: 2
Fore
SplineSet
521 8 m 1,1,2
 496 -4 496 -4 475 -4 c 0,3,4
 448 -4 448 -4 441 63 c 1,5,6
 409 25 409 25 370.5 7.5 c 128,-1,7
 332 -10 332 -10 273 -10 c 0,8,9
 209 -10 209 -10 156.5 19.5 c 128,-1,10
 104 49 104 49 72 112.5 c 128,-1,11
 40 176 40 176 40 272 c 0,12,13
 40 361 40 361 70.5 426 c 128,-1,14
 101 491 101 491 158 525.5 c 128,-1,15
 215 560 215 560 292 560 c 0,16,17
 334 560 334 560 373.5 546 c 128,-1,18
 413 532 413 532 439 513 c 1,19,-1
 439 550 l 1,20,-1
 507 550 l 1,21,-1
 507 128 l 2,22,0
 507 57 507 57 521 8 c 1,1,2
369.5 67.5 m 128,-1,24
 408 89 408 89 439 131 c 1,25,-1
 439 447 l 1,26,27
 416 472 416 472 374.5 489 c 128,-1,28
 333 506 333 506 292 506 c 0,29,30
 205 506 205 506 157.5 444.5 c 128,-1,31
 110 383 110 383 110 272 c 0,32,33
 110 162 110 162 154 104 c 128,-1,34
 198 46 198 46 278 46 c 0,35,23
 331 46 331 46 369.5 67.5 c 128,-1,24
EndSplineSet
EndChar

StartChar: aogonek
Encoding: 261 261 231
Width: 558
GlyphClass: 2
Flags: W
AnchorPoint: "Anchor-10" 0 0 basechar 0
AnchorPoint: "Anchor-9" 277 550 basechar 0
AnchorPoint: "Anchor-8" 502 10 basechar 0
AnchorPoint: "Anchor-7" 279 0 basechar 0
LayerCount: 2
Fore
SplineSet
541 -166 m 0,1,2
 541 -180 541 -180 523 -190 c 128,-1,3
 505 -200 505 -200 472 -200 c 0,4,5
 425 -200 425 -200 396.5 -175.5 c 128,-1,6
 368 -151 368 -151 368 -112 c 256,7,8
 368 -73 368 -73 387.5 -46.5 c 128,-1,9
 407 -20 407 -20 443 0 c 1,10,11
 416 18 416 18 410 81 c 1,12,13
 379 39 379 39 327 14.5 c 128,-1,14
 275 -10 275 -10 218 -10 c 0,15,16
 142 -10 142 -10 96 29.5 c 128,-1,17
 50 69 50 69 50 133 c 0,18,19
 50 227 50 227 141.5 280 c 128,-1,20
 233 333 233 333 408 341 c 1,21,-1
 408 373 l 2,22,23
 408 439 408 439 374.5 471.5 c 128,-1,24
 341 504 341 504 273 504 c 0,25,26
 229 504 229 504 191.5 485.5 c 128,-1,27
 154 467 154 467 111 424 c 0,28,29
 105 418 105 418 96 418 c 0,30,31
 86 418 86 418 74 426.5 c 128,-1,32
 62 435 62 435 51 451 c 1,33,34
 96 504 96 504 153.5 532 c 128,-1,35
 211 560 211 560 276 560 c 0,36,37
 369 560 369 560 422.5 510 c 128,-1,38
 476 460 476 460 476 373 c 2,39,-1
 476 137 l 2,40,41
 476 91 476 91 483.5 64.5 c 128,-1,42
 491 38 491 38 510 17 c 1,43,-1
 502 10 l 2,44,45
 500 8 500 8 500 8 c 1,46,-1
 498 8 l 1,47,48
 465 -15 465 -15 447 -44 c 128,-1,49
 429 -73 429 -73 429 -104 c 0,50,51
 429 -129 429 -129 443 -142.5 c 128,-1,52
 457 -156 457 -156 482 -156 c 0,53,54
 512 -156 512 -156 535 -146 c 1,55,0
 541 -155 541 -155 541 -166 c 0,1,2
325 76 m 128,-1,57
 373 106 373 106 408 161 c 1,58,-1
 408 285 l 1,59,60
 120 273 120 273 120 134 c 0,61,62
 120 46 120 46 223 46 c 0,63,56
 277 46 277 46 325 76 c 128,-1,57
EndSplineSet
EndChar

StartChar: ae
Encoding: 230 230 235
Width: 918
GlyphClass: 2
Flags: W
AnchorPoint: "Anchor-10" 0 0 basechar 0
AnchorPoint: "Anchor-9" 449 550 basechar 0
AnchorPoint: "Anchor-8" 0 0 basechar 0
AnchorPoint: "Anchor-7" 449 0 basechar 0
LayerCount: 2
Fore
SplineSet
874 268 m 1,1,-1
 478 268 l 1,2,3
 480 157 480 157 523 101.5 c 128,-1,4
 566 46 566 46 648 46 c 0,5,6
 711 46 711 46 746 67.5 c 128,-1,7
 781 89 781 89 802 134 c 0,8,9
 808 148 808 148 822 148 c 256,10,11
 836 148 836 148 867 128 c 1,12,13
 848 62 848 62 792 25 c 128,-1,14
 736 -12 736 -12 648 -12 c 0,15,16
 578 -12 578 -12 525.5 17 c 128,-1,17
 473 46 473 46 444 103 c 1,18,19
 403 47 403 47 345.5 17.5 c 128,-1,20
 288 -12 288 -12 218 -12 c 0,21,22
 146 -12 146 -12 98 26.5 c 128,-1,23
 50 65 50 65 50 132 c 0,24,25
 50 231 50 231 142 280.5 c 128,-1,26
 234 330 234 330 408 332 c 1,27,-1
 408 373 l 2,28,29
 408 438 408 438 375 471 c 128,-1,30
 342 504 342 504 273 504 c 0,31,32
 221 504 221 504 185.5 483.5 c 128,-1,33
 150 463 150 463 111 424 c 0,34,35
 105 418 105 418 96 418 c 0,36,37
 86 418 86 418 74 427 c 128,-1,38
 62 436 62 436 51 451 c 1,39,40
 93 501 93 501 149.5 530.5 c 128,-1,41
 206 560 206 560 276 560 c 0,42,43
 341 560 341 560 387.5 535 c 128,-1,44
 434 510 434 510 457 463 c 1,45,46
 489 511 489 511 540 535.5 c 128,-1,47
 591 560 591 560 653 560 c 0,48,49
 763 560 763 560 820.5 500 c 128,-1,50
 878 440 878 440 878 321 c 0,51,0
 878 289 878 289 874 268 c 1,1,-1
808 322 m 1,52,53
 808 406 808 406 770.5 456 c 128,-1,54
 733 506 733 506 650 506 c 0,55,56
 575 506 575 506 531.5 458.5 c 128,-1,57
 488 411 488 411 480 322 c 1,58,-1
 808 322 l 1,52,53
338.5 80 m 128,-1,60
 393 116 393 116 418 175 c 1,61,62
 408 218 408 218 408 275 c 1,63,64
 257 269 257 269 188.5 234 c 128,-1,65
 120 199 120 199 120 133 c 0,66,67
 120 44 120 44 223 44 c 0,68,59
 284 44 284 44 338.5 80 c 128,-1,60
EndSplineSet
EndChar

StartChar: b
Encoding: 98 98 237
Width: 610
Flags: W
LayerCount: 2
Fore
SplineSet
509.5 488 m 128,-1,1
 570 416 570 416 570 284 c 0,2,3
 570 146 570 146 507 68 c 128,-1,4
 444 -10 444 -10 333 -10 c 0,5,6
 227 -10 227 -10 167 53 c 1,7,8
 158 0 158 0 132 0 c 0,9,10
 102 0 102 0 82 12 c 1,11,12
 101 54 101 54 101 132 c 2,13,-1
 101 791 l 1,14,-1
 171 791 l 1,15,-1
 171 509 l 1,16,17
 244 560 244 560 338 560 c 0,18,0
 449 560 449 560 509.5 488 c 128,-1,1
456.5 109.5 m 128,-1,20
 500 171 500 171 500 284 c 0,21,22
 500 390 500 390 458 447 c 128,-1,23
 416 504 416 504 338 504 c 0,24,25
 246 504 246 504 171 447 c 1,26,-1
 171 122 l 1,27,28
 230 48 230 48 333 48 c 0,29,19
 413 48 413 48 456.5 109.5 c 128,-1,20
EndSplineSet
EndChar

StartChar: c
Encoding: 99 99 238
Width: 551
GlyphClass: 2
Flags: W
AnchorPoint: "Anchor-10" 0 0 basechar 0
AnchorPoint: "Anchor-9" 287 550 basechar 0
AnchorPoint: "Anchor-8" 0 0 basechar 0
AnchorPoint: "Anchor-7" 287 0 basechar 0
LayerCount: 2
Fore
SplineSet
107.5 66 m 128,-1,1
 40 142 40 142 40 278 c 0,2,3
 40 364 40 364 70.5 427.5 c 128,-1,4
 101 491 101 491 158 525.5 c 128,-1,5
 215 560 215 560 292 560 c 0,6,7
 384 560 384 560 443.5 513.5 c 128,-1,8
 503 467 503 467 513 387 c 1,9,10
 504 383 504 383 488.5 379 c 128,-1,11
 473 375 473 375 463 375 c 256,12,13
 453 375 453 375 448.5 380.5 c 128,-1,14
 444 386 444 386 439 404 c 0,15,16
 428 451 428 451 389 477.5 c 128,-1,17
 350 504 350 504 292 504 c 0,18,19
 238 504 238 504 196.5 476 c 128,-1,20
 155 448 155 448 132.5 396.5 c 128,-1,21
 110 345 110 345 110 278 c 0,22,23
 110 172 110 172 160.5 109 c 128,-1,24
 211 46 211 46 296 46 c 0,25,26
 361 46 361 46 407 76.5 c 128,-1,27
 453 107 453 107 476 166 c 1,28,29
 490 166 490 166 499.5 154 c 128,-1,30
 509 142 509 142 509 126 c 0,31,32
 509 91 509 91 479.5 59.5 c 128,-1,33
 450 28 450 28 400.5 9 c 128,-1,34
 351 -10 351 -10 296 -10 c 0,35,0
 175 -10 175 -10 107.5 66 c 128,-1,1
EndSplineSet
EndChar

StartChar: ccedilla
Encoding: 231 231 241
Width: 551
GlyphClass: 2
Flags: W
AnchorPoint: "Anchor-10" 0 0 basechar 0
AnchorPoint: "Anchor-9" 0 0 basechar 0
AnchorPoint: "Anchor-8" 0 0 basechar 0
AnchorPoint: "Anchor-7" 287 -214 basechar 0
LayerCount: 2
Fore
SplineSet
499.5 154 m 128,-1,1
 509 142 509 142 509 126 c 0,2,3
 509 93 509 93 482 63 c 128,-1,4
 455 33 455 33 410 13 c 128,-1,5
 365 -7 365 -7 313 -10 c 1,6,-1
 276 -55 l 1,7,-1
 283 -55 l 2,8,9
 325 -55 325 -55 351 -76 c 128,-1,10
 377 -97 377 -97 377 -136 c 0,11,12
 377 -180 377 -180 342 -204.5 c 128,-1,13
 307 -229 307 -229 256 -229 c 0,14,15
 211 -229 211 -229 187 -218 c 128,-1,16
 163 -207 163 -207 163 -187 c 0,17,18
 163 -181 163 -181 166 -173 c 1,19,20
 207 -184 207 -184 250 -184 c 0,21,22
 280 -184 280 -184 297 -171.5 c 128,-1,23
 314 -159 314 -159 314 -138 c 0,24,25
 314 -123 314 -123 300.5 -111.5 c 128,-1,26
 287 -100 287 -100 263 -100 c 0,27,28
 244 -100 244 -100 223 -107 c 1,29,-1
 206 -75 l 1,30,-1
 257 -8 l 1,31,32
 154 4 154 4 97 79 c 128,-1,33
 40 154 40 154 40 278 c 0,34,35
 40 364 40 364 70.5 427.5 c 128,-1,36
 101 491 101 491 158 525.5 c 128,-1,37
 215 560 215 560 292 560 c 0,38,39
 384 560 384 560 443.5 513.5 c 128,-1,40
 503 467 503 467 513 387 c 1,41,42
 504 383 504 383 488.5 379 c 128,-1,43
 473 375 473 375 463 375 c 256,44,45
 453 375 453 375 448.5 380.5 c 128,-1,46
 444 386 444 386 439 404 c 0,47,48
 428 451 428 451 389 477.5 c 128,-1,49
 350 504 350 504 292 504 c 0,50,51
 238 504 238 504 196.5 476 c 128,-1,52
 155 448 155 448 132.5 396.5 c 128,-1,53
 110 345 110 345 110 278 c 0,54,55
 110 172 110 172 160.5 109 c 128,-1,56
 211 46 211 46 296 46 c 0,57,58
 361 46 361 46 407 76.5 c 128,-1,59
 453 107 453 107 476 166 c 1,60,0
 490 166 490 166 499.5 154 c 128,-1,1
EndSplineSet
EndChar

StartChar: d
Encoding: 100 100 244
Width: 598
GlyphClass: 2
Flags: W
AnchorPoint: "Anchor-10" 578 550 basechar 0
AnchorPoint: "Anchor-9" 299 750 basechar 0
AnchorPoint: "Anchor-8" 0 0 basechar 0
AnchorPoint: "Anchor-7" 299 0 basechar 0
LayerCount: 2
Fore
SplineSet
511 63 m 128,-1,1
 515 30 515 30 521 8 c 1,2,3
 496 -4 496 -4 475 -4 c 0,4,5
 448 -4 448 -4 441 64 c 1,6,7
 408 24 408 24 369 7 c 128,-1,8
 330 -10 330 -10 273 -10 c 0,9,10
 164 -10 164 -10 102 65.5 c 128,-1,11
 40 141 40 141 40 273 c 0,12,13
 40 409 40 409 106.5 484.5 c 128,-1,14
 173 560 173 560 292 560 c 0,15,16
 329 560 329 560 370.5 546.5 c 128,-1,17
 412 533 412 533 439 513 c 1,18,-1
 439 791 l 1,19,-1
 507 791 l 1,20,-1
 507 128 l 2,21,0
 507 96 507 96 511 63 c 128,-1,1
368 67 m 128,-1,23
 407 88 407 88 439 132 c 1,24,-1
 439 447 l 1,25,26
 415 472 415 472 373.5 489 c 128,-1,27
 332 506 332 506 292 506 c 0,28,29
 204 506 204 506 157 446 c 128,-1,30
 110 386 110 386 110 273 c 0,31,32
 110 163 110 163 153 104.5 c 128,-1,33
 196 46 196 46 278 46 c 0,34,22
 329 46 329 46 368 67 c 128,-1,23
EndSplineSet
EndChar

StartChar: eth
Encoding: 240 240 245
Width: 547
Flags: W
LayerCount: 2
Fore
SplineSet
470.5 500.5 m 128,-1,1
 507 401 507 401 507 275 c 0,2,3
 507 151 507 151 452 69.5 c 128,-1,4
 397 -12 397 -12 274 -12 c 0,5,6
 150 -12 150 -12 95 69.5 c 128,-1,7
 40 151 40 151 40 275 c 0,8,9
 40 349 40 349 62.5 413 c 128,-1,10
 85 477 85 477 137.5 518.5 c 128,-1,11
 190 560 190 560 274 560 c 0,12,13
 336 560 336 560 375 538 c 1,14,15
 343 598 343 598 292 649 c 1,16,-1
 203 595 l 1,17,-1
 169 646 l 1,18,-1
 245 692 l 1,19,20
 212 720 212 720 172 747 c 1,21,-1
 218 794 l 1,22,23
 266 761 266 761 305 728 c 1,24,-1
 416 795 l 1,25,-1
 449 743 l 1,26,-1
 352 684 l 1,27,0
 434 600 434 600 470.5 500.5 c 128,-1,1
398.5 101.5 m 128,-1,29
 437 161 437 161 437 275 c 0,30,31
 437 383 437 383 398 444.5 c 128,-1,32
 359 506 359 506 274 506 c 0,33,34
 188 506 188 506 149 445 c 128,-1,35
 110 384 110 384 110 275 c 0,36,37
 110 161 110 161 148.5 101.5 c 128,-1,38
 187 42 187 42 274 42 c 0,39,28
 360 42 360 42 398.5 101.5 c 128,-1,29
EndSplineSet
EndChar

StartChar: dcroat
Encoding: 273 273 247
Width: 602
GlyphClass: 2
Flags: W
AnchorPoint: "Anchor-10" 578 550 basechar 0
AnchorPoint: "Anchor-9" 299 750 basechar 0
AnchorPoint: "Anchor-8" 0 0 basechar 0
AnchorPoint: "Anchor-7" 299 0 basechar 0
LayerCount: 2
Fore
SplineSet
507 650 m 1,0,-1
 507 128 l 2,1,2
 507 96 507 96 511 63 c 128,-1,3
 515 30 515 30 521 8 c 1,4,5
 496 -4 496 -4 475 -4 c 0,6,7
 448 -4 448 -4 441 64 c 1,8,9
 408 24 408 24 369 7 c 128,-1,10
 330 -10 330 -10 273 -10 c 0,11,12
 164 -10 164 -10 102 65.5 c 128,-1,13
 40 141 40 141 40 273 c 0,14,15
 40 409 40 409 106.5 484.5 c 128,-1,16
 173 560 173 560 292 560 c 0,17,18
 329 560 329 560 370.5 546.5 c 128,-1,19
 412 533 412 533 439 513 c 1,20,-1
 439 650 l 1,21,-1
 291 650 l 1,22,-1
 291 700 l 1,23,-1
 439 700 l 1,24,-1
 439 791 l 1,25,-1
 507 791 l 1,26,-1
 507 700 l 1,27,-1
 602 700 l 1,28,-1
 602 650 l 1,29,-1
 507 650 l 1,0,-1
368 67 m 128,-1,31
 407 88 407 88 439 132 c 1,32,-1
 439 447 l 1,33,34
 415 472 415 472 373.5 489 c 128,-1,35
 332 506 332 506 292 506 c 0,36,37
 204 506 204 506 157 446 c 128,-1,38
 110 386 110 386 110 273 c 0,39,40
 110 163 110 163 153 104.5 c 128,-1,41
 196 46 196 46 278 46 c 0,42,30
 329 46 329 46 368 67 c 128,-1,31
EndSplineSet
EndChar

StartChar: e
Encoding: 101 101 250
Width: 560
GlyphClass: 2
Flags: W
AnchorPoint: "Anchor-10" 0 0 basechar 0
AnchorPoint: "Anchor-9" 286 550 basechar 0
AnchorPoint: "Anchor-8" 391 10 basechar 0
AnchorPoint: "Anchor-7" 290 0 basechar 0
LayerCount: 2
Fore
SplineSet
518 268 m 1,1,-1
 120 268 l 1,2,3
 122 164 122 164 166.5 106 c 128,-1,4
 211 48 211 48 290 48 c 0,5,6
 344 48 344 48 381.5 69 c 128,-1,7
 419 90 419 90 444 136 c 0,8,9
 451 149 451 149 465 149 c 0,10,11
 481 149 481 149 509 130 c 1,12,13
 487 65 487 65 428 27.5 c 128,-1,14
 369 -10 369 -10 290 -10 c 0,15,16
 217 -10 217 -10 162.5 24.5 c 128,-1,17
 108 59 108 59 79 123.5 c 128,-1,18
 50 188 50 188 50 276 c 0,19,20
 50 409 50 409 116 484.5 c 128,-1,21
 182 560 182 560 297 560 c 0,22,23
 402 560 402 560 461 495 c 128,-1,24
 520 430 520 430 520 314 c 0,25,0
 520 291 520 291 518 268 c 1,1,-1
450 322 m 1,26,27
 450 502 450 502 294 502 c 0,28,29
 218 502 218 502 174 456 c 128,-1,30
 130 410 130 410 122 322 c 1,31,-1
 450 322 l 1,26,27
EndSplineSet
EndChar

StartChar: eogonek
Encoding: 281 281 266
Width: 560
GlyphClass: 2
Flags: W
AnchorPoint: "Anchor-10" 0 0 basechar 0
AnchorPoint: "Anchor-9" 286 550 basechar 0
AnchorPoint: "Anchor-8" 391 10 basechar 0
AnchorPoint: "Anchor-7" 290 0 basechar 0
LayerCount: 2
Fore
SplineSet
518 268 m 1,1,-1
 120 268 l 1,2,3
 122 164 122 164 166.5 106 c 128,-1,4
 211 48 211 48 290 48 c 0,5,6
 344 48 344 48 381.5 69 c 128,-1,7
 419 90 419 90 444 136 c 0,8,9
 451 149 451 149 465 149 c 0,10,11
 481 149 481 149 509 130 c 1,12,13
 495 87 495 87 463 55.5 c 128,-1,14
 431 24 431 24 386 7 c 1,15,16
 354 -16 354 -16 336 -44.5 c 128,-1,17
 318 -73 318 -73 318 -104 c 0,18,19
 318 -129 318 -129 332 -142.5 c 128,-1,20
 346 -156 346 -156 371 -156 c 0,21,22
 401 -156 401 -156 424 -146 c 1,23,24
 430 -155 430 -155 430 -166 c 0,25,26
 430 -180 430 -180 412 -190 c 128,-1,27
 394 -200 394 -200 361 -200 c 0,28,29
 314 -200 314 -200 285.5 -175.5 c 128,-1,30
 257 -151 257 -151 257 -112 c 0,31,32
 257 -78 257 -78 272.5 -53 c 128,-1,33
 288 -28 288 -28 317 -9 c 1,34,35
 308 -10 308 -10 290 -10 c 0,36,37
 217 -10 217 -10 162.5 24.5 c 128,-1,38
 108 59 108 59 79 123.5 c 128,-1,39
 50 188 50 188 50 276 c 0,40,41
 50 409 50 409 116 484.5 c 128,-1,42
 182 560 182 560 297 560 c 0,43,44
 402 560 402 560 461 495 c 128,-1,45
 520 430 520 430 520 314 c 0,46,0
 520 291 520 291 518 268 c 1,1,-1
450 322 m 1,47,48
 450 502 450 502 294 502 c 0,49,50
 218 502 218 502 174 456 c 128,-1,51
 130 410 130 410 122 322 c 1,52,-1
 450 322 l 1,47,48
EndSplineSet
EndChar

StartChar: uni0259
Encoding: 601 601 268
Width: 560
GlyphClass: 2
Flags: W
AnchorPoint: "Anchor-10" 0 0 basechar 0
AnchorPoint: "Anchor-9" 270 550 basechar 0
AnchorPoint: "Anchor-8" 169 540 basechar 0
AnchorPoint: "Anchor-7" 274 0 basechar 0
LayerCount: 2
Fore
SplineSet
397.5 525.5 m 128,-1,1
 452 491 452 491 481 426.5 c 128,-1,2
 510 362 510 362 510 274 c 0,3,4
 510 141 510 141 444 65.5 c 128,-1,5
 378 -10 378 -10 263 -10 c 0,6,7
 158 -10 158 -10 99 55 c 128,-1,8
 40 120 40 120 40 236 c 0,9,10
 40 259 40 259 42 282 c 1,11,-1
 440 282 l 1,12,13
 438 386 438 386 393.5 444 c 128,-1,14
 349 502 349 502 270 502 c 0,15,16
 216 502 216 502 178.5 481 c 128,-1,17
 141 460 141 460 116 414 c 0,18,19
 109 401 109 401 95 401 c 0,20,21
 79 401 79 401 51 420 c 1,22,23
 73 485 73 485 132 522.5 c 128,-1,24
 191 560 191 560 270 560 c 0,25,0
 343 560 343 560 397.5 525.5 c 128,-1,1
386 94 m 128,-1,27
 430 140 430 140 438 228 c 1,28,-1
 110 228 l 1,29,30
 110 48 110 48 266 48 c 0,31,26
 342 48 342 48 386 94 c 128,-1,27
EndSplineSet
EndChar

StartChar: f
Encoding: 102 102 269
Width: 335
Flags: W
LayerCount: 2
Fore
SplineSet
326 771 m 128,-1,1
 350 760 350 760 350 739 c 0,2,3
 350 728 350 728 346.5 718.5 c 128,-1,4
 343 709 343 709 338 709 c 0,5,6
 308 724 308 724 269 724 c 0,7,8
 227 724 227 724 205 698 c 128,-1,9
 183 672 183 672 183 623 c 2,10,-1
 183 550 l 1,11,-1
 307 550 l 1,12,-1
 307 498 l 1,13,-1
 183 498 l 1,14,-1
 183 0 l 1,15,-1
 115 0 l 1,16,-1
 115 498 l 1,17,-1
 12 498 l 1,18,-1
 12 550 l 1,19,-1
 115 550 l 1,20,-1
 115 624 l 2,21,22
 115 696 115 696 153.5 739 c 128,-1,23
 192 782 192 782 256 782 c 0,24,0
 302 782 302 782 326 771 c 128,-1,1
EndSplineSet
EndChar

StartChar: g
Encoding: 103 103 270
Width: 585
GlyphClass: 2
Flags: W
AnchorPoint: "Anchor-10" 0 0 basechar 0
AnchorPoint: "Anchor-9" 293 550 basechar 0
AnchorPoint: "Anchor-8" 0 0 basechar 0
AnchorPoint: "Anchor-7" 293 -189 basechar 0
LayerCount: 2
Fore
SplineSet
556.5 569.5 m 128,-1,1
 565 560 565 560 565 539 c 0,2,3
 565 533 565 533 563 515 c 1,4,5
 489 515 489 515 460 495 c 1,6,7
 500 447 500 447 500 376 c 0,8,9
 500 184 500 184 279 184 c 0,10,11
 211 184 211 184 179.5 174.5 c 128,-1,12
 148 165 148 165 148 145 c 0,13,14
 148 100 148 100 309 100 c 0,15,16
 422 100 422 100 484 62 c 128,-1,17
 546 24 546 24 546 -46 c 0,18,19
 546 -121 546 -121 479.5 -161.5 c 128,-1,20
 413 -202 413 -202 289 -202 c 0,21,22
 172 -202 172 -202 111 -166 c 128,-1,23
 50 -130 50 -130 50 -60 c 0,24,25
 50 -20 50 -20 77.5 11 c 128,-1,26
 105 42 105 42 154 57 c 1,27,-1
 154 60 l 1,28,29
 124 68 124 68 106 89.5 c 128,-1,30
 88 111 88 111 88 141 c 0,31,32
 88 166 88 166 108 185.5 c 128,-1,33
 128 205 128 205 162 212 c 1,34,35
 119 236 119 236 95.5 275.5 c 128,-1,36
 72 315 72 315 72 364 c 0,37,38
 72 560 72 560 298 560 c 0,39,40
 369 560 369 560 419 529 c 1,41,42
 444 552 444 552 473.5 565.5 c 128,-1,43
 503 579 503 579 530 579 c 0,44,0
 548 579 548 579 556.5 569.5 c 128,-1,1
395.5 270.5 m 128,-1,46
 429 301 429 301 429 372 c 0,47,48
 429 442 429 442 395 474 c 128,-1,49
 361 506 361 506 285 506 c 0,50,51
 211 506 211 506 176.5 473.5 c 128,-1,52
 142 441 142 441 142 372 c 0,53,54
 142 240 142 240 285 240 c 0,55,45
 362 240 362 240 395.5 270.5 c 128,-1,46
164.5 15 m 128,-1,57
 121 -8 121 -8 121 -52 c 0,58,59
 121 -98 121 -98 164 -122 c 128,-1,60
 207 -146 207 -146 289 -146 c 0,61,62
 381 -146 381 -146 428 -122.5 c 128,-1,63
 475 -99 475 -99 475 -52 c 0,64,65
 475 -4 475 -4 432.5 17 c 128,-1,66
 390 38 390 38 293 38 c 0,67,56
 208 38 208 38 164.5 15 c 128,-1,57
EndSplineSet
EndChar

StartChar: h
Encoding: 104 104 277
Width: 630
GlyphClass: 2
Flags: W
AnchorPoint: "Anchor-10" 0 0 basechar 0
AnchorPoint: "Anchor-9" 125 710 basechar 0
AnchorPoint: "Anchor-8" 0 0 basechar 0
AnchorPoint: "Anchor-7" 315 0 basechar 0
LayerCount: 2
Fore
SplineSet
489 510.5 m 128,-1,1
 539 461 539 461 539 376 c 2,2,-1
 539 0 l 1,3,-1
 471 0 l 1,4,-1
 471 369 l 2,5,6
 471 434 471 434 439 469 c 128,-1,7
 407 504 407 504 347 504 c 0,8,9
 301 504 301 504 250 483.5 c 128,-1,10
 199 463 199 463 159 429 c 1,11,-1
 159 0 l 1,12,-1
 91 0 l 1,13,-1
 91 791 l 1,14,-1
 159 791 l 1,15,-1
 159 494 l 1,16,17
 203 526 203 526 253 543 c 128,-1,18
 303 560 303 560 353 560 c 0,19,0
 439 560 439 560 489 510.5 c 128,-1,1
EndSplineSet
EndChar

StartChar: hbar
Encoding: 295 295 278
Width: 640
GlyphClass: 2
Flags: W
AnchorPoint: "Anchor-10" 0 0 basechar 0
AnchorPoint: "Anchor-9" 135 710 basechar 0
AnchorPoint: "Anchor-8" 0 0 basechar 0
AnchorPoint: "Anchor-7" 325 0 basechar 0
LayerCount: 2
Fore
SplineSet
499 510.5 m 128,-1,1
 549 461 549 461 549 376 c 2,2,-1
 549 0 l 1,3,-1
 481 0 l 1,4,-1
 481 369 l 2,5,6
 481 434 481 434 449 469 c 128,-1,7
 417 504 417 504 357 504 c 0,8,9
 311 504 311 504 260 483.5 c 128,-1,10
 209 463 209 463 169 429 c 1,11,-1
 169 0 l 1,12,-1
 101 0 l 1,13,-1
 101 649 l 1,14,-1
 10 649 l 1,15,-1
 10 704 l 1,16,-1
 101 704 l 1,17,-1
 101 791 l 1,18,-1
 169 791 l 1,19,-1
 169 704 l 1,20,-1
 309 704 l 1,21,-1
 309 649 l 1,22,-1
 169 649 l 1,23,-1
 169 494 l 1,24,25
 213 526 213 526 263 543 c 128,-1,26
 313 560 313 560 363 560 c 0,27,0
 449 560 449 560 499 510.5 c 128,-1,1
EndSplineSet
EndChar

StartChar: dotlessi
Encoding: 305 305 283
Width: 288
GlyphClass: 2
Flags: W
AnchorPoint: "Anchor-10" 0 0 basechar 0
AnchorPoint: "Anchor-9" 144 550 basechar 0
AnchorPoint: "Anchor-8" 178 0 basechar 0
AnchorPoint: "Anchor-7" 144 0 basechar 0
LayerCount: 2
Fore
SplineSet
110 550 m 1,0,-1
 178 550 l 1,1,-1
 178 0 l 1,2,-1
 110 0 l 1,3,-1
 110 550 l 1,0,-1
EndSplineSet
EndChar

StartChar: uni0237
Encoding: 567 567 297
Width: 270
GlyphClass: 2
Flags: W
AnchorPoint: "Anchor-10" 0 0 basechar 0
AnchorPoint: "Anchor-9" 134 550 basechar 0
AnchorPoint: "Anchor-8" 0 0 basechar 0
AnchorPoint: "Anchor-7" 34 -192 basechar 0
LayerCount: 2
Fore
SplineSet
-10.5 -186 m 128,-1,1
 -35 -180 -35 -180 -46 -169 c 0,2,3
 -55 -160 -55 -160 -55 -147 c 0,4,5
 -55 -135 -55 -135 -50 -126 c 128,-1,6
 -45 -117 -45 -117 -39 -117 c 0,7,8
 -7 -134 -7 -134 37 -134 c 0,9,10
 67 -134 67 -134 83.5 -116 c 128,-1,11
 100 -98 100 -98 100 -62 c 2,12,-1
 100 550 l 1,13,-1
 168 550 l 1,14,-1
 168 -53 l 2,15,16
 168 -121 168 -121 133 -156.5 c 128,-1,17
 98 -192 98 -192 34 -192 c 0,18,0
 14 -192 14 -192 -10.5 -186 c 128,-1,1
EndSplineSet
EndChar

StartChar: k
Encoding: 107 107 299
Width: 547
Flags: W
LayerCount: 2
Fore
SplineSet
529 0 m 1,0,1
 512 0 512 0 490 -2 c 0,2,3
 472 -4 472 -4 468 -4 c 0,4,5
 449 -4 449 -4 439 12 c 2,6,-1
 310 220 l 2,7,8
 281 267 281 267 205 264 c 2,9,-1
 159 262 l 1,10,-1
 159 0 l 1,11,-1
 91 0 l 1,12,-1
 91 791 l 1,13,-1
 159 791 l 1,14,-1
 159 324 l 1,15,-1
 198 325 l 2,16,17
 219 326 219 326 234 333.5 c 128,-1,18
 249 341 249 341 261 357 c 2,19,-1
 411 550 l 1,20,-1
 495 550 l 1,21,-1
 317 332 l 2,22,23
 315 330 315 330 308 321.5 c 128,-1,24
 301 313 301 313 290 307 c 1,25,26
 339 294 339 294 361 259 c 2,27,-1
 529 0 l 1,0,1
EndSplineSet
EndChar

StartChar: kgreenlandic
Encoding: 312 312 301
Width: 591
Flags: W
LayerCount: 2
Fore
SplineSet
521 15 m 1,0,1
 488 0 488 0 467 0 c 0,2,3
 448 0 448 0 437 15 c 2,4,-1
 309 200 l 2,5,6
 293 223 293 223 268 234 c 128,-1,7
 243 245 243 245 205 245 c 2,8,-1
 159 242 l 1,9,-1
 159 0 l 1,10,-1
 91 0 l 1,11,-1
 91 550 l 1,12,-1
 159 550 l 1,13,-1
 159 304 l 1,14,-1
 198 305 l 2,15,16
 220 306 220 306 235 313.5 c 128,-1,17
 250 321 250 321 261 337 c 2,18,-1
 411 550 l 1,19,-1
 495 550 l 1,20,-1
 310 304 l 2,21,22
 309 303 309 303 296 287 c 1,23,24
 337 273 337 273 361 239 c 2,25,-1
 521 15 l 1,0,1
EndSplineSet
EndChar

StartChar: l
Encoding: 108 108 302
Width: 268
GlyphClass: 2
Flags: W
AnchorPoint: "Anchor-10" 248 550 basechar 0
AnchorPoint: "Anchor-9" 134 750 basechar 0
AnchorPoint: "Anchor-8" 0 0 basechar 0
AnchorPoint: "Anchor-7" 134 0 basechar 0
LayerCount: 2
Fore
SplineSet
100 791 m 1,0,-1
 168 791 l 1,1,-1
 168 0 l 1,2,-1
 100 0 l 1,3,-1
 100 791 l 1,0,-1
EndSplineSet
EndChar

StartChar: lslash
Encoding: 322 322 310
Width: 268
GlyphClass: 2
Flags: W
AnchorPoint: "Anchor-10" 248 550 basechar 0
AnchorPoint: "Anchor-9" 134 750 basechar 0
AnchorPoint: "Anchor-8" 0 0 basechar 0
AnchorPoint: "Anchor-7" 134 0 basechar 0
LayerCount: 2
Fore
SplineSet
268 445 m 1,0,-1
 168 398 l 1,1,-1
 168 0 l 1,2,-1
 100 0 l 1,3,-1
 100 367 l 1,4,-1
 0 320 l 1,5,-1
 0 390 l 1,6,-1
 100 436 l 1,7,-1
 100 791 l 1,8,-1
 168 791 l 1,9,-1
 168 468 l 1,10,-1
 268 514 l 1,11,-1
 268 445 l 1,0,-1
EndSplineSet
EndChar

StartChar: m
Encoding: 109 109 311
Width: 912
GlyphClass: 2
Flags: W
AnchorPoint: "Anchor-10" 0 0 basechar 0
AnchorPoint: "Anchor-9" 456 550 basechar 0
AnchorPoint: "Anchor-8" 0 0 basechar 0
AnchorPoint: "Anchor-7" 456 0 basechar 0
LayerCount: 2
Fore
SplineSet
776.5 514 m 128,-1,1
 821 468 821 468 821 395 c 2,2,-1
 821 0 l 1,3,-1
 752 0 l 1,4,-1
 752 392 l 2,5,6
 752 450 752 450 726 478 c 128,-1,7
 700 506 700 506 647 506 c 0,8,9
 562 506 562 506 489 428 c 1,10,11
 491 412 491 412 491 404 c 2,12,-1
 491 0 l 1,13,-1
 423 0 l 1,14,-1
 423 402 l 2,15,16
 423 449 423 449 394.5 477.5 c 128,-1,17
 366 506 366 506 319 506 c 0,18,19
 276 506 276 506 237.5 487 c 128,-1,20
 199 468 199 468 160 426 c 1,21,-1
 160 0 l 1,22,-1
 92 0 l 1,23,-1
 92 363 l 2,24,25
 92 511 92 511 80 539 c 1,26,27
 112 554 112 554 131 554 c 0,28,29
 160 554 160 554 160 496 c 2,30,-1
 160 492 l 1,31,32
 198 528 198 528 238.5 544 c 128,-1,33
 279 560 279 560 331 560 c 0,34,35
 378 560 378 560 415 538.5 c 128,-1,36
 452 517 452 517 472 480 c 1,37,38
 515 522 515 522 559.5 541 c 128,-1,39
 604 560 604 560 661 560 c 0,40,0
 732 560 732 560 776.5 514 c 128,-1,1
EndSplineSet
EndChar

StartChar: n
Encoding: 110 110 313
Width: 610
GlyphClass: 2
Flags: W
AnchorPoint: "Anchor-10" 0 0 basechar 0
AnchorPoint: "Anchor-9" 305 550 basechar 0
AnchorPoint: "Anchor-8" 0 0 basechar 0
AnchorPoint: "Anchor-7" 305 0 basechar 0
LayerCount: 2
Fore
SplineSet
521.5 45.5 m 128,-1,1
 523 24 523 24 529 7 c 1,2,3
 505 -5 505 -5 477 -5 c 0,4,5
 462 -5 462 -5 457 16.5 c 128,-1,6
 452 38 452 38 452 102 c 2,7,-1
 452 373 l 2,8,9
 452 443 452 443 426 474.5 c 128,-1,10
 400 506 400 506 342 506 c 0,11,12
 252 506 252 506 158 417 c 1,13,-1
 158 0 l 1,14,-1
 90 0 l 1,15,-1
 90 363 l 2,16,17
 90 511 90 511 78 539 c 1,18,19
 110 554 110 554 129 554 c 0,20,21
 158 554 158 554 158 496 c 2,22,-1
 158 487 l 1,23,24
 204 525 204 525 250.5 542.5 c 128,-1,25
 297 560 297 560 349 560 c 0,26,27
 435 560 435 560 477.5 513.5 c 128,-1,28
 520 467 520 467 520 372 c 2,29,-1
 520 128 l 2,30,0
 520 67 520 67 521.5 45.5 c 128,-1,1
EndSplineSet
EndChar

StartChar: eng
Encoding: 331 331 320
Width: 609
Flags: W
LayerCount: 2
Fore
SplineSet
477.5 513.5 m 128,-1,1
 520 467 520 467 520 372 c 2,2,-1
 520 -33 l 2,3,4
 520 -109 520 -109 479 -150.5 c 128,-1,5
 438 -192 438 -192 366 -192 c 0,6,7
 335 -192 335 -192 306 -180.5 c 128,-1,8
 277 -169 277 -169 277 -147 c 0,9,10
 277 -136 277 -136 282.5 -127 c 128,-1,11
 288 -118 288 -118 293 -118 c 0,12,13
 330 -134 330 -134 374 -134 c 0,14,15
 411 -134 411 -134 431.5 -110 c 128,-1,16
 452 -86 452 -86 452 -42 c 2,17,-1
 452 373 l 2,18,19
 452 443 452 443 426 474.5 c 128,-1,20
 400 506 400 506 342 506 c 0,21,22
 249 506 249 506 158 417 c 1,23,-1
 158 0 l 1,24,-1
 90 0 l 1,25,-1
 90 363 l 2,26,27
 90 503 90 503 78 534 c 1,28,29
 110 549 110 549 129 549 c 0,30,31
 158 549 158 549 158 491 c 2,32,-1
 158 487 l 1,33,34
 199 522 199 522 245.5 541 c 128,-1,35
 292 560 292 560 349 560 c 0,36,0
 435 560 435 560 477.5 513.5 c 128,-1,1
EndSplineSet
EndChar

StartChar: o
Encoding: 111 111 323
Width: 548
GlyphClass: 2
Flags: W
AnchorPoint: "Anchor-10" 413 474 basechar 0
AnchorPoint: "Anchor-9" 274 550 basechar 0
AnchorPoint: "Anchor-8" 359 10 basechar 0
AnchorPoint: "Anchor-7" 274 0 basechar 0
LayerCount: 2
Fore
SplineSet
99 62 m 128,-1,1
 40 134 40 134 40 276 c 0,2,3
 40 560 40 560 274 560 c 256,4,5
 508 560 508 560 508 276 c 0,6,7
 508 134 508 134 449 62 c 128,-1,8
 390 -10 390 -10 274 -10 c 256,9,0
 158 -10 158 -10 99 62 c 128,-1,1
398.5 101.5 m 128,-1,11
 438 157 438 157 438 276 c 0,12,13
 438 394 438 394 398.5 449 c 128,-1,14
 359 504 359 504 274 504 c 256,15,16
 189 504 189 504 149.5 449 c 128,-1,17
 110 394 110 394 110 276 c 0,18,19
 110 157 110 157 149.5 101.5 c 128,-1,20
 189 46 189 46 274 46 c 256,21,10
 359 46 359 46 398.5 101.5 c 128,-1,11
EndSplineSet
Substitution2: "Single Substitution lookup 20 subtable" ordmasculine
Substitution2: "'aalt' Access All Alternates lookup 0 subtable" ordmasculine
EndChar

StartChar: ohorn
Encoding: 417 417 337
Width: 548
GlyphClass: 2
Flags: W
AnchorPoint: "Anchor-10" 413 474 basechar 0
AnchorPoint: "Anchor-9" 274 550 basechar 0
AnchorPoint: "Anchor-8" 359 10 basechar 0
AnchorPoint: "Anchor-7" 274 0 basechar 0
LayerCount: 2
Fore
SplineSet
525.5 505.5 m 128,-1,1
 505 476 505 476 468 462 c 1,2,3
 508 394 508 394 508 276 c 0,4,5
 508 134 508 134 449 62 c 128,-1,6
 390 -10 390 -10 274 -10 c 256,7,8
 158 -10 158 -10 99 62 c 128,-1,9
 40 134 40 134 40 276 c 0,10,11
 40 560 40 560 274 560 c 0,12,13
 377 560 377 560 435 504 c 1,14,15
 455 511 455 511 467 528 c 128,-1,16
 479 545 479 545 479 568 c 0,17,18
 479 598 479 598 450 620 c 1,19,20
 452 633 452 633 463 643 c 128,-1,21
 474 653 474 653 488 653 c 0,22,23
 514 653 514 653 530 633.5 c 128,-1,24
 546 614 546 614 546 578 c 0,25,0
 546 535 546 535 525.5 505.5 c 128,-1,1
398.5 101.5 m 128,-1,27
 438 157 438 157 438 276 c 0,28,29
 438 394 438 394 398.5 449 c 128,-1,30
 359 504 359 504 274 504 c 256,31,32
 189 504 189 504 149.5 449 c 128,-1,33
 110 394 110 394 110 276 c 0,34,35
 110 157 110 157 149.5 101.5 c 128,-1,36
 189 46 189 46 274 46 c 256,37,26
 359 46 359 46 398.5 101.5 c 128,-1,27
EndSplineSet
EndChar

StartChar: oslash
Encoding: 248 248 345
Width: 548
GlyphClass: 2
Flags: W
AnchorPoint: "Anchor-10" 413 474 basechar 0
AnchorPoint: "Anchor-9" 274 550 basechar 0
AnchorPoint: "Anchor-8" 359 10 basechar 0
AnchorPoint: "Anchor-7" 274 0 basechar 0
LayerCount: 2
Fore
SplineSet
460 475 m 1,0,1
 508 405 508 405 508 276 c 0,2,3
 508 134 508 134 449 62 c 128,-1,4
 390 -10 390 -10 274 -10 c 0,5,6
 181 -10 181 -10 123 37 c 1,7,-1
 94 0 l 1,8,-1
 30 0 l 1,9,-1
 88 76 l 1,10,11
 40 147 40 147 40 276 c 0,12,13
 40 560 40 560 274 560 c 0,14,15
 368 560 368 560 426 513 c 1,16,-1
 454 550 l 1,17,-1
 518 550 l 1,18,-1
 460 475 l 1,0,1
132 133 m 1,20,-1
 387 463 l 1,21,22
 347 504 347 504 274 504 c 0,23,24
 189 504 189 504 149.5 449 c 128,-1,25
 110 394 110 394 110 276 c 0,26,19
 110 186 110 186 132 133 c 1,20,-1
416 417 m 1,28,-1
 161 87 l 1,29,30
 201 46 201 46 274 46 c 0,31,32
 359 46 359 46 398.5 101.5 c 128,-1,33
 438 157 438 157 438 276 c 0,34,27
 438 366 438 366 416 417 c 1,28,-1
EndSplineSet
EndChar

StartChar: oe
Encoding: 339 339 348
Width: 950
GlyphClass: 2
Flags: W
AnchorPoint: "Anchor-10" 413 474 basechar 0
AnchorPoint: "Anchor-9" 676 550 basechar 0
AnchorPoint: "Anchor-8" 781 10 basechar 0
AnchorPoint: "Anchor-7" 680 0 basechar 0
LayerCount: 2
Fore
SplineSet
908 268 m 1,1,-1
 510 268 l 1,2,3
 512 164 512 164 556.5 106 c 128,-1,4
 601 48 601 48 680 48 c 0,5,6
 734 48 734 48 771.5 69 c 128,-1,7
 809 90 809 90 834 136 c 0,8,9
 841 149 841 149 855 149 c 0,10,11
 871 149 871 149 899 130 c 1,12,13
 877 65 877 65 818 27.5 c 128,-1,14
 759 -10 759 -10 680 -10 c 0,15,16
 611 -10 611 -10 559 20 c 128,-1,17
 507 50 507 50 477 107 c 1,18,19
 423 -10 423 -10 274 -10 c 0,20,21
 158 -10 158 -10 99 62 c 128,-1,22
 40 134 40 134 40 276 c 0,23,24
 40 560 40 560 274 560 c 0,25,26
 424 560 424 560 478 444 c 1,27,28
 508 500 508 500 561.5 530 c 128,-1,29
 615 560 615 560 687 560 c 0,30,31
 792 560 792 560 851 495 c 128,-1,32
 910 430 910 430 910 314 c 0,33,0
 910 291 910 291 908 268 c 1,1,-1
398.5 101.5 m 128,-1,35
 438 157 438 157 438 276 c 0,36,37
 438 394 438 394 398.5 449 c 128,-1,38
 359 504 359 504 274 504 c 256,39,40
 189 504 189 504 149.5 449 c 128,-1,41
 110 394 110 394 110 276 c 0,42,43
 110 157 110 157 149.5 101.5 c 128,-1,44
 189 46 189 46 274 46 c 256,45,34
 359 46 359 46 398.5 101.5 c 128,-1,35
840 322 m 1,46,47
 840 502 840 502 684 502 c 0,48,49
 608 502 608 502 564 456 c 128,-1,50
 520 410 520 410 512 322 c 1,51,-1
 840 322 l 1,46,47
EndSplineSet
EndChar

StartChar: p
Encoding: 112 112 349
Width: 598
Flags: W
LayerCount: 2
Fore
SplineSet
499 486.5 m 128,-1,1
 558 413 558 413 558 276 c 0,2,3
 558 189 558 189 527.5 124.5 c 128,-1,4
 497 60 497 60 439.5 25 c 128,-1,5
 382 -10 382 -10 305 -10 c 0,6,7
 267 -10 267 -10 228.5 -2.5 c 128,-1,8
 190 5 190 5 160 17 c 1,9,-1
 160 -220 l 1,10,-1
 92 -220 l 1,11,-1
 92 363 l 2,12,13
 92 511 92 511 80 539 c 1,14,15
 112 554 112 554 131 554 c 0,16,17
 160 554 160 554 160 496 c 2,18,-1
 160 492 l 1,19,20
 193 525 193 525 236.5 542.5 c 128,-1,21
 280 560 280 560 328 560 c 0,22,0
 440 560 440 560 499 486.5 c 128,-1,1
438.5 106 m 128,-1,24
 486 166 486 166 486 276 c 0,25,26
 486 504 486 504 328 504 c 0,27,28
 282 504 282 504 238.5 483 c 128,-1,29
 195 462 195 462 160 423 c 1,30,-1
 160 76 l 1,31,32
 222 46 222 46 305 46 c 0,33,23
 391 46 391 46 438.5 106 c 128,-1,24
EndSplineSet
EndChar

StartChar: thorn
Encoding: 254 254 350
Width: 609
Flags: W
LayerCount: 2
Fore
SplineSet
494 494.5 m 128,-1,1
 558 429 558 429 558 285 c 0,2,3
 558 192 558 192 526 125 c 128,-1,4
 494 58 494 58 436.5 23 c 128,-1,5
 379 -12 379 -12 305 -12 c 0,6,7
 227 -12 227 -12 162 14 c 1,8,-1
 162 -220 l 1,9,-1
 92 -220 l 1,10,-1
 92 791 l 1,11,-1
 162 791 l 1,12,-1
 162 499 l 1,13,14
 226 560 226 560 323 560 c 0,15,0
 430 560 430 560 494 494.5 c 128,-1,1
437.5 106.5 m 128,-1,17
 486 169 486 169 486 285 c 0,18,19
 486 400 486 400 445 452 c 128,-1,20
 404 504 404 504 323 504 c 0,21,22
 231 504 231 504 162 430 c 1,23,-1
 162 74 l 1,24,25
 222 44 222 44 305 44 c 0,26,16
 389 44 389 44 437.5 106.5 c 128,-1,17
EndSplineSet
EndChar

StartChar: q
Encoding: 113 113 351
Width: 608
Flags: W
LayerCount: 2
Fore
SplineSet
503.5 551 m 128,-1,1
 513 548 513 548 526 539 c 1,2,3
 519 520 519 520 513 465.5 c 128,-1,4
 507 411 507 411 507 362 c 2,5,-1
 507 -220 l 1,6,-1
 439 -220 l 1,7,-1
 439 32 l 1,8,9
 395 7 395 7 361.5 -1.5 c 128,-1,10
 328 -10 328 -10 275 -10 c 0,11,12
 165 -10 165 -10 102.5 66.5 c 128,-1,13
 40 143 40 143 40 278 c 0,14,15
 40 409 40 409 103 484.5 c 128,-1,16
 166 560 166 560 276 560 c 0,17,18
 330 560 330 560 368.5 546.5 c 128,-1,19
 407 533 407 533 444 500 c 1,20,21
 453 554 453 554 480 554 c 0,22,0
 494 554 494 554 503.5 551 c 128,-1,1
372 53.5 m 128,-1,24
 407 65 407 65 439 90 c 1,25,-1
 439 430 l 1,26,27
 377 507 377 507 281 507 c 0,28,29
 199 507 199 507 155 448 c 128,-1,30
 111 389 111 389 111 278 c 0,31,32
 111 159 111 159 156 100.5 c 128,-1,33
 201 42 201 42 292 42 c 0,34,23
 337 42 337 42 372 53.5 c 128,-1,24
EndSplineSet
EndChar

StartChar: r
Encoding: 114 114 352
Width: 400
GlyphClass: 2
Flags: W
AnchorPoint: "Anchor-10" 0 0 basechar 0
AnchorPoint: "Anchor-9" 200 550 basechar 0
AnchorPoint: "Anchor-8" 0 0 basechar 0
AnchorPoint: "Anchor-7" 119 0 basechar 0
LayerCount: 2
Fore
SplineSet
359.5 545.5 m 128,-1,1
 378 534 378 534 378 511 c 0,2,3
 378 495 378 495 367 482 c 1,4,5
 343 495 343 495 301 495 c 0,6,7
 234 495 234 495 193.5 442 c 128,-1,8
 153 389 153 389 153 303 c 2,9,-1
 153 0 l 1,10,-1
 85 0 l 1,11,-1
 85 550 l 1,12,-1
 153 550 l 1,13,-1
 153 451 l 1,14,15
 176 497 176 497 218 527 c 128,-1,16
 260 557 260 557 306 557 c 0,17,0
 341 557 341 557 359.5 545.5 c 128,-1,1
EndSplineSet
EndChar

StartChar: s
Encoding: 115 115 359
Width: 485
GlyphClass: 2
Flags: W
AnchorPoint: "Anchor-10" 0 0 basechar 0
AnchorPoint: "Anchor-9" 243 550 basechar 0
AnchorPoint: "Anchor-8" 0 0 basechar 0
AnchorPoint: "Anchor-7" 243 0 basechar 0
LayerCount: 2
Fore
SplineSet
152 5 m 128,-1,1
 104 20 104 20 72 45 c 128,-1,2
 40 70 40 70 40 98 c 0,3,4
 40 111 40 111 48.5 121.5 c 128,-1,5
 57 132 57 132 70 136 c 1,6,7
 106 89 106 89 148 67.5 c 128,-1,8
 190 46 190 46 249 46 c 0,9,10
 312 46 312 46 344.5 75 c 128,-1,11
 377 104 377 104 377 152 c 0,12,13
 377 184 377 184 357.5 204 c 128,-1,14
 338 224 338 224 309.5 234 c 128,-1,15
 281 244 281 244 231 257 c 0,16,17
 173 272 173 272 137.5 286 c 128,-1,18
 102 300 102 300 77.5 328.5 c 128,-1,19
 53 357 53 357 53 405 c 0,20,21
 53 456 53 456 80 491 c 128,-1,22
 107 526 107 526 149 543 c 128,-1,23
 191 560 191 560 235 560 c 0,24,25
 298 560 298 560 349.5 535 c 128,-1,26
 401 510 401 510 430 462 c 1,27,28
 406 437 406 437 389 437 c 0,29,30
 376 437 376 437 364 451 c 0,31,32
 340 479 340 479 308.5 492.5 c 128,-1,33
 277 506 277 506 232 506 c 0,34,35
 181 506 181 506 151 482 c 128,-1,36
 121 458 121 458 121 408 c 0,37,38
 121 379 121 379 139 361 c 128,-1,39
 157 343 157 343 184 333.5 c 128,-1,40
 211 324 211 324 258 312 c 0,41,42
 318 298 318 298 355.5 283 c 128,-1,43
 393 268 393 268 419 236.5 c 128,-1,44
 445 205 445 205 445 152 c 0,45,46
 445 78 445 78 390.5 34 c 128,-1,47
 336 -10 336 -10 245 -10 c 0,48,0
 200 -10 200 -10 152 5 c 128,-1,1
EndSplineSet
EndChar

StartChar: scedilla
Encoding: 351 351 362
Width: 485
GlyphClass: 2
Flags: W
AnchorPoint: "Anchor-10" 0 0 basechar 0
AnchorPoint: "Anchor-9" 0 0 basechar 0
AnchorPoint: "Anchor-8" 0 0 basechar 0
AnchorPoint: "Anchor-7" 243 -214 basechar 0
LayerCount: 2
Fore
SplineSet
397.5 40.5 m 128,-1,1
 350 -3 350 -3 270 -9 c 1,2,-1
 232 -55 l 1,3,-1
 239 -55 l 2,4,5
 281 -55 281 -55 307 -76 c 128,-1,6
 333 -97 333 -97 333 -136 c 0,7,8
 333 -180 333 -180 298 -204.5 c 128,-1,9
 263 -229 263 -229 212 -229 c 0,10,11
 167 -229 167 -229 143 -218 c 128,-1,12
 119 -207 119 -207 119 -187 c 0,13,14
 119 -181 119 -181 122 -173 c 1,15,16
 163 -184 163 -184 206 -184 c 0,17,18
 236 -184 236 -184 253 -171.5 c 128,-1,19
 270 -159 270 -159 270 -138 c 0,20,21
 270 -123 270 -123 256.5 -111.5 c 128,-1,22
 243 -100 243 -100 219 -100 c 0,23,24
 200 -100 200 -100 179 -107 c 1,25,-1
 162 -75 l 1,26,-1
 213 -8 l 1,27,28
 147 0 147 0 93.5 30.5 c 128,-1,29
 40 61 40 61 40 98 c 0,30,31
 40 111 40 111 48.5 121.5 c 128,-1,32
 57 132 57 132 70 136 c 1,33,34
 106 89 106 89 148 67.5 c 128,-1,35
 190 46 190 46 249 46 c 0,36,37
 312 46 312 46 344.5 75 c 128,-1,38
 377 104 377 104 377 152 c 0,39,40
 377 184 377 184 357.5 204 c 128,-1,41
 338 224 338 224 309.5 234 c 128,-1,42
 281 244 281 244 231 257 c 0,43,44
 173 272 173 272 137.5 286 c 128,-1,45
 102 300 102 300 77.5 328.5 c 128,-1,46
 53 357 53 357 53 405 c 0,47,48
 53 456 53 456 80 491 c 128,-1,49
 107 526 107 526 149 543 c 128,-1,50
 191 560 191 560 235 560 c 0,51,52
 298 560 298 560 349.5 535 c 128,-1,53
 401 510 401 510 430 462 c 1,54,55
 406 437 406 437 389 437 c 0,56,57
 376 437 376 437 364 451 c 0,58,59
 340 479 340 479 308.5 492.5 c 128,-1,60
 277 506 277 506 232 506 c 0,61,62
 181 506 181 506 151 482 c 128,-1,63
 121 458 121 458 121 408 c 0,64,65
 121 379 121 379 139 361 c 128,-1,66
 157 343 157 343 184 333.5 c 128,-1,67
 211 324 211 324 258 312 c 0,68,69
 318 298 318 298 355.5 283 c 128,-1,70
 393 268 393 268 419 236.5 c 128,-1,71
 445 205 445 205 445 152 c 0,72,0
 445 84 445 84 397.5 40.5 c 128,-1,1
EndSplineSet
Substitution2: "'locl' Localized Forms in Latin lookup 7 subtable" uni0219
Substitution2: "'locl' Localized Forms in Latin lookup 6 subtable" uni0219
Substitution2: "'aalt' Access All Alternates lookup 0 subtable" uni0219
EndChar

StartChar: germandbls
Encoding: 223 223 367
Width: 617
Flags: W
LayerCount: 2
Fore
SplineSet
518 306 m 128,-1,1
 553 261 553 261 553 199 c 0,2,3
 553 96 553 96 494.5 41 c 128,-1,4
 436 -14 436 -14 342 -14 c 0,5,6
 284 -14 284 -14 239 3 c 128,-1,7
 194 20 194 20 194 53 c 0,8,9
 194 64 194 64 199 72 c 128,-1,10
 204 80 204 80 214 83 c 1,11,12
 245 60 245 60 274.5 51 c 128,-1,13
 304 42 304 42 346 42 c 0,14,15
 413 42 413 42 450.5 78.5 c 128,-1,16
 488 115 488 115 488 191 c 0,17,18
 488 254 488 254 449.5 293 c 128,-1,19
 411 332 411 332 340 332 c 0,20,21
 332 332 332 332 312 330 c 2,22,-1
 288 329 l 2,23,24
 274 329 274 329 264.5 345.5 c 128,-1,25
 255 362 255 362 255 377 c 0,26,27
 255 386 255 386 262 386 c 2,28,-1
 331 386 l 2,29,30
 365 386 365 386 394.5 404 c 128,-1,31
 424 422 424 422 442 455.5 c 128,-1,32
 460 489 460 489 460 533 c 0,33,34
 460 599 460 599 420.5 638 c 128,-1,35
 381 677 381 677 311 677 c 0,36,37
 237 677 237 677 194.5 637.5 c 128,-1,38
 152 598 152 598 152 522 c 2,39,-1
 152 0 l 1,40,-1
 84 0 l 1,41,-1
 84 522 l 2,42,43
 84 588 84 588 114.5 635 c 128,-1,44
 145 682 145 682 197 706.5 c 128,-1,45
 249 731 249 731 313 731 c 0,46,47
 376 731 376 731 425 703.5 c 128,-1,48
 474 676 474 676 500.5 630 c 128,-1,49
 527 584 527 584 527 530 c 0,50,51
 527 467 527 467 499.5 426 c 128,-1,52
 472 385 472 385 425 365 c 1,53,0
 483 351 483 351 518 306 c 128,-1,1
EndSplineSet
EndChar

StartChar: t
Encoding: 116 116 368
Width: 374
GlyphClass: 2
Flags: W
AnchorPoint: "Anchor-10" 328 630 basechar 0
AnchorPoint: "Anchor-9" 150 660 basechar 0
AnchorPoint: "Anchor-8" 0 0 basechar 0
AnchorPoint: "Anchor-7" 249 0 basechar 0
LayerCount: 2
Fore
SplineSet
353.5 52.5 m 128,-1,1
 358 43 358 43 358 33 c 0,2,3
 358 14 358 14 342 6 c 0,4,5
 310 -10 310 -10 259 -10 c 0,6,7
 194 -10 194 -10 155 25.5 c 128,-1,8
 116 61 116 61 116 121 c 2,9,-1
 116 496 l 1,10,-1
 12 496 l 1,11,-1
 12 550 l 1,12,-1
 116 550 l 1,13,-1
 116 700 l 1,14,-1
 184 700 l 1,15,-1
 184 550 l 1,16,-1
 328 550 l 1,17,-1
 328 496 l 1,18,-1
 184 496 l 1,19,-1
 184 134 l 2,20,21
 184 50 184 50 256 50 c 0,22,23
 302 50 302 50 342 67 c 1,24,0
 349 62 349 62 353.5 52.5 c 128,-1,1
EndSplineSet
EndChar

StartChar: tbar
Encoding: 359 359 369
Width: 397
GlyphClass: 2
Flags: W
AnchorPoint: "Anchor-10" 328 630 basechar 0
AnchorPoint: "Anchor-9" 150 660 basechar 0
AnchorPoint: "Anchor-8" 0 0 basechar 0
AnchorPoint: "Anchor-7" 249 0 basechar 0
LayerCount: 2
Fore
SplineSet
353.5 52.5 m 128,-1,1
 358 43 358 43 358 33 c 0,2,3
 358 14 358 14 342 6 c 0,4,5
 310 -10 310 -10 259 -10 c 0,6,7
 194 -10 194 -10 155 25.5 c 128,-1,8
 116 61 116 61 116 121 c 2,9,-1
 116 286 l 1,10,-1
 12 286 l 1,11,-1
 12 340 l 1,12,-1
 116 340 l 1,13,-1
 116 496 l 1,14,-1
 12 496 l 1,15,-1
 12 550 l 1,16,-1
 116 550 l 1,17,-1
 116 700 l 1,18,-1
 184 700 l 1,19,-1
 184 550 l 1,20,-1
 328 550 l 1,21,-1
 328 496 l 1,22,-1
 184 496 l 1,23,-1
 184 340 l 1,24,-1
 328 340 l 1,25,-1
 328 286 l 1,26,-1
 184 286 l 1,27,-1
 184 134 l 2,28,29
 184 50 184 50 256 50 c 0,30,31
 302 50 302 50 342 67 c 1,32,0
 349 62 349 62 353.5 52.5 c 128,-1,1
EndSplineSet
EndChar

StartChar: uni0163
Encoding: 355 355 371
Width: 374
GlyphClass: 2
Flags: W
AnchorPoint: "Anchor-10" 328 630 basechar 0
AnchorPoint: "Anchor-9" 0 0 basechar 0
AnchorPoint: "Anchor-8" 0 0 basechar 0
AnchorPoint: "Anchor-7" 249 -214 basechar 0
LayerCount: 2
Fore
SplineSet
353.5 52.5 m 128,-1,1
 358 43 358 43 358 33 c 0,2,3
 358 14 358 14 342 6 c 0,4,5
 313 -8 313 -8 275 -9 c 1,6,-1
 238 -55 l 1,7,-1
 245 -55 l 2,8,9
 287 -55 287 -55 313 -76 c 128,-1,10
 339 -97 339 -97 339 -136 c 0,11,12
 339 -180 339 -180 304 -204.5 c 128,-1,13
 269 -229 269 -229 218 -229 c 0,14,15
 173 -229 173 -229 149 -218 c 128,-1,16
 125 -207 125 -207 125 -187 c 0,17,18
 125 -181 125 -181 128 -173 c 1,19,20
 169 -184 169 -184 212 -184 c 0,21,22
 242 -184 242 -184 259 -171.5 c 128,-1,23
 276 -159 276 -159 276 -138 c 0,24,25
 276 -123 276 -123 262.5 -111.5 c 128,-1,26
 249 -100 249 -100 225 -100 c 0,27,28
 206 -100 206 -100 185 -107 c 1,29,-1
 168 -75 l 1,30,-1
 220 -6 l 1,31,32
 172 4 172 4 144 37.5 c 128,-1,33
 116 71 116 71 116 121 c 2,34,-1
 116 496 l 1,35,-1
 12 496 l 1,36,-1
 12 550 l 1,37,-1
 116 550 l 1,38,-1
 116 700 l 1,39,-1
 184 700 l 1,40,-1
 184 550 l 1,41,-1
 328 550 l 1,42,-1
 328 496 l 1,43,-1
 184 496 l 1,44,-1
 184 134 l 2,45,46
 184 50 184 50 256 50 c 0,47,48
 302 50 302 50 342 67 c 1,49,0
 349 62 349 62 353.5 52.5 c 128,-1,1
EndSplineSet
Substitution2: "'locl' Localized Forms in Latin lookup 7 subtable" uni021B
Substitution2: "'locl' Localized Forms in Latin lookup 6 subtable" uni021B
Substitution2: "'aalt' Access All Alternates lookup 0 subtable" uni021B
EndChar

StartChar: u
Encoding: 117 117 376
Width: 610
GlyphClass: 2
Flags: W
AnchorPoint: "Anchor-10" 507 523 basechar 0
AnchorPoint: "Anchor-9" 304 550 basechar 0
AnchorPoint: "Anchor-8" 532 7 basechar 0
AnchorPoint: "Anchor-7" 304 0 basechar 0
LayerCount: 2
Fore
SplineSet
532 7 m 1,1,2
 511 -5 511 -5 489 -5 c 0,3,4
 468 -5 468 -5 458.5 12.5 c 128,-1,5
 449 30 449 30 448 76 c 1,6,7
 420 37 420 37 369 13.5 c 128,-1,8
 318 -10 318 -10 259 -10 c 0,9,10
 90 -10 90 -10 90 175 c 2,11,-1
 90 550 l 1,12,-1
 158 550 l 1,13,-1
 158 182 l 2,14,15
 158 109 158 109 185 76.5 c 128,-1,16
 212 44 212 44 271 44 c 0,17,18
 324 44 324 44 370.5 71 c 128,-1,19
 417 98 417 98 448 147 c 1,20,-1
 448 550 l 1,21,-1
 517 550 l 1,22,-1
 517 113 l 2,23,0
 517 55 517 55 532 7 c 1,1,2
EndSplineSet
EndChar

StartChar: uhorn
Encoding: 432 432 389
Width: 609
GlyphClass: 2
Flags: W
AnchorPoint: "Anchor-10" 507 523 basechar 0
AnchorPoint: "Anchor-9" 304 550 basechar 0
AnchorPoint: "Anchor-8" 532 7 basechar 0
AnchorPoint: "Anchor-7" 304 0 basechar 0
LayerCount: 2
Fore
SplineSet
607 539.5 m 128,-1,1
 574 507 574 507 517 501 c 1,2,-1
 517 113 l 2,3,4
 517 55 517 55 532 7 c 1,5,6
 511 -5 511 -5 489 -5 c 0,7,8
 468 -5 468 -5 458.5 12.5 c 128,-1,9
 449 30 449 30 448 76 c 1,10,11
 420 37 420 37 369 13.5 c 128,-1,12
 318 -10 318 -10 259 -10 c 0,13,14
 90 -10 90 -10 90 175 c 2,15,-1
 90 550 l 1,16,-1
 158 550 l 1,17,-1
 158 182 l 2,18,19
 158 109 158 109 185 76.5 c 128,-1,20
 212 44 212 44 271 44 c 0,21,22
 324 44 324 44 370.5 71 c 128,-1,23
 417 98 417 98 448 147 c 1,24,-1
 448 550 l 1,25,-1
 507 550 l 2,26,27
 535 550 535 550 554 568.5 c 128,-1,28
 573 587 573 587 573 617 c 256,29,30
 573 647 573 647 544 669 c 1,31,32
 546 682 546 682 557 692 c 128,-1,33
 568 702 568 702 582 702 c 0,34,35
 608 702 608 702 624 682.5 c 128,-1,36
 640 663 640 663 640 627 c 0,37,0
 640 572 640 572 607 539.5 c 128,-1,1
EndSplineSet
EndChar

StartChar: uogonek
Encoding: 371 371 397
Width: 609
GlyphClass: 2
Flags: W
AnchorPoint: "Anchor-10" 507 523 basechar 0
AnchorPoint: "Anchor-9" 304 550 basechar 0
AnchorPoint: "Anchor-8" 532 7 basechar 0
AnchorPoint: "Anchor-7" 304 0 basechar 0
LayerCount: 2
Fore
SplineSet
571 -169 m 0,1,2
 571 -183 571 -183 553 -193 c 128,-1,3
 535 -203 535 -203 502 -203 c 0,4,5
 455 -203 455 -203 426.5 -178.5 c 128,-1,6
 398 -154 398 -154 398 -115 c 256,7,8
 398 -76 398 -76 417.5 -49 c 128,-1,9
 437 -22 437 -22 473 -2 c 1,10,11
 461 3 461 3 455 21 c 128,-1,12
 449 39 449 39 448 76 c 1,13,14
 420 37 420 37 369 13.5 c 128,-1,15
 318 -10 318 -10 259 -10 c 0,16,17
 90 -10 90 -10 90 175 c 2,18,-1
 90 550 l 1,19,-1
 158 550 l 1,20,-1
 158 182 l 2,21,22
 158 109 158 109 185 76.5 c 128,-1,23
 212 44 212 44 271 44 c 0,24,25
 324 44 324 44 370.5 71 c 128,-1,26
 417 98 417 98 448 147 c 1,27,-1
 448 550 l 1,28,-1
 517 550 l 1,29,-1
 517 113 l 2,30,31
 517 55 517 55 532 7 c 1,32,33
 497 -16 497 -16 478 -45.5 c 128,-1,34
 459 -75 459 -75 459 -107 c 0,35,36
 459 -132 459 -132 473 -145.5 c 128,-1,37
 487 -159 487 -159 512 -159 c 0,38,39
 542 -159 542 -159 565 -149 c 1,40,0
 571 -158 571 -158 571 -169 c 0,1,2
EndSplineSet
EndChar

StartChar: v
Encoding: 118 118 400
Width: 485
Flags: W
LayerCount: 2
Fore
SplineSet
469 550 m 1,0,1
 457 396 457 396 410 262.5 c 128,-1,2
 363 129 363 129 275 0 c 1,3,-1
 210 0 l 1,4,5
 122 129 122 129 75 262.5 c 128,-1,6
 28 396 28 396 16 550 c 1,7,-1
 84 550 l 1,8,9
 98 405 98 405 135.5 292.5 c 128,-1,10
 173 180 173 180 243 74 c 1,11,12
 313 180 313 180 350 292.5 c 128,-1,13
 387 405 387 405 401 550 c 1,14,-1
 469 550 l 1,0,1
EndSplineSet
EndChar

StartChar: w
Encoding: 119 119 401
Width: 760
GlyphClass: 2
Flags: W
AnchorPoint: "Anchor-10" 0 0 basechar 0
AnchorPoint: "Anchor-9" 380 550 basechar 0
AnchorPoint: "Anchor-8" 0 0 basechar 0
AnchorPoint: "Anchor-7" 380 0 basechar 0
LayerCount: 2
Fore
SplineSet
722 550 m 1,0,1
 682 246 682 246 570 0 c 1,2,-1
 508 0 l 1,3,4
 456 114 456 114 425.5 208 c 128,-1,5
 395 302 395 302 378 404 c 1,6,7
 360 300 360 300 329 205.5 c 128,-1,8
 298 111 298 111 246 0 c 1,9,-1
 182 0 l 1,10,11
 129 113 129 113 93.5 244 c 128,-1,12
 58 375 58 375 33 550 c 1,13,-1
 103 550 l 1,14,15
 120 404 120 404 146.5 294.5 c 128,-1,16
 173 185 173 185 216 91 c 1,17,18
 312 288 312 288 346 550 c 1,19,-1
 412 550 l 1,20,21
 448 279 448 279 541 89 c 1,22,23
 628 297 628 297 644 550 c 1,24,-1
 722 550 l 1,0,1
EndSplineSet
EndChar

StartChar: x
Encoding: 120 120 406
Width: 484
Flags: W
LayerCount: 2
Fore
SplineSet
377 191 m 128,-1,1
 412 151 412 151 437.5 102.5 c 128,-1,2
 463 54 463 54 468 0 c 1,3,-1
 394 0 l 1,4,5
 388 64 388 64 349.5 119 c 128,-1,6
 311 174 311 174 242 241 c 1,7,8
 173 174 173 174 134.5 119 c 128,-1,9
 96 64 96 64 90 0 c 1,10,-1
 16 0 l 1,11,12
 21 54 21 54 46.5 102.5 c 128,-1,13
 72 151 72 151 107 191 c 128,-1,14
 142 231 142 231 197 285 c 1,15,16
 120 359 120 359 77.5 419 c 128,-1,17
 35 479 35 479 28 550 c 1,18,-1
 102 550 l 1,19,20
 108 493 108 493 144 440.5 c 128,-1,21
 180 388 180 388 242 328 c 1,22,23
 304 388 304 388 340 440.5 c 128,-1,24
 376 493 376 493 382 550 c 1,25,-1
 456 550 l 1,26,27
 449 479 449 479 406.5 419 c 128,-1,28
 364 359 364 359 287 285 c 1,29,0
 342 231 342 231 377 191 c 128,-1,1
EndSplineSet
EndChar

StartChar: y
Encoding: 121 121 407
Width: 485
GlyphClass: 2
Flags: W
AnchorPoint: "Anchor-10" 0 0 basechar 0
AnchorPoint: "Anchor-9" 243 550 basechar 0
AnchorPoint: "Anchor-8" 0 0 basechar 0
AnchorPoint: "Anchor-7" 348 0 basechar 0
LayerCount: 2
Fore
SplineSet
474 550 m 1,0,-1
 261 -42 l 2,1,2
 233 -121 233 -121 190.5 -157.5 c 128,-1,3
 148 -194 148 -194 83 -194 c 0,4,5
 45 -194 45 -194 23 -182.5 c 128,-1,6
 1 -171 1 -171 1 -152 c 0,7,8
 1 -132 1 -132 18 -120 c 1,9,10
 28 -127 28 -127 48.5 -132 c 128,-1,11
 69 -137 69 -137 89 -137 c 0,12,13
 130 -137 130 -137 159.5 -101 c 128,-1,14
 189 -65 189 -65 210 9 c 1,15,-1
 14 550 l 1,16,-1
 86 550 l 1,17,-1
 245 107 l 1,18,-1
 402 550 l 1,19,-1
 474 550 l 1,0,-1
EndSplineSet
EndChar

StartChar: z
Encoding: 122 122 416
Width: 500
GlyphClass: 2
Flags: W
AnchorPoint: "Anchor-10" 0 0 basechar 0
AnchorPoint: "Anchor-9" 250 550 basechar 0
AnchorPoint: "Anchor-8" 0 0 basechar 0
AnchorPoint: "Anchor-7" 250 0 basechar 0
LayerCount: 2
Fore
SplineSet
470 58 m 1,0,-1
 470 0 l 1,1,-1
 30 0 l 1,2,-1
 30 48 l 1,3,-1
 370 492 l 1,4,-1
 56 492 l 1,5,-1
 56 550 l 1,6,-1
 462 550 l 1,7,-1
 462 503 l 1,8,-1
 122 58 l 1,9,-1
 470 58 l 1,0,-1
EndSplineSet
EndChar

StartChar: ordfeminine
Encoding: 170 170 423
Width: 380
Flags: W
LayerCount: 2
Fore
SplineSet
334.5 403.5 m 128,-1,1
 336 388 336 388 340 370 c 1,2,3
 328 360 328 360 311 360 c 0,4,5
 280 360 280 360 278 416 c 1,6,7
 257 389 257 389 228.5 374 c 128,-1,8
 200 359 200 359 155 359 c 0,9,10
 107 359 107 359 76.5 384 c 128,-1,11
 46 409 46 409 46 451 c 0,12,13
 46 503 46 503 77.5 530.5 c 128,-1,14
 109 558 109 558 158 567 c 128,-1,15
 207 576 207 576 278 577 c 1,16,-1
 278 584 l 2,17,18
 278 667 278 667 197 667 c 0,19,20
 168 667 168 667 150.5 658 c 128,-1,21
 133 649 133 649 113 633 c 0,22,23
 103 624 103 624 97.5 621.5 c 128,-1,24
 92 619 92 619 84 619 c 0,25,26
 72 619 72 619 64 626.5 c 128,-1,27
 56 634 56 634 54 646 c 1,28,29
 78 679 78 679 114 695.5 c 128,-1,30
 150 712 150 712 203 712 c 0,31,32
 255 712 255 712 294 679 c 128,-1,33
 333 646 333 646 333 583 c 2,34,-1
 333 446 l 2,35,0
 333 419 333 419 334.5 403.5 c 128,-1,1
230 423 m 128,-1,37
 263 443 263 443 278 471 c 1,38,-1
 278 535 l 1,39,40
 224 534 224 534 187.5 529.5 c 128,-1,41
 151 525 151 525 126 507 c 128,-1,42
 101 489 101 489 101 453 c 0,43,44
 101 426 101 426 116.5 414.5 c 128,-1,45
 132 403 132 403 162 403 c 0,46,36
 197 403 197 403 230 423 c 128,-1,37
EndSplineSet
EndChar

StartChar: ordmasculine
Encoding: 186 186 424
Width: 380
Flags: W
LayerCount: 2
Fore
SplineSet
76 405.5 m 128,-1,1
 36 454 36 454 36 533 c 0,2,3
 36 613 36 613 76 661.5 c 128,-1,4
 116 710 116 710 191 710 c 0,5,6
 265 710 265 710 304.5 661.5 c 128,-1,7
 344 613 344 613 344 533 c 0,8,9
 344 454 344 454 304.5 405.5 c 128,-1,10
 265 357 265 357 191 357 c 0,11,0
 116 357 116 357 76 405.5 c 128,-1,1
263.5 433.5 m 128,-1,13
 288 465 288 465 288 533 c 0,14,15
 288 665 288 665 191 665 c 0,16,17
 92 665 92 665 92 533 c 0,18,19
 92 402 92 402 191 402 c 0,20,12
 239 402 239 402 263.5 433.5 c 128,-1,13
EndSplineSet
EndChar

StartChar: uni207F
Encoding: 8319 8319 425
Width: 380
Flags: W
LayerCount: 2
Fore
SplineSet
337.5 393 m 128,-1,1
 340 380 340 380 345 369 c 1,2,3
 320 360 320 360 301 360 c 0,4,5
 280 360 280 360 280 421 c 2,6,-1
 280 602 l 2,7,8
 280 638 280 638 264 655 c 128,-1,9
 248 672 248 672 212 672 c 0,10,11
 155 672 155 672 98 617 c 1,12,-1
 98 363 l 1,13,-1
 43 363 l 1,14,-1
 43 593 l 2,15,16
 43 680 43 680 35 699 c 1,17,18
 43 703 43 703 56 706 c 128,-1,19
 69 709 69 709 77 709 c 0,20,21
 86 709 86 709 92 700 c 128,-1,22
 98 691 98 691 98 673 c 2,23,-1
 98 671 l 1,24,25
 152 716 152 716 216 716 c 0,26,27
 272 716 272 716 303.5 687.5 c 128,-1,28
 335 659 335 659 335 602 c 2,29,-1
 335 437 l 2,30,0
 335 406 335 406 337.5 393 c 128,-1,1
EndSplineSet
EndChar

StartChar: uni0394
Encoding: 916 916 426
Width: 546
Flags: W
LayerCount: 2
Fore
SplineSet
546 30 m 1,0,-1
 546 0 l 1,1,-1
 0 0 l 1,2,-1
 0 30 l 1,3,-1
 240 700 l 1,4,-1
 306 700 l 1,5,-1
 546 30 l 1,0,-1
467 58 m 1,6,-1
 273 614 l 1,7,-1
 79 58 l 1,8,-1
 467 58 l 1,6,-1
EndSplineSet
EndChar

StartChar: uni03A9
Encoding: 937 937 427
Width: 676
Flags: W
LayerCount: 2
Fore
SplineSet
50 58 m 1,0,-1
 220 58 l 1,1,-1
 220 147 l 1,2,3
 171 163 171 163 132.5 202 c 128,-1,4
 94 241 94 241 72 295.5 c 128,-1,5
 50 350 50 350 50 410 c 0,6,7
 50 500 50 500 86 568 c 128,-1,8
 122 636 122 636 187 673 c 128,-1,9
 252 710 252 710 338 710 c 256,10,11
 424 710 424 710 489 673 c 128,-1,12
 554 636 554 636 590 568 c 128,-1,13
 626 500 626 500 626 410 c 0,14,15
 626 349 626 349 604 294.5 c 128,-1,16
 582 240 582 240 543.5 201 c 128,-1,17
 505 162 505 162 456 147 c 1,18,-1
 456 58 l 1,19,-1
 626 58 l 1,20,-1
 626 0 l 1,21,-1
 396 0 l 1,22,-1
 396 187 l 1,23,24
 444 197 444 197 482 229.5 c 128,-1,25
 520 262 520 262 541 309 c 128,-1,26
 562 356 562 356 562 410 c 0,27,28
 562 483 562 483 534 537.5 c 128,-1,29
 506 592 506 592 455.5 621.5 c 128,-1,30
 405 651 405 651 338 651 c 256,31,32
 271 651 271 651 220.5 621.5 c 128,-1,33
 170 592 170 592 142.5 537.5 c 128,-1,34
 115 483 115 483 115 410 c 0,35,36
 115 356 115 356 136 309 c 128,-1,37
 157 262 157 262 195 229.5 c 128,-1,38
 233 197 233 197 281 187 c 1,39,-1
 281 0 l 1,40,-1
 50 0 l 1,41,-1
 50 58 l 1,0,-1
EndSplineSet
EndChar

StartChar: uni03BC
Encoding: 956 956 428
Width: 610
GlyphClass: 2
Flags: W
AnchorPoint: "Anchor-6" 517 523 basechar 0
AnchorPoint: "Anchor-5" 304 550 basechar 0
AnchorPoint: "Anchor-4" 532 7 basechar 0
AnchorPoint: "Anchor-3" 304 0 basechar 0
LayerCount: 2
Fore
SplineSet
521 50 m 128,-1,1
 525 27 525 27 532 7 c 1,2,3
 508 -5 508 -5 489 -5 c 0,4,5
 467 -5 467 -5 458.5 13 c 128,-1,6
 450 31 450 31 448 74 c 1,7,8
 421 32 421 32 383 10 c 128,-1,9
 345 -12 345 -12 289 -12 c 0,10,11
 199 -12 199 -12 157 37 c 1,12,-1
 157 -220 l 1,13,-1
 90 -220 l 1,14,-1
 90 550 l 1,15,-1
 157 550 l 1,16,-1
 157 180 l 2,17,18
 157 112 157 112 192.5 77 c 128,-1,19
 228 42 228 42 291 42 c 0,20,21
 340 42 340 42 381.5 71 c 128,-1,22
 423 100 423 100 448 150 c 1,23,-1
 448 550 l 1,24,-1
 517 550 l 1,25,-1
 517 113 l 2,26,0
 517 73 517 73 521 50 c 128,-1,1
EndSplineSet
EndChar

StartChar: pi
Encoding: 960 960 429
Width: 640
Flags: W
LayerCount: 2
Fore
SplineSet
440 22.5 m 128,-1,1
 413 55 413 55 413 106 c 2,2,-1
 413 490 l 1,3,-1
 201 490 l 1,4,-1
 201 0 l 1,5,-1
 136 0 l 1,6,-1
 136 490 l 1,7,-1
 29 490 l 1,8,-1
 29 550 l 1,9,-1
 597 550 l 1,10,-1
 597 490 l 1,11,-1
 478 490 l 1,12,-1
 478 110 l 2,13,14
 478 74 478 74 494.5 60 c 128,-1,15
 511 46 511 46 541 46 c 0,16,17
 561 46 561 46 581.5 51 c 128,-1,18
 602 56 602 56 613 64 c 1,19,-1
 613 13 l 1,20,21
 591 0 591 0 569.5 -5 c 128,-1,22
 548 -10 548 -10 520 -10 c 0,23,0
 467 -10 467 -10 440 22.5 c 128,-1,1
EndSplineSet
EndChar

StartChar: uni0E01
Encoding: 3585 3585 430
Width: 605
GlyphClass: 2
Flags: W
AnchorPoint: "Anchor-12" 525 550 basechar 0
AnchorPoint: "Anchor-11" 525 0 basechar 0
LayerCount: 2
Fore
SplineSet
411.5 563.5 m 128,-1,1
 463 541 463 541 494 495 c 128,-1,2
 525 449 525 449 525 383 c 2,3,-1
 525 0 l 1,4,-1
 460 0 l 1,5,-1
 460 383 l 2,6,7
 460 459 460 459 417 496.5 c 128,-1,8
 374 534 374 534 298 534 c 0,9,10
 250 534 250 534 208.5 519 c 128,-1,11
 167 504 167 504 142.5 482.5 c 128,-1,12
 118 461 118 461 118 443 c 0,13,14
 118 430 118 430 130 417.5 c 128,-1,15
 142 405 142 405 157.5 396.5 c 128,-1,16
 173 388 173 388 183 388 c 0,17,18
 192 388 192 388 202.5 392 c 128,-1,19
 213 396 213 396 216 397 c 0,20,21
 236 405 236 405 243 405 c 256,22,23
 250 405 250 405 262 389 c 128,-1,24
 274 373 274 373 274 363 c 0,25,26
 274 356 274 356 267 356 c 0,27,28
 205 356 205 356 181 323 c 128,-1,29
 157 290 157 290 157 222 c 2,30,-1
 157 0 l 1,31,-1
 92 0 l 1,32,-1
 92 222 l 2,33,34
 92 269 92 269 102.5 300.5 c 128,-1,35
 113 332 113 332 134 353 c 1,36,37
 105 365 105 365 80 389 c 128,-1,38
 55 413 55 413 55 440 c 0,39,40
 55 472 55 472 87 506 c 128,-1,41
 119 540 119 540 174.5 563 c 128,-1,42
 230 586 230 586 298 586 c 0,43,0
 360 586 360 586 411.5 563.5 c 128,-1,1
EndSplineSet
EndChar

StartChar: uni0E02
Encoding: 3586 3586 431
Width: 570
GlyphClass: 2
Flags: W
AnchorPoint: "Anchor-12" 490 550 basechar 0
AnchorPoint: "Anchor-11" 490 0 basechar 0
LayerCount: 2
Fore
SplineSet
183 31.5 m 128,-1,1
 137 72 137 72 137 151 c 2,2,-1
 137 254 l 2,3,4
 137 273 137 273 150 280 c 0,5,6
 198 309 198 309 224.5 329 c 128,-1,7
 251 349 251 349 267.5 376 c 128,-1,8
 284 403 284 403 284 440 c 0,9,10
 284 489 284 489 257 512 c 128,-1,11
 230 535 230 535 189 535 c 0,12,13
 151 535 151 535 123.5 511.5 c 128,-1,14
 96 488 96 488 96 451 c 0,15,16
 96 423 96 423 110 408.5 c 128,-1,17
 124 394 124 394 147 394 c 0,18,19
 168 394 168 394 180 406.5 c 128,-1,20
 192 419 192 419 192 440 c 0,21,22
 192 460 192 460 181 471.5 c 128,-1,23
 170 483 170 483 151 483 c 0,24,25
 139 483 139 483 131 481 c 1,26,27
 132 490 132 490 143 498.5 c 128,-1,28
 154 507 154 507 171 507 c 0,29,30
 198 507 198 507 218 489 c 128,-1,31
 238 471 238 471 238 436 c 0,32,33
 238 399 238 399 211.5 374.5 c 128,-1,34
 185 350 185 350 148 350 c 0,35,36
 108 350 108 350 79 377.5 c 128,-1,37
 50 405 50 405 50 451 c 0,38,39
 50 509 50 509 89.5 544 c 128,-1,40
 129 579 129 579 190 579 c 0,41,42
 256 579 256 579 298 545 c 128,-1,43
 340 511 340 511 340 443 c 0,44,45
 340 397 340 397 322 362.5 c 128,-1,46
 304 328 304 328 276.5 304 c 128,-1,47
 249 280 249 280 202 247 c 1,48,-1
 202 152 l 2,49,50
 202 93 202 93 228 68 c 128,-1,51
 254 43 254 43 313 43 c 0,52,53
 356 43 356 43 380 53 c 128,-1,54
 404 63 404 63 414.5 88 c 128,-1,55
 425 113 425 113 425 159 c 2,56,-1
 425 576 l 1,57,-1
 490 576 l 1,58,-1
 490 163 l 2,59,60
 490 71 490 71 446 31 c 128,-1,61
 402 -9 402 -9 312 -9 c 0,62,0
 229 -9 229 -9 183 31.5 c 128,-1,1
EndSplineSet
EndChar

StartChar: uni0E03
Encoding: 3587 3587 432
Width: 596
GlyphClass: 2
Flags: W
AnchorPoint: "Anchor-12" 516 550 basechar 0
AnchorPoint: "Anchor-11" 516 0 basechar 0
LayerCount: 2
Fore
SplineSet
199.5 31 m 128,-1,1
 150 71 150 71 150 159 c 2,2,-1
 150 229 l 2,3,4
 150 270 150 270 169 298 c 128,-1,5
 188 326 188 326 226 363 c 0,6,7
 261 396 261 396 278.5 421.5 c 128,-1,8
 296 447 296 447 296 480 c 0,9,10
 296 505 296 505 285 517.5 c 128,-1,11
 274 530 274 530 254 530 c 0,12,13
 218 530 218 530 193 487 c 1,14,15
 178 512 178 512 165 523 c 128,-1,16
 152 534 152 534 130 534 c 256,17,18
 108 534 108 534 94 520.5 c 128,-1,19
 80 507 80 507 80 482 c 0,20,21
 80 456 80 456 94.5 442 c 128,-1,22
 109 428 109 428 130 428 c 0,23,24
 169 428 169 428 184 466 c 1,25,26
 199 458 199 458 199 443 c 0,27,28
 199 418 199 418 178 401 c 128,-1,29
 157 384 157 384 129 384 c 0,30,31
 87 384 87 384 60.5 410.5 c 128,-1,32
 34 437 34 437 34 481 c 0,33,34
 34 526 34 526 61.5 553 c 128,-1,35
 89 580 89 580 125 580 c 0,36,37
 150 580 150 580 166 570.5 c 128,-1,38
 182 561 182 561 194 541 c 1,39,40
 219 580 219 580 267 580 c 0,41,42
 306 580 306 580 331 554.5 c 128,-1,43
 356 529 356 529 356 480 c 0,44,45
 356 436 356 436 336 404.5 c 128,-1,46
 316 373 316 373 279 337 c 0,47,48
 246 303 246 303 230.5 279.5 c 128,-1,49
 215 256 215 256 215 225 c 2,50,-1
 215 159 l 2,51,52
 215 45 215 45 334 45 c 0,53,54
 399 45 399 45 425 71 c 128,-1,55
 451 97 451 97 451 159 c 2,56,-1
 451 576 l 1,57,-1
 516 576 l 1,58,-1
 516 159 l 2,59,60
 516 77 516 77 469.5 34 c 128,-1,61
 423 -9 423 -9 333 -9 c 0,62,0
 249 -9 249 -9 199.5 31 c 128,-1,1
EndSplineSet
EndChar

StartChar: uni0E04
Encoding: 3588 3588 433
Width: 624
GlyphClass: 2
Flags: W
AnchorPoint: "Anchor-12" 544 550 basechar 0
AnchorPoint: "Anchor-11" 544 0 basechar 0
LayerCount: 2
Fore
SplineSet
486.5 525.5 m 128,-1,1
 544 465 544 465 544 360 c 2,2,-1
 544 0 l 1,3,-1
 479 0 l 1,4,-1
 479 355 l 2,5,6
 479 534 479 534 314 534 c 0,7,8
 231 534 231 534 184 490.5 c 128,-1,9
 137 447 137 447 137 355 c 0,10,11
 137 299 137 299 155 253 c 1,12,13
 181 313 181 313 222 348 c 128,-1,14
 263 383 263 383 320 383 c 0,15,16
 361 383 361 383 390 357 c 128,-1,17
 419 331 419 331 419 288 c 256,18,19
 419 245 419 245 393 220.5 c 128,-1,20
 367 196 367 196 325 196 c 0,21,22
 298 196 298 196 278 210 c 128,-1,23
 258 224 258 224 258 247 c 0,24,25
 258 266 258 266 271 273 c 1,26,27
 282 256 282 256 294.5 248 c 128,-1,28
 307 240 307 240 325 240 c 0,29,30
 348 240 348 240 359 252.5 c 128,-1,31
 370 265 370 265 370 288 c 0,32,33
 370 310 370 310 356.5 322.5 c 128,-1,34
 343 335 343 335 318 335 c 0,35,36
 275 335 275 335 241 292.5 c 128,-1,37
 207 250 207 250 186.5 174 c 128,-1,38
 166 98 166 98 164 0 c 1,39,-1
 113 0 l 2,40,41
 98 0 98 0 98 20 c 0,42,43
 98 64 98 64 117 142 c 0,44,45
 123 172 123 172 123 173 c 0,46,47
 123 178 123 178 112 202 c 0,48,49
 94 238 94 238 83 272 c 128,-1,50
 72 306 72 306 72 355 c 0,51,52
 72 428 72 428 103 480 c 128,-1,53
 134 532 134 532 189 559 c 128,-1,54
 244 586 244 586 314 586 c 0,55,0
 429 586 429 586 486.5 525.5 c 128,-1,1
EndSplineSet
EndChar

StartChar: uni0E05
Encoding: 3589 3589 434
Width: 640
GlyphClass: 2
Flags: W
AnchorPoint: "Anchor-12" 560 550 basechar 0
AnchorPoint: "Anchor-11" 560 0 basechar 0
LayerCount: 2
Fore
SplineSet
525 509.5 m 128,-1,1
 560 459 560 459 560 370 c 2,2,-1
 560 0 l 1,3,-1
 495 0 l 1,4,-1
 495 370 l 2,5,6
 495 441 495 441 475.5 475 c 128,-1,7
 456 509 456 509 409 526 c 1,8,9
 385 504 385 504 326 466 c 1,10,11
 267 502 267 502 240 526 c 1,12,13
 190 506 190 506 163.5 466 c 128,-1,14
 137 426 137 426 137 355 c 0,15,16
 137 299 137 299 155 253 c 1,17,18
 181 312 181 312 223 347.5 c 128,-1,19
 265 383 265 383 322 383 c 0,20,21
 363 383 363 383 392 357 c 128,-1,22
 421 331 421 331 421 288 c 256,23,24
 421 245 421 245 395 220.5 c 128,-1,25
 369 196 369 196 327 196 c 0,26,27
 300 196 300 196 280 210 c 128,-1,28
 260 224 260 224 260 247 c 0,29,30
 260 266 260 266 273 273 c 1,31,32
 284 256 284 256 296.5 248 c 128,-1,33
 309 240 309 240 327 240 c 0,34,35
 350 240 350 240 361 252.5 c 128,-1,36
 372 265 372 265 372 288 c 0,37,38
 372 310 372 310 358.5 322.5 c 128,-1,39
 345 335 345 335 320 335 c 0,40,41
 277 335 277 335 242.5 292.5 c 128,-1,42
 208 250 208 250 187 174 c 128,-1,43
 166 98 166 98 164 0 c 1,44,-1
 113 0 l 2,45,46
 98 0 98 0 98 20 c 0,47,48
 98 64 98 64 117 142 c 0,49,50
 123 172 123 172 123 173 c 0,51,52
 123 178 123 178 112 202 c 0,53,54
 94 238 94 238 83 272 c 128,-1,55
 72 306 72 306 72 355 c 0,56,57
 72 445 72 445 114.5 500 c 128,-1,58
 157 555 157 555 239 586 c 1,59,60
 290 554 290 554 326 520 c 1,61,62
 358 551 358 551 410 586 c 1,63,0
 490 560 490 560 525 509.5 c 128,-1,1
EndSplineSet
EndChar

StartChar: uni0E06
Encoding: 3590 3590 435
Width: 650
GlyphClass: 2
Flags: W
AnchorPoint: "Anchor-12" 552 550 basechar 0
AnchorPoint: "Anchor-11" 552 0 basechar 0
LayerCount: 2
Fore
SplineSet
556 44 m 2,1,-1
 558 15 l 2,2,3
 558 0 558 0 544 0 c 2,4,-1
 490 0 l 1,5,6
 462 85 462 85 398 137.5 c 128,-1,7
 334 190 334 190 251 202 c 1,8,9
 251 175 251 175 252 163 c 2,10,-1
 253 119 l 2,11,12
 253 59 253 59 233.5 25 c 128,-1,13
 214 -9 214 -9 159 -9 c 0,14,15
 116 -9 116 -9 90 21.5 c 128,-1,16
 64 52 64 52 64 112 c 0,17,18
 64 174 64 174 99 212.5 c 128,-1,19
 134 251 134 251 189 256 c 1,20,21
 196 286 196 286 210.5 309 c 128,-1,22
 225 332 225 332 251 363 c 0,23,24
 279 397 279 397 292.5 422 c 128,-1,25
 306 447 306 447 306 480 c 0,26,27
 306 504 306 504 294.5 516 c 128,-1,28
 283 528 283 528 264 528 c 0,29,30
 226 528 226 528 203 487 c 1,31,32
 192 510 192 510 177 522 c 128,-1,33
 162 534 162 534 140 534 c 256,34,35
 118 534 118 534 104 520 c 128,-1,36
 90 506 90 506 90 482 c 0,37,38
 90 459 90 459 104.5 445.5 c 128,-1,39
 119 432 119 432 140 432 c 0,40,41
 162 432 162 432 175 444 c 128,-1,42
 188 456 188 456 191 473 c 1,43,44
 200 472 200 472 205.5 465.5 c 128,-1,45
 211 459 211 459 211 449 c 0,46,47
 211 424 211 424 189.5 406 c 128,-1,48
 168 388 168 388 139 388 c 0,49,50
 97 388 97 388 70.5 413.5 c 128,-1,51
 44 439 44 439 44 481 c 0,52,53
 44 527 44 527 71.5 553.5 c 128,-1,54
 99 580 99 580 135 580 c 0,55,56
 187 580 187 580 204 541 c 1,57,58
 222 578 222 578 277 578 c 0,59,60
 315 578 315 578 340.5 553.5 c 128,-1,61
 366 529 366 529 366 480 c 0,62,63
 366 434 366 434 349.5 403.5 c 128,-1,64
 333 373 333 373 300 331 c 0,65,66
 264 288 264 288 255 254 c 1,67,68
 331 243 331 243 393.5 204 c 128,-1,69
 456 165 456 165 487 114 c 1,70,-1
 487 576 l 1,71,-1
 552 576 l 1,72,-1
 552 111 l 2,73,0
 552 80 552 80 556 44 c 2,1,-1
183 56 m 128,-1,75
 189 69 189 69 189 95 c 2,76,-1
 188 132 l 2,77,78
 188 152 188 152 187 163 c 2,79,-1
 186 204 l 1,80,81
 120 194 120 194 120 115 c 0,82,83
 120 81 120 81 130.5 62 c 128,-1,84
 141 43 141 43 159 43 c 256,85,74
 177 43 177 43 183 56 c 128,-1,75
EndSplineSet
EndChar

StartChar: uni0E07
Encoding: 3591 3591 436
Width: 520
GlyphClass: 2
Flags: W
AnchorPoint: "Anchor-12" 450 550 basechar 0
AnchorPoint: "Anchor-11" 408 0 basechar 0
LayerCount: 2
Fore
SplineSet
203 4 m 128,-1,1
 164 12 164 12 162 22 c 0,2,3
 137 144 137 144 108 224 c 128,-1,4
 79 304 79 304 35 365 c 1,5,6
 43 377 43 377 55 385 c 128,-1,7
 67 393 67 393 80 393 c 0,8,9
 92 393 92 393 100 387.5 c 128,-1,10
 108 382 108 382 116 370 c 0,11,12
 174 275 174 275 217 61 c 0,13,14
 218 54 218 54 235.5 50 c 128,-1,15
 253 46 253 46 282 46 c 0,16,17
 310 46 310 46 328.5 50.5 c 128,-1,18
 347 55 347 55 348 64 c 0,19,20
 366 175 366 175 375.5 280.5 c 128,-1,21
 385 386 385 386 385 457 c 0,22,23
 385 497 385 497 371.5 514.5 c 128,-1,24
 358 532 358 532 331 532 c 0,25,26
 310 532 310 532 297.5 521 c 128,-1,27
 285 510 285 510 285 491 c 0,28,29
 285 471 285 471 296 459.5 c 128,-1,30
 307 448 307 448 327 448 c 0,31,32
 345 448 345 448 361 454 c 1,33,34
 365 449 365 449 365 441 c 0,35,36
 365 428 365 428 352.5 417.5 c 128,-1,37
 340 407 340 407 316 407 c 0,38,39
 279 407 279 407 256 429.5 c 128,-1,40
 233 452 233 452 233 491 c 0,41,42
 233 532 233 532 261 557 c 128,-1,43
 289 582 289 582 334 582 c 0,44,45
 390 582 390 582 420 550 c 128,-1,46
 450 518 450 518 450 458 c 0,47,48
 450 377 450 377 438 264.5 c 128,-1,49
 426 152 426 152 402 23 c 0,50,51
 400 11 400 11 365.5 3.5 c 128,-1,52
 331 -4 331 -4 288 -4 c 0,53,0
 242 -4 242 -4 203 4 c 128,-1,1
EndSplineSet
EndChar

StartChar: uni0E08
Encoding: 3592 3592 437
Width: 588
GlyphClass: 2
Flags: W
AnchorPoint: "Anchor-12" 509 550 basechar 0
AnchorPoint: "Anchor-11" 465 2 basechar 0
LayerCount: 2
Fore
SplineSet
292.5 -1 m 128,-1,1
 263 7 263 7 262 18 c 0,2,3
 258 89 258 89 253.5 149.5 c 128,-1,4
 249 210 249 210 242 247 c 0,5,6
 231 306 231 306 185 306 c 0,7,8
 164 306 164 306 152 295 c 128,-1,9
 140 284 140 284 140 263 c 0,10,11
 140 244 140 244 153 232 c 128,-1,12
 166 220 166 220 187 220 c 0,13,14
 202 220 202 220 218 227 c 1,15,16
 220 223 220 223 220 215 c 0,17,18
 220 200 220 200 206.5 189 c 128,-1,19
 193 178 193 178 172 178 c 0,20,21
 134 178 134 178 111 200.5 c 128,-1,22
 88 223 88 223 88 263 c 0,23,24
 88 304 88 304 115 329 c 128,-1,25
 142 354 142 354 185 354 c 0,26,27
 231 354 231 354 260 328.5 c 128,-1,28
 289 303 289 303 298 260 c 0,29,30
 311 199 311 199 323 48 c 0,31,32
 323 43 323 43 334.5 40 c 128,-1,33
 346 37 346 37 363 37 c 0,34,35
 381 37 381 37 392 40.5 c 128,-1,36
 403 44 403 44 403 49 c 0,37,38
 407 119 407 119 426 227 c 0,39,40
 435 276 435 276 439.5 311 c 128,-1,41
 444 346 444 346 444 381 c 0,42,43
 444 455 444 455 403.5 493.5 c 128,-1,44
 363 532 363 532 286 532 c 0,45,46
 231 532 231 532 189 511 c 128,-1,47
 147 490 147 490 112 450 c 0,48,49
 106 444 106 444 102 441.5 c 128,-1,50
 98 439 98 439 91 439 c 0,51,52
 80 439 80 439 68 450 c 128,-1,53
 56 461 56 461 47 476 c 1,54,55
 82 521 82 521 143 553.5 c 128,-1,56
 204 586 204 586 286 586 c 0,57,58
 387 586 387 586 448 533 c 128,-1,59
 509 480 509 480 509 381 c 0,60,61
 509 346 509 346 504.5 314 c 128,-1,62
 500 282 500 282 490 228 c 0,63,64
 479 167 479 167 472.5 122 c 128,-1,65
 466 77 466 77 462 18 c 0,66,67
 461 7 461 7 429.5 -1 c 128,-1,68
 398 -9 398 -9 363 -9 c 0,69,0
 322 -9 322 -9 292.5 -1 c 128,-1,1
EndSplineSet
EndChar

StartChar: uni0E09
Encoding: 3593 3593 438
Width: 631
GlyphClass: 2
Flags: W
AnchorPoint: "Anchor-12" 554 550 basechar 0
AnchorPoint: "Anchor-11" 554 0 basechar 0
LayerCount: 2
Fore
SplineSet
578.5 158.5 m 128,-1,1
 596 132 596 132 596 96 c 0,2,3
 596 53 596 53 565 24.5 c 128,-1,4
 534 -4 534 -4 490 -4 c 256,5,6
 446 -4 446 -4 415.5 24.5 c 128,-1,7
 385 53 385 53 385 96 c 0,8,9
 385 122 385 122 394.5 141.5 c 128,-1,10
 404 161 404 161 421 178 c 1,11,-1
 415 178 l 2,12,13
 358 178 358 178 312.5 124 c 128,-1,14
 267 70 267 70 246 0 c 1,15,-1
 207 0 l 2,16,17
 197 0 197 0 193 3.5 c 128,-1,18
 189 7 189 7 189 15 c 2,19,-1
 189 111 l 2,20,21
 189 129 189 129 190 151 c 128,-1,22
 191 173 191 173 192 185 c 0,23,24
 195 220 195 220 195 258 c 0,25,26
 195 285 195 285 181 299.5 c 128,-1,27
 167 314 167 314 143 314 c 0,28,29
 121 314 121 314 107 300.5 c 128,-1,30
 93 287 93 287 93 265 c 0,31,32
 93 244 93 244 107 231 c 128,-1,33
 121 218 121 218 143 218 c 0,34,35
 164 218 164 218 176 228 c 1,36,37
 180 224 180 224 180 215 c 0,38,39
 180 201 180 201 167 189.5 c 128,-1,40
 154 178 154 178 129 178 c 0,41,42
 95 178 95 178 70 201.5 c 128,-1,43
 45 225 45 225 45 265 c 256,44,45
 45 305 45 305 75 333.5 c 128,-1,46
 105 362 105 362 149 362 c 0,47,48
 197 362 197 362 228.5 333.5 c 128,-1,49
 260 305 260 305 260 258 c 0,50,51
 260 225 260 225 256 169 c 2,52,-1
 254 137 l 1,53,54
 284 179 284 179 327.5 202.5 c 128,-1,55
 371 226 371 226 418 226 c 0,56,57
 448 226 448 226 469 222 c 1,58,59
 489 242 489 242 489 264 c 2,60,-1
 489 379 l 2,61,62
 489 452 489 452 444.5 492 c 128,-1,63
 400 532 400 532 317 532 c 0,64,65
 252 532 252 532 206 506.5 c 128,-1,66
 160 481 160 481 114 435 c 0,67,68
 110 431 110 431 104 431 c 0,69,70
 93 431 93 431 79.5 441.5 c 128,-1,71
 66 452 66 452 56 471 c 1,72,73
 100 522 100 522 169 554 c 128,-1,74
 238 586 238 586 317 586 c 0,75,76
 428 586 428 586 491 533 c 128,-1,77
 554 480 554 480 554 379 c 2,78,-1
 554 254 l 2,79,80
 554 224 554 224 530 202 c 1,81,0
 561 185 561 185 578.5 158.5 c 128,-1,1
527 62 m 128,-1,83
 540 76 540 76 540 100 c 0,84,85
 540 149 540 149 486 168 c 1,86,87
 464 152 464 152 452.5 136.5 c 128,-1,88
 441 121 441 121 441 100 c 0,89,90
 441 77 441 77 453.5 62.5 c 128,-1,91
 466 48 466 48 490 48 c 256,92,82
 514 48 514 48 527 62 c 128,-1,83
EndSplineSet
EndChar

StartChar: uni0E0A
Encoding: 3594 3594 439
Width: 615
GlyphClass: 2
Flags: W
AnchorPoint: "Anchor-12" 515 550 basechar 0
AnchorPoint: "Anchor-11" 515 0 basechar 0
LayerCount: 2
Fore
SplineSet
515 339 m 2,1,-1
 515 163 l 2,2,3
 515 71 515 71 465.5 31 c 128,-1,4
 416 -9 416 -9 321 -9 c 0,5,6
 239 -9 239 -9 185.5 32 c 128,-1,7
 132 73 132 73 132 151 c 2,8,-1
 132 249 l 2,9,10
 132 267 132 267 145 275 c 0,11,12
 201 314 201 314 234.5 355.5 c 128,-1,13
 268 397 268 397 268 451 c 0,14,15
 268 491 268 491 242.5 512 c 128,-1,16
 217 533 217 533 176 533 c 0,17,18
 140 533 140 533 121 515 c 128,-1,19
 102 497 102 497 102 468 c 0,20,21
 102 445 102 445 114 431.5 c 128,-1,22
 126 418 126 418 146 418 c 0,23,24
 167 418 167 418 179 430.5 c 128,-1,25
 191 443 191 443 191 464 c 256,26,27
 191 485 191 485 182 497 c 1,28,29
 188 500 188 500 198 500 c 0,30,31
 212 500 212 500 222 487.5 c 128,-1,32
 232 475 232 475 232 456 c 0,33,34
 232 421 232 421 208 396.5 c 128,-1,35
 184 372 184 372 144 372 c 0,36,37
 105 372 105 372 78.5 398 c 128,-1,38
 52 424 52 424 52 468 c 0,39,40
 52 515 52 515 87.5 547 c 128,-1,41
 123 579 123 579 181 579 c 0,42,43
 241 579 241 579 281.5 545 c 128,-1,44
 322 511 322 511 322 454 c 0,45,46
 322 383 322 383 284 330 c 128,-1,47
 246 277 246 277 197 243 c 1,48,-1
 197 152 l 2,49,50
 197 95 197 95 230.5 69 c 128,-1,51
 264 43 264 43 322 43 c 0,52,53
 391 43 391 43 420.5 68 c 128,-1,54
 450 93 450 93 450 159 c 2,55,-1
 450 339 l 2,56,57
 450 379 450 379 436 401.5 c 128,-1,58
 422 424 422 424 407 424 c 0,59,60
 398 424 398 424 389.5 422.5 c 128,-1,61
 381 421 381 421 371 421 c 0,62,63
 364 421 364 421 356.5 434 c 128,-1,64
 349 447 349 447 349 455 c 256,65,66
 349 463 349 463 355 464 c 0,67,68
 410 478 410 478 439.5 511.5 c 128,-1,69
 469 545 469 545 491 611 c 1,70,71
 512 611 512 611 528 600 c 128,-1,72
 544 589 544 589 544 572 c 0,73,74
 544 544 544 544 514.5 506.5 c 128,-1,75
 485 469 485 469 449 451 c 1,76,0
 515 424 515 424 515 339 c 2,1,-1
EndSplineSet
EndChar

StartChar: uni0E0B
Encoding: 3595 3595 440
Width: 615
GlyphClass: 2
Flags: W
AnchorPoint: "Anchor-12" 526 550 basechar 0
AnchorPoint: "Anchor-11" 526 0 basechar 0
LayerCount: 2
Fore
SplineSet
526 346 m 2,1,-1
 526 159 l 2,2,3
 526 79 526 79 471 35 c 128,-1,4
 416 -9 416 -9 323 -9 c 0,5,6
 237 -9 237 -9 183.5 31.5 c 128,-1,7
 130 72 130 72 130 159 c 2,8,-1
 130 229 l 2,9,10
 130 270 130 270 151 299 c 128,-1,11
 172 328 172 328 212 364 c 0,12,13
 249 398 249 398 267.5 423.5 c 128,-1,14
 286 449 286 449 286 482 c 0,15,16
 286 506 286 506 274.5 518 c 128,-1,17
 263 530 263 530 244 530 c 0,18,19
 208 530 208 530 183 487 c 1,20,21
 168 512 168 512 155 523 c 128,-1,22
 142 534 142 534 120 534 c 256,23,24
 98 534 98 534 84 520 c 128,-1,25
 70 506 70 506 70 482 c 0,26,27
 70 459 70 459 84.5 445.5 c 128,-1,28
 99 432 99 432 120 432 c 0,29,30
 156 432 156 432 174 468 c 1,31,32
 189 463 189 463 189 444 c 0,33,34
 189 420 189 420 169 404 c 128,-1,35
 149 388 149 388 119 388 c 0,36,37
 77 388 77 388 50.5 413.5 c 128,-1,38
 24 439 24 439 24 481 c 0,39,40
 24 527 24 527 51.5 553.5 c 128,-1,41
 79 580 79 580 115 580 c 0,42,43
 141 580 141 580 156.5 570.5 c 128,-1,44
 172 561 172 561 184 541 c 1,45,46
 209 580 209 580 257 580 c 0,47,48
 295 580 295 580 320.5 555.5 c 128,-1,49
 346 531 346 531 346 482 c 0,50,51
 346 438 346 438 325 406.5 c 128,-1,52
 304 375 304 375 264 337 c 0,53,54
 230 305 230 305 212.5 281 c 128,-1,55
 195 257 195 257 195 225 c 2,56,-1
 195 159 l 2,57,58
 195 101 195 101 230 73 c 128,-1,59
 265 45 265 45 324 45 c 0,60,61
 392 45 392 45 426.5 72 c 128,-1,62
 461 99 461 99 461 159 c 2,63,-1
 461 346 l 2,64,65
 461 389 461 389 447.5 410 c 128,-1,66
 434 431 434 431 418 431 c 0,67,68
 412 431 412 431 401.5 428.5 c 128,-1,69
 391 426 391 426 384 426 c 256,70,71
 377 426 377 426 369.5 439 c 128,-1,72
 362 452 362 452 362 460 c 256,73,74
 362 468 362 468 368 469 c 0,75,76
 423 483 423 483 451.5 514.5 c 128,-1,77
 480 546 480 546 502 611 c 1,78,79
 525 609 525 609 540 598.5 c 128,-1,80
 555 588 555 588 555 572 c 0,81,82
 555 545 555 545 526.5 510.5 c 128,-1,83
 498 476 498 476 462 458 c 1,84,0
 526 435 526 435 526 346 c 2,1,-1
EndSplineSet
EndChar

StartChar: uni0E0C
Encoding: 3596 3596 441
Width: 920
GlyphClass: 2
Flags: W
AnchorPoint: "Anchor-12" 823 550 basechar 0
AnchorPoint: "Anchor-11" 823 0 basechar 0
LayerCount: 2
Fore
SplineSet
827 44 m 2,1,-1
 828 20 l 2,2,3
 828 0 828 0 813 0 c 2,4,-1
 760 0 l 1,5,6
 726 78 726 78 668 122 c 128,-1,7
 610 166 610 166 535 174 c 1,8,9
 536 156 536 156 536 110 c 0,10,11
 536 53 536 53 515.5 22 c 128,-1,12
 495 -9 495 -9 449 -9 c 0,13,14
 408 -9 408 -9 381 20 c 128,-1,15
 354 49 354 49 354 98 c 0,16,17
 354 157 354 157 387 188.5 c 128,-1,18
 420 220 420 220 470 227 c 1,19,-1
 470 383 l 2,20,21
 470 459 470 459 425.5 497 c 128,-1,22
 381 535 381 535 298 535 c 0,23,24
 250 535 250 535 208.5 519.5 c 128,-1,25
 167 504 167 504 142.5 482.5 c 128,-1,26
 118 461 118 461 118 443 c 0,27,28
 118 430 118 430 130.5 417.5 c 128,-1,29
 143 405 143 405 159.5 396.5 c 128,-1,30
 176 388 176 388 186 388 c 0,31,32
 199 388 199 388 219 396 c 0,33,34
 237 402 237 402 244 402 c 0,35,36
 250 402 250 402 259 389.5 c 128,-1,37
 268 377 268 377 271.5 365 c 128,-1,38
 275 353 275 353 268 353 c 0,39,40
 206 353 206 353 181.5 320.5 c 128,-1,41
 157 288 157 288 157 221 c 2,42,-1
 157 118 l 2,43,44
 157 80 157 80 173 60.5 c 128,-1,45
 189 41 189 41 216 41 c 0,46,47
 242 41 242 41 255 54.5 c 128,-1,48
 268 68 268 68 268 90 c 256,49,50
 268 112 268 112 255 124.5 c 128,-1,51
 242 137 242 137 220 137 c 0,52,53
 205 137 205 137 181 131 c 1,54,55
 178 137 178 137 178 144 c 0,56,57
 178 159 178 159 190.5 169 c 128,-1,58
 203 179 203 179 227 179 c 0,59,60
 265 179 265 179 290.5 156 c 128,-1,61
 316 133 316 133 316 90 c 256,62,63
 316 47 316 47 286.5 20 c 128,-1,64
 257 -7 257 -7 212 -7 c 0,65,66
 160 -7 160 -7 126 25.5 c 128,-1,67
 92 58 92 58 92 117 c 2,68,-1
 92 221 l 2,69,70
 92 268 92 268 102.5 300 c 128,-1,71
 113 332 113 332 135 353 c 1,72,73
 106 365 106 365 80.5 389 c 128,-1,74
 55 413 55 413 55 440 c 0,75,76
 55 472 55 472 87 506 c 128,-1,77
 119 540 119 540 174.5 563 c 128,-1,78
 230 586 230 586 298 586 c 0,79,80
 401 586 401 586 468 534 c 128,-1,81
 535 482 535 482 535 383 c 2,82,-1
 535 226 l 1,83,84
 601 219 601 219 658 191 c 128,-1,85
 715 163 715 163 758 115 c 1,86,-1
 758 576 l 1,87,-1
 823 576 l 1,88,-1
 823 138 l 2,89,0
 823 86 823 86 827 44 c 2,1,-1
469 58 m 128,-1,91
 474 73 474 73 474 112 c 0,92,93
 474 134 474 134 472 176 c 1,94,95
 444 172 444 172 427 155.5 c 128,-1,96
 410 139 410 139 410 101 c 0,97,98
 410 74 410 74 420 58.5 c 128,-1,99
 430 43 430 43 449 43 c 0,100,90
 464 43 464 43 469 58 c 128,-1,91
EndSplineSet
EndChar

StartChar: uni0E240E45
Encoding: 65537 -1 442
Width: 945
Flags: W
LayerCount: 2
Fore
SplineSet
470 383 m 2,0,1
 470 459 470 459 425.5 497 c 128,-1,2
 381 535 381 535 298 535 c 0,3,4
 250 535 250 535 208.5 519.5 c 128,-1,5
 167 504 167 504 142.5 482.5 c 128,-1,6
 118 461 118 461 118 443 c 0,7,8
 118 430 118 430 130.5 417.5 c 128,-1,9
 143 405 143 405 159.5 396.5 c 128,-1,10
 176 388 176 388 186 388 c 0,11,12
 199 388 199 388 219 396 c 0,13,14
 237 402 237 402 244 402 c 0,15,16
 250 402 250 402 259 389.5 c 128,-1,17
 268 377 268 377 271.5 365 c 128,-1,18
 275 353 275 353 268 353 c 0,19,20
 206 353 206 353 181.5 321 c 128,-1,21
 157 289 157 289 157 221 c 2,22,-1
 157 118 l 2,23,24
 157 80 157 80 173 60.5 c 128,-1,25
 189 41 189 41 216 41 c 0,26,27
 242 41 242 41 255 54.5 c 128,-1,28
 268 68 268 68 268 90 c 256,29,30
 268 112 268 112 255 124.5 c 128,-1,31
 242 137 242 137 220 137 c 0,32,33
 205 137 205 137 181 131 c 1,34,35
 178 137 178 137 178 144 c 0,36,37
 178 159 178 159 190.5 169 c 128,-1,38
 203 179 203 179 227 179 c 0,39,40
 266 179 266 179 291 156 c 128,-1,41
 316 133 316 133 316 90 c 256,42,43
 316 47 316 47 286.5 20 c 128,-1,44
 257 -7 257 -7 212 -7 c 0,45,46
 160 -7 160 -7 126 25.5 c 128,-1,47
 92 58 92 58 92 117 c 2,48,-1
 92 221 l 2,49,50
 92 268 92 268 102.5 300 c 128,-1,51
 113 332 113 332 135 353 c 1,52,53
 106 365 106 365 80.5 389 c 128,-1,54
 55 413 55 413 55 440 c 0,55,56
 55 472 55 472 87 506 c 128,-1,57
 119 540 119 540 174.5 563 c 128,-1,58
 230 586 230 586 298 586 c 0,59,60
 357 586 357 586 405.5 568.5 c 128,-1,61
 454 551 454 551 486 517 c 1,62,63
 558 586 558 586 665 586 c 0,64,65
 754 586 754 586 809.5 535 c 128,-1,66
 865 484 865 484 865 395 c 2,67,-1
 865 -216 l 1,68,-1
 800 -216 l 1,69,-1
 800 395 l 2,70,71
 800 461 800 461 764 496.5 c 128,-1,72
 728 532 728 532 665 532 c 0,73,74
 576 532 576 532 519 468 c 1,75,76
 535 430 535 430 535 383 c 2,77,-1
 535 -220 l 1,78,-1
 470 -220 l 1,79,-1
 470 383 l 2,0,1
EndSplineSet
Ligature2: "'liga' Standard Ligatures lookup 13 subtable" uni0E24 uni0E45
EndChar

StartChar: uni0E260E45
Encoding: 65538 -1 443
Width: 955
Flags: W
LayerCount: 2
Fore
SplineSet
485 366 m 2,0,1
 485 463 485 463 440.5 499 c 128,-1,2
 396 535 396 535 314 535 c 0,3,4
 264 535 264 535 221.5 521 c 128,-1,5
 179 507 179 507 154 486.5 c 128,-1,6
 129 466 129 466 129 448 c 0,7,8
 129 436 129 436 142 422 c 128,-1,9
 155 408 155 408 171 398.5 c 128,-1,10
 187 389 187 389 194 389 c 0,11,12
 200 389 200 389 210.5 393 c 128,-1,13
 221 397 221 397 224 398 c 0,14,15
 246 408 246 408 255 408 c 0,16,17
 262 408 262 408 271 396.5 c 128,-1,18
 280 385 280 385 283.5 373.5 c 128,-1,19
 287 362 287 362 279 362 c 0,20,21
 235 362 235 362 213.5 334.5 c 128,-1,22
 192 307 192 307 192 263 c 0,23,24
 192 239 192 239 195 212 c 128,-1,25
 198 185 198 185 199 177 c 0,26,27
 207 121 207 121 207 89 c 0,28,29
 207 43 207 43 181 17.5 c 128,-1,30
 155 -8 155 -8 107 -8 c 0,31,32
 67 -8 67 -8 41.5 17 c 128,-1,33
 16 42 16 42 16 80 c 0,34,35
 16 117 16 117 38 138 c 128,-1,36
 60 159 60 159 88 159 c 0,37,38
 105 159 105 159 115.5 149.5 c 128,-1,39
 126 140 126 140 126 125 c 1,40,-1
 107 125 l 2,41,42
 85 125 85 125 73.5 113 c 128,-1,43
 62 101 62 101 62 80 c 0,44,45
 62 63 62 63 74 50.5 c 128,-1,46
 86 38 86 38 107 38 c 256,47,48
 128 38 128 38 139.5 52 c 128,-1,49
 151 66 151 66 151 88 c 0,50,51
 151 118 151 118 145 148.5 c 128,-1,52
 139 179 139 179 138 184 c 0,53,54
 137 191 137 191 132 217 c 128,-1,55
 127 243 127 243 127 265 c 0,56,57
 127 321 127 321 157 351 c 1,58,59
 123 362 123 362 94 390.5 c 128,-1,60
 65 419 65 419 65 445 c 0,61,62
 65 473 65 473 98 506.5 c 128,-1,63
 131 540 131 540 188 563 c 128,-1,64
 245 586 245 586 314 586 c 0,65,66
 438 586 438 586 499 520 c 1,67,68
 570 586 570 586 675 586 c 0,69,70
 764 586 764 586 819.5 535 c 128,-1,71
 875 484 875 484 875 395 c 2,72,-1
 875 -216 l 1,73,-1
 810 -216 l 1,74,-1
 810 395 l 2,75,76
 810 461 810 461 774 496.5 c 128,-1,77
 738 532 738 532 675 532 c 0,78,79
 588 532 588 532 531 470 c 1,80,81
 550 426 550 426 550 366 c 2,82,-1
 550 -220 l 1,83,-1
 485 -220 l 1,84,-1
 485 366 l 2,0,1
EndSplineSet
Ligature2: "'liga' Standard Ligatures lookup 13 subtable" uni0E26 uni0E45
EndChar

StartChar: uni0E0D
Encoding: 3597 3597 444
Width: 940
GlyphClass: 2
Flags: W
AnchorPoint: "Anchor-12" 860 550 basechar 0
AnchorPoint: "Anchor-11" 860 -228 basechar 0
LayerCount: 2
Fore
SplineSet
509 32.5 m 128,-1,1
 460 74 460 74 460 170 c 2,2,-1
 460 383 l 2,3,4
 460 461 460 461 418.5 498 c 128,-1,5
 377 535 377 535 293 535 c 0,6,7
 244 535 244 535 204 520 c 128,-1,8
 164 505 164 505 141 483 c 128,-1,9
 118 461 118 461 118 443 c 0,10,11
 118 430 118 430 132.5 417.5 c 128,-1,12
 147 405 147 405 166.5 396.5 c 128,-1,13
 186 388 186 388 196 388 c 0,14,15
 212 388 212 388 232 396 c 0,16,17
 250 402 250 402 256 402 c 0,18,19
 264 402 264 402 274.5 386.5 c 128,-1,20
 285 371 285 371 285 361 c 0,21,22
 285 353 285 353 276 353 c 0,23,24
 157 353 157 353 157 221 c 2,25,-1
 157 118 l 2,26,27
 157 80 157 80 173 60.5 c 128,-1,28
 189 41 189 41 216 41 c 0,29,30
 242 41 242 41 255 54.5 c 128,-1,31
 268 68 268 68 268 90 c 256,32,33
 268 112 268 112 255 124.5 c 128,-1,34
 242 137 242 137 220 137 c 0,35,36
 205 137 205 137 181 131 c 1,37,38
 178 137 178 137 178 144 c 0,39,40
 178 159 178 159 190.5 169 c 128,-1,41
 203 179 203 179 227 179 c 0,42,43
 265 179 265 179 290.5 156 c 128,-1,44
 316 133 316 133 316 90 c 256,45,46
 316 47 316 47 286.5 20 c 128,-1,47
 257 -7 257 -7 212 -7 c 0,48,49
 160 -7 160 -7 126 25.5 c 128,-1,50
 92 58 92 58 92 117 c 2,51,-1
 92 221 l 2,52,53
 92 308 92 308 144 353 c 1,54,55
 112 365 112 365 83.5 389 c 128,-1,56
 55 413 55 413 55 440 c 0,57,58
 55 472 55 472 85 506 c 128,-1,59
 115 540 115 540 169.5 563 c 128,-1,60
 224 586 224 586 293 586 c 0,61,62
 398 586 398 586 461.5 534.5 c 128,-1,63
 525 483 525 483 525 383 c 2,64,-1
 525 172 l 2,65,66
 525 122 525 122 538 95 c 128,-1,67
 551 68 551 68 580 57 c 128,-1,68
 609 46 609 46 660 46 c 0,69,70
 713 46 713 46 741.5 57 c 128,-1,71
 770 68 770 68 782.5 94.5 c 128,-1,72
 795 121 795 121 795 170 c 2,73,-1
 795 576 l 1,74,-1
 860 576 l 1,75,-1
 860 170 l 2,76,77
 860 72 860 72 811 31.5 c 128,-1,78
 762 -9 762 -9 660 -9 c 256,79,0
 558 -9 558 -9 509 32.5 c 128,-1,1
523.5 -202 m 128,-1,81
 482 -176 482 -176 482 -130 c 0,82,83
 482 -92 482 -92 505.5 -70.5 c 128,-1,84
 529 -49 529 -49 563 -49 c 0,85,86
 594 -49 594 -49 613 -68.5 c 128,-1,87
 632 -88 632 -88 632 -113 c 0,88,89
 632 -131 632 -131 623 -142.5 c 128,-1,90
 614 -154 614 -154 600 -154 c 0,91,92
 594 -154 594 -154 586 -151 c 1,93,94
 591 -143 591 -143 591 -127 c 0,95,96
 591 -112 591 -112 583.5 -102.5 c 128,-1,97
 576 -93 576 -93 562 -93 c 0,98,99
 547 -93 547 -93 538 -101 c 128,-1,100
 529 -109 529 -109 529 -124 c 0,101,102
 529 -148 529 -148 555.5 -164 c 128,-1,103
 582 -180 582 -180 630 -180 c 0,104,105
 689 -180 689 -180 719 -159.5 c 128,-1,106
 749 -139 749 -139 763 -89 c 0,107,108
 770 -66 770 -66 792 -66 c 0,109,110
 808 -66 808 -66 835 -78 c 1,111,112
 823 -152 823 -152 766.5 -190 c 128,-1,113
 710 -228 710 -228 630 -228 c 0,114,80
 565 -228 565 -228 523.5 -202 c 128,-1,81
EndSplineSet
Substitution2: "Single Substitution lookup 14 subtable" yoYingthai.less
Substitution2: "'aalt' Access All Alternates lookup 0 subtable" yoYingthai.less
EndChar

StartChar: yoYingthai.less
Encoding: 65539 -1 445
Width: 940
GlyphClass: 2
Flags: W
AnchorPoint: "Anchor-12" 860 550 basechar 0
AnchorPoint: "Anchor-11" 860 0 basechar 0
LayerCount: 2
Fore
SplineSet
509 32.5 m 128,-1,1
 460 74 460 74 460 170 c 2,2,-1
 460 383 l 2,3,4
 460 461 460 461 418.5 498 c 128,-1,5
 377 535 377 535 293 535 c 0,6,7
 244 535 244 535 204 520 c 128,-1,8
 164 505 164 505 141 483 c 128,-1,9
 118 461 118 461 118 443 c 0,10,11
 118 430 118 430 132.5 417.5 c 128,-1,12
 147 405 147 405 166.5 396.5 c 128,-1,13
 186 388 186 388 196 388 c 0,14,15
 212 388 212 388 232 396 c 0,16,17
 250 402 250 402 256 402 c 0,18,19
 264 402 264 402 274.5 386.5 c 128,-1,20
 285 371 285 371 285 361 c 0,21,22
 285 353 285 353 276 353 c 0,23,24
 157 353 157 353 157 221 c 2,25,-1
 157 118 l 2,26,27
 157 80 157 80 173 60.5 c 128,-1,28
 189 41 189 41 216 41 c 0,29,30
 242 41 242 41 255 54.5 c 128,-1,31
 268 68 268 68 268 90 c 256,32,33
 268 112 268 112 255 124.5 c 128,-1,34
 242 137 242 137 220 137 c 0,35,36
 205 137 205 137 181 131 c 1,37,38
 178 137 178 137 178 144 c 0,39,40
 178 159 178 159 190.5 169 c 128,-1,41
 203 179 203 179 227 179 c 0,42,43
 265 179 265 179 290.5 156 c 128,-1,44
 316 133 316 133 316 90 c 256,45,46
 316 47 316 47 286.5 20 c 128,-1,47
 257 -7 257 -7 212 -7 c 0,48,49
 160 -7 160 -7 126 25.5 c 128,-1,50
 92 58 92 58 92 117 c 2,51,-1
 92 221 l 2,52,53
 92 308 92 308 144 353 c 1,54,55
 112 365 112 365 83.5 389 c 128,-1,56
 55 413 55 413 55 440 c 0,57,58
 55 472 55 472 85 506 c 128,-1,59
 115 540 115 540 169.5 563 c 128,-1,60
 224 586 224 586 293 586 c 0,61,62
 398 586 398 586 461.5 534.5 c 128,-1,63
 525 483 525 483 525 383 c 2,64,-1
 525 172 l 2,65,66
 525 122 525 122 538 95 c 128,-1,67
 551 68 551 68 580 57 c 128,-1,68
 609 46 609 46 660 46 c 0,69,70
 713 46 713 46 741.5 57 c 128,-1,71
 770 68 770 68 782.5 94.5 c 128,-1,72
 795 121 795 121 795 170 c 2,73,-1
 795 576 l 1,74,-1
 860 576 l 1,75,-1
 860 170 l 2,76,77
 860 72 860 72 811 31.5 c 128,-1,78
 762 -9 762 -9 660 -9 c 256,79,0
 558 -9 558 -9 509 32.5 c 128,-1,1
EndSplineSet
EndChar

StartChar: uni0E0E
Encoding: 3598 3598 446
Width: 630
GlyphClass: 2
Flags: W
AnchorPoint: "Anchor-12" 550 550 basechar 0
AnchorPoint: "Anchor-11" 550 -245 basechar 0
LayerCount: 2
Fore
SplineSet
484 534.5 m 128,-1,1
 550 483 550 483 550 366 c 2,2,-1
 550 -245 l 1,3,-1
 484 -245 l 1,4,5
 465 -219 465 -219 436.5 -193 c 128,-1,6
 408 -167 408 -167 375 -148 c 1,7,8
 350 -194 350 -194 305 -221.5 c 128,-1,9
 260 -249 260 -249 208 -249 c 256,10,11
 156 -249 156 -249 121.5 -223 c 128,-1,12
 87 -197 87 -197 87 -158 c 0,13,14
 87 -132 87 -132 107 -109 c 128,-1,15
 127 -86 127 -86 161 -72.5 c 128,-1,16
 195 -59 195 -59 237 -59 c 0,17,18
 285 -59 285 -59 336 -75 c 1,19,20
 343 -45 343 -45 344 -13 c 1,21,22
 372 -13 372 -13 385.5 -24.5 c 128,-1,23
 399 -36 399 -36 399 -53 c 0,24,25
 399 -76 399 -76 394 -99 c 1,26,27
 448 -128 448 -128 485 -170 c 1,28,-1
 485 366 l 2,29,30
 485 463 485 463 440.5 499 c 128,-1,31
 396 535 396 535 314 535 c 0,32,33
 264 535 264 535 221.5 521 c 128,-1,34
 179 507 179 507 154 486.5 c 128,-1,35
 129 466 129 466 129 448 c 0,36,37
 129 436 129 436 142 422 c 128,-1,38
 155 408 155 408 171 398.5 c 128,-1,39
 187 389 187 389 194 389 c 0,40,41
 200 389 200 389 210.5 393 c 128,-1,42
 221 397 221 397 224 398 c 0,43,44
 246 408 246 408 255 408 c 0,45,46
 262 408 262 408 271 396.5 c 128,-1,47
 280 385 280 385 283.5 373.5 c 128,-1,48
 287 362 287 362 279 362 c 0,49,50
 235 362 235 362 213.5 335 c 128,-1,51
 192 308 192 308 192 263 c 0,52,53
 192 239 192 239 195 212 c 128,-1,54
 198 185 198 185 199 177 c 0,55,56
 207 121 207 121 207 89 c 0,57,58
 207 43 207 43 181 17.5 c 128,-1,59
 155 -8 155 -8 107 -8 c 0,60,61
 67 -8 67 -8 41.5 17 c 128,-1,62
 16 42 16 42 16 80 c 0,63,64
 16 117 16 117 38 138 c 128,-1,65
 60 159 60 159 88 159 c 0,66,67
 105 159 105 159 115.5 149.5 c 128,-1,68
 126 140 126 140 126 125 c 1,69,-1
 107 125 l 2,70,71
 85 125 85 125 73.5 113 c 128,-1,72
 62 101 62 101 62 80 c 0,73,74
 62 63 62 63 74 50.5 c 128,-1,75
 86 38 86 38 107 38 c 256,76,77
 128 38 128 38 139.5 52 c 128,-1,78
 151 66 151 66 151 88 c 0,79,80
 151 118 151 118 145 148.5 c 128,-1,81
 139 179 139 179 138 184 c 0,82,83
 137 191 137 191 132 217 c 128,-1,84
 127 243 127 243 127 265 c 0,85,86
 127 321 127 321 157 351 c 1,87,88
 123 362 123 362 94 390.5 c 128,-1,89
 65 419 65 419 65 445 c 0,90,91
 65 473 65 473 98 506.5 c 128,-1,92
 131 540 131 540 188 563 c 128,-1,93
 245 586 245 586 314 586 c 0,94,0
 418 586 418 586 484 534.5 c 128,-1,1
273.5 -180 m 128,-1,96
 303 -160 303 -160 321 -121 c 1,97,98
 278 -106 278 -106 243 -106 c 0,99,100
 198 -106 198 -106 172 -122 c 128,-1,101
 146 -138 146 -138 146 -159 c 0,102,103
 146 -177 146 -177 163 -188.5 c 128,-1,104
 180 -200 180 -200 207 -200 c 0,105,95
 244 -200 244 -200 273.5 -180 c 128,-1,96
EndSplineSet
Substitution2: "Single Substitution lookup 14 subtable" doChadathai.short
Substitution2: "'aalt' Access All Alternates lookup 0 subtable" doChadathai.short
EndChar

StartChar: doChadathai.short
Encoding: 65540 -1 447
Width: 630
GlyphClass: 2
Flags: W
AnchorPoint: "Anchor-12" 550 550 basechar 0
AnchorPoint: "Anchor-11" 550 -195 basechar 0
LayerCount: 2
Fore
SplineSet
484 534.5 m 128,-1,1
 550 483 550 483 550 366 c 2,2,-1
 550 -195 l 1,3,-1
 487 -195 l 1,4,5
 468 -169 468 -169 439 -143.5 c 128,-1,6
 410 -118 410 -118 376 -98 c 1,7,8
 352 -143 352 -143 308 -171 c 128,-1,9
 264 -199 264 -199 214 -199 c 0,10,11
 161 -199 161 -199 129 -174.5 c 128,-1,12
 97 -150 97 -150 97 -110 c 0,13,14
 97 -66 97 -66 135.5 -37.5 c 128,-1,15
 174 -9 174 -9 237 -9 c 0,16,17
 287 -9 287 -9 345 -31 c 1,18,19
 352 -6 352 -6 354 27 c 1,20,21
 375 27 375 27 387 17.5 c 128,-1,22
 399 8 399 8 399 -8 c 0,23,24
 399 -32 399 -32 393 -54 c 1,25,26
 448 -85 448 -85 485 -127 c 1,27,-1
 485 366 l 2,28,29
 485 463 485 463 440.5 499 c 128,-1,30
 396 535 396 535 314 535 c 0,31,32
 264 535 264 535 221.5 521 c 128,-1,33
 179 507 179 507 154 486.5 c 128,-1,34
 129 466 129 466 129 448 c 0,35,36
 129 436 129 436 142 422 c 128,-1,37
 155 408 155 408 171 398.5 c 128,-1,38
 187 389 187 389 194 389 c 0,39,40
 200 389 200 389 210.5 393 c 128,-1,41
 221 397 221 397 224 398 c 0,42,43
 246 408 246 408 255 408 c 0,44,45
 262 408 262 408 271 396.5 c 128,-1,46
 280 385 280 385 283.5 373.5 c 128,-1,47
 287 362 287 362 279 362 c 0,48,49
 235 362 235 362 213.5 335 c 128,-1,50
 192 308 192 308 192 263 c 0,51,52
 192 239 192 239 195 212 c 128,-1,53
 198 185 198 185 199 177 c 0,54,55
 207 121 207 121 207 89 c 0,56,57
 207 43 207 43 181 17.5 c 128,-1,58
 155 -8 155 -8 107 -8 c 0,59,60
 67 -8 67 -8 41.5 17 c 128,-1,61
 16 42 16 42 16 80 c 0,62,63
 16 117 16 117 38 138 c 128,-1,64
 60 159 60 159 88 159 c 0,65,66
 105 159 105 159 115.5 149.5 c 128,-1,67
 126 140 126 140 126 125 c 1,68,-1
 107 125 l 2,69,70
 85 125 85 125 73.5 113 c 128,-1,71
 62 101 62 101 62 80 c 0,72,73
 62 63 62 63 74 50.5 c 128,-1,74
 86 38 86 38 107 38 c 256,75,76
 128 38 128 38 139.5 52 c 128,-1,77
 151 66 151 66 151 88 c 0,78,79
 151 118 151 118 145 148.5 c 128,-1,80
 139 179 139 179 138 184 c 0,81,82
 137 191 137 191 132 217 c 128,-1,83
 127 243 127 243 127 265 c 0,84,85
 127 321 127 321 157 351 c 1,86,87
 123 362 123 362 94 390.5 c 128,-1,88
 65 419 65 419 65 445 c 0,89,90
 65 473 65 473 98 506.5 c 128,-1,91
 131 540 131 540 188 563 c 128,-1,92
 245 586 245 586 314 586 c 0,93,0
 418 586 418 586 484 534.5 c 128,-1,1
282 -131.5 m 128,-1,95
 312 -112 312 -112 330 -75 c 1,96,97
 284 -56 284 -56 243 -56 c 0,98,99
 195 -56 195 -56 173 -71.5 c 128,-1,100
 151 -87 151 -87 151 -111 c 0,101,102
 151 -151 151 -151 213 -151 c 0,103,94
 252 -151 252 -151 282 -131.5 c 128,-1,95
EndSplineSet
EndChar

StartChar: uni0E0F
Encoding: 3599 3599 448
Width: 630
GlyphClass: 2
Flags: W
AnchorPoint: "Anchor-12" 550 550 basechar 0
AnchorPoint: "Anchor-11" 550 -250 basechar 0
LayerCount: 2
Fore
SplineSet
484 534.5 m 128,-1,1
 550 483 550 483 550 366 c 2,2,-1
 550 -250 l 1,3,-1
 482 -250 l 1,4,-1
 408 -195 l 1,5,-1
 330 -247 l 1,6,-1
 277 -197 l 1,7,8
 255 -223 255 -223 226 -238 c 128,-1,9
 197 -253 197 -253 163 -253 c 0,10,11
 123 -253 123 -253 95 -230 c 128,-1,12
 67 -207 67 -207 67 -170 c 0,13,14
 67 -130 67 -130 98 -107 c 128,-1,15
 129 -84 129 -84 168 -84 c 0,16,17
 215 -84 215 -84 260 -119 c 1,18,19
 273 -77 273 -77 273 -36 c 1,20,21
 296 -36 296 -36 310.5 -45.5 c 128,-1,22
 325 -55 325 -55 325 -75 c 0,23,24
 325 -116 325 -116 303 -158 c 1,25,-1
 335 -187 l 1,26,-1
 409 -139 l 1,27,-1
 487 -195 l 1,28,-1
 485 366 l 2,29,30
 485 463 485 463 440.5 499 c 128,-1,31
 396 535 396 535 314 535 c 0,32,33
 264 535 264 535 221.5 521 c 128,-1,34
 179 507 179 507 154 486.5 c 128,-1,35
 129 466 129 466 129 448 c 0,36,37
 129 436 129 436 142 422 c 128,-1,38
 155 408 155 408 171 398.5 c 128,-1,39
 187 389 187 389 194 389 c 0,40,41
 200 389 200 389 210.5 393 c 128,-1,42
 221 397 221 397 224 398 c 0,43,44
 246 408 246 408 255 408 c 0,45,46
 262 408 262 408 271 396.5 c 128,-1,47
 280 385 280 385 283.5 373.5 c 128,-1,48
 287 362 287 362 279 362 c 0,49,50
 235 362 235 362 213.5 335 c 128,-1,51
 192 308 192 308 192 263 c 0,52,53
 192 239 192 239 195 212 c 128,-1,54
 198 185 198 185 199 177 c 0,55,56
 207 121 207 121 207 89 c 0,57,58
 207 43 207 43 181 17.5 c 128,-1,59
 155 -8 155 -8 107 -8 c 0,60,61
 67 -8 67 -8 41.5 17 c 128,-1,62
 16 42 16 42 16 80 c 0,63,64
 16 117 16 117 38 138 c 128,-1,65
 60 159 60 159 88 159 c 0,66,67
 105 159 105 159 115.5 149.5 c 128,-1,68
 126 140 126 140 126 125 c 1,69,-1
 107 125 l 2,70,71
 85 125 85 125 73.5 113 c 128,-1,72
 62 101 62 101 62 80 c 0,73,74
 62 63 62 63 74 50.5 c 128,-1,75
 86 38 86 38 107 38 c 256,76,77
 128 38 128 38 139.5 52 c 128,-1,78
 151 66 151 66 151 88 c 0,79,80
 151 118 151 118 145 148.5 c 128,-1,81
 139 179 139 179 138 184 c 0,82,83
 137 191 137 191 132 217 c 128,-1,84
 127 243 127 243 127 265 c 0,85,86
 127 321 127 321 157 351 c 1,87,88
 123 362 123 362 94 390.5 c 128,-1,89
 65 419 65 419 65 445 c 0,90,91
 65 473 65 473 98 506.5 c 128,-1,92
 131 540 131 540 188 563 c 128,-1,93
 245 586 245 586 314 586 c 0,94,0
 418 586 418 586 484 534.5 c 128,-1,1
240 -162 m 1,96,97
 220 -145 220 -145 204.5 -136.5 c 128,-1,98
 189 -128 189 -128 171 -128 c 0,99,100
 147 -128 147 -128 130.5 -138 c 128,-1,101
 114 -148 114 -148 114 -168 c 0,102,103
 114 -187 114 -187 129.5 -198 c 128,-1,104
 145 -209 145 -209 168 -209 c 0,105,95
 210 -209 210 -209 240 -162 c 1,96,97
EndSplineSet
Substitution2: "Single Substitution lookup 14 subtable" toPatakthai.short
Substitution2: "'aalt' Access All Alternates lookup 0 subtable" toPatakthai.short
EndChar

StartChar: toPatakthai.short
Encoding: 65541 -1 449
Width: 630
GlyphClass: 2
Flags: W
AnchorPoint: "Anchor-12" 550 550 basechar 0
AnchorPoint: "Anchor-11" 550 -197 basechar 0
LayerCount: 2
Fore
SplineSet
484 534.5 m 128,-1,1
 550 483 550 483 550 366 c 2,2,-1
 550 -197 l 1,3,-1
 482 -197 l 1,4,-1
 408 -142 l 1,5,-1
 330 -194 l 1,6,-1
 277 -144 l 1,7,8
 255 -170 255 -170 226 -185 c 128,-1,9
 197 -200 197 -200 163 -200 c 0,10,11
 123 -200 123 -200 95 -177 c 128,-1,12
 67 -154 67 -154 67 -117 c 0,13,14
 67 -77 67 -77 98 -54 c 128,-1,15
 129 -31 129 -31 168 -31 c 0,16,17
 215 -31 215 -31 260 -66 c 1,18,19
 273 -24 273 -24 273 17 c 1,20,21
 296 17 296 17 310.5 7.5 c 128,-1,22
 325 -2 325 -2 325 -22 c 0,23,24
 325 -63 325 -63 303 -105 c 1,25,-1
 335 -134 l 1,26,-1
 409 -86 l 1,27,-1
 487 -142 l 1,28,-1
 485 366 l 2,29,30
 484 463 484 463 440 499 c 128,-1,31
 396 535 396 535 314 535 c 0,32,33
 264 535 264 535 221.5 521 c 128,-1,34
 179 507 179 507 154 486.5 c 128,-1,35
 129 466 129 466 129 448 c 0,36,37
 129 436 129 436 142 422 c 128,-1,38
 155 408 155 408 171 398.5 c 128,-1,39
 187 389 187 389 194 389 c 0,40,41
 200 389 200 389 210.5 393 c 128,-1,42
 221 397 221 397 224 398 c 0,43,44
 246 408 246 408 255 408 c 0,45,46
 262 408 262 408 271 396.5 c 128,-1,47
 280 385 280 385 283.5 373.5 c 128,-1,48
 287 362 287 362 279 362 c 0,49,50
 235 362 235 362 213.5 335 c 128,-1,51
 192 308 192 308 192 263 c 0,52,53
 192 239 192 239 195 212 c 128,-1,54
 198 185 198 185 199 177 c 0,55,56
 207 121 207 121 207 89 c 0,57,58
 207 43 207 43 181 17.5 c 128,-1,59
 155 -8 155 -8 107 -8 c 0,60,61
 67 -8 67 -8 41.5 17 c 128,-1,62
 16 42 16 42 16 80 c 0,63,64
 16 117 16 117 38 138 c 128,-1,65
 60 159 60 159 88 159 c 0,66,67
 105 159 105 159 115.5 149.5 c 128,-1,68
 126 140 126 140 126 125 c 1,69,-1
 107 125 l 2,70,71
 85 125 85 125 73.5 113 c 128,-1,72
 62 101 62 101 62 80 c 0,73,74
 62 63 62 63 74 50.5 c 128,-1,75
 86 38 86 38 107 38 c 256,76,77
 128 38 128 38 139.5 52 c 128,-1,78
 151 66 151 66 151 88 c 0,79,80
 151 118 151 118 145 148.5 c 128,-1,81
 139 179 139 179 138 184 c 0,82,83
 137 191 137 191 132 217 c 128,-1,84
 127 243 127 243 127 265 c 0,85,86
 127 321 127 321 157 351 c 1,87,88
 123 362 123 362 94 390.5 c 128,-1,89
 65 419 65 419 65 445 c 0,90,91
 65 473 65 473 98 506.5 c 128,-1,92
 131 540 131 540 188 563 c 128,-1,93
 245 586 245 586 314 586 c 0,94,0
 418 586 418 586 484 534.5 c 128,-1,1
240 -109 m 1,96,97
 220 -92 220 -92 204.5 -83.5 c 128,-1,98
 189 -75 189 -75 171 -75 c 0,99,100
 147 -75 147 -75 130.5 -85 c 128,-1,101
 114 -95 114 -95 114 -115 c 0,102,103
 114 -134 114 -134 129.5 -145 c 128,-1,104
 145 -156 145 -156 168 -156 c 0,105,95
 210 -156 210 -156 240 -109 c 1,96,97
EndSplineSet
EndChar

StartChar: uni0E10
Encoding: 3600 3600 450
Width: 589
GlyphClass: 2
Flags: W
AnchorPoint: "Anchor-12" 509 550 basechar 0
AnchorPoint: "Anchor-11" 509 -285 basechar 0
LayerCount: 2
Fore
SplineSet
524 549 m 0,1,2
 524 526 524 526 492 515.5 c 128,-1,3
 460 505 460 505 410 505 c 0,4,5
 391 505 391 505 333 515 c 0,6,7
 307 520 307 520 277.5 524 c 128,-1,8
 248 528 248 528 223 528 c 0,9,10
 141 528 141 528 141 452 c 0,11,12
 141 420 141 420 153 405 c 1,13,-1
 179 407 l 2,14,15
 256 416 256 416 321 414 c 0,16,17
 404 411 404 411 450.5 369 c 128,-1,18
 497 327 497 327 497 253 c 0,19,20
 497 226 497 226 492.5 192 c 128,-1,21
 488 158 488 158 483 124 c 0,22,23
 471 46 471 46 469 18 c 0,24,25
 468 6 468 6 439.5 -1.5 c 128,-1,26
 411 -9 411 -9 371 -9 c 0,27,28
 330 -9 330 -9 299 -0.5 c 128,-1,29
 268 8 268 8 268 19 c 0,30,31
 267 73 267 73 265 108.5 c 128,-1,32
 263 144 263 144 258 178 c 0,33,34
 252 214 252 214 240.5 227 c 128,-1,35
 229 240 229 240 207 240 c 0,36,37
 188 240 188 240 176 228.5 c 128,-1,38
 164 217 164 217 164 198 c 256,39,40
 164 179 164 179 175 168 c 128,-1,41
 186 157 186 157 207 157 c 0,42,43
 226 157 226 157 241 168 c 1,44,45
 246 161 246 161 246 155 c 0,46,47
 246 141 246 141 231.5 130 c 128,-1,48
 217 119 217 119 190 119 c 0,49,50
 156 119 156 119 134 141 c 128,-1,51
 112 163 112 163 112 198 c 0,52,53
 112 237 112 237 138.5 261.5 c 128,-1,54
 165 286 165 286 207 286 c 0,55,56
 300 286 300 286 315 190 c 0,57,58
 325 122 325 122 327 49 c 0,59,60
 327 44 327 44 339.5 40.5 c 128,-1,61
 352 37 352 37 369 37 c 0,62,63
 387 37 387 37 398 40.5 c 128,-1,64
 409 44 409 44 410 49 c 2,65,-1
 415 82 l 2,66,67
 421 123 421 123 426.5 167 c 128,-1,68
 432 211 432 211 432 244 c 0,69,70
 432 302 432 302 399.5 331 c 128,-1,71
 367 360 367 360 290 360 c 0,72,73
 244 360 244 360 158 351 c 2,74,-1
 116 347 l 1,75,76
 76 391 76 391 76 450 c 0,77,78
 76 511 76 511 118.5 546.5 c 128,-1,79
 161 582 161 582 223 582 c 0,80,81
 246 582 246 582 273.5 578.5 c 128,-1,82
 301 575 301 575 325 571 c 0,83,84
 377 563 377 563 393 563 c 0,85,86
 470 563 470 563 509 589 c 1,87,0
 524 568 524 568 524 549 c 0,1,2
483 -78.5 m 128,-1,89
 504 -99 504 -99 504 -133 c 0,90,91
 504 -148 504 -148 499.5 -165 c 128,-1,92
 495 -182 495 -182 490 -198 c 0,93,94
 472 -246 472 -246 472 -282 c 1,95,-1
 408 -282 l 1,96,-1
 354 -249 l 1,97,-1
 292 -285 l 1,98,-1
 248 -239 l 1,99,100
 230 -260 230 -260 206 -272.5 c 128,-1,101
 182 -285 182 -285 156 -285 c 0,102,103
 115 -285 115 -285 92 -261 c 128,-1,104
 69 -237 69 -237 69 -207 c 0,105,106
 69 -170 69 -170 93.5 -149 c 128,-1,107
 118 -128 118 -128 155 -128 c 0,108,109
 178 -128 178 -128 197.5 -139.5 c 128,-1,110
 217 -151 217 -151 236 -169 c 1,111,112
 243 -142 243 -142 243 -104 c 1,113,114
 268 -104 268 -104 277.5 -109 c 128,-1,115
 287 -114 287 -114 287 -129 c 0,116,117
 287 -170 287 -170 270 -204 c 1,118,-1
 298 -233 l 1,119,-1
 352 -203 l 1,120,-1
 423 -240 l 1,121,122
 423 -218 423 -218 440 -186 c 0,123,124
 448 -170 448 -170 452 -159 c 128,-1,125
 456 -148 456 -148 456 -135 c 0,126,127
 456 -118 456 -118 447 -108 c 128,-1,128
 438 -98 438 -98 422 -98 c 0,129,130
 407 -98 407 -98 397.5 -107 c 128,-1,131
 388 -116 388 -116 388 -130 c 256,132,133
 388 -144 388 -144 397 -154.5 c 128,-1,134
 406 -165 406 -165 423 -168 c 1,135,136
 422 -174 422 -174 415 -177.5 c 128,-1,137
 408 -181 408 -181 397 -181 c 0,138,139
 378 -181 378 -181 363.5 -166.5 c 128,-1,140
 349 -152 349 -152 349 -130 c 0,141,142
 349 -97 349 -97 370.5 -77.5 c 128,-1,143
 392 -58 392 -58 424 -58 c 0,144,88
 462 -58 462 -58 483 -78.5 c 128,-1,89
220 -209 m 1,146,147
 182 -171 182 -171 156 -171 c 0,148,149
 140 -171 140 -171 127.5 -180 c 128,-1,150
 115 -189 115 -189 115 -205 c 0,151,152
 115 -223 115 -223 127 -232 c 128,-1,153
 139 -241 139 -241 158 -241 c 0,154,145
 198 -241 198 -241 220 -209 c 1,146,147
EndSplineSet
Substitution2: "Single Substitution lookup 14 subtable" thoThanthai.less
Substitution2: "'aalt' Access All Alternates lookup 0 subtable" thoThanthai.less
EndChar

StartChar: thoThanthai.less
Encoding: 65542 -1 451
Width: 575
GlyphClass: 2
Flags: W
AnchorPoint: "Anchor-12" 509 550 basechar 0
AnchorPoint: "Anchor-11" 485 0 basechar 0
LayerCount: 2
Fore
SplineSet
299 -0.5 m 128,-1,1
 268 8 268 8 268 19 c 0,2,3
 267 73 267 73 265 108.5 c 128,-1,4
 263 144 263 144 258 178 c 0,5,6
 252 214 252 214 240.5 227 c 128,-1,7
 229 240 229 240 207 240 c 0,8,9
 188 240 188 240 176 228.5 c 128,-1,10
 164 217 164 217 164 198 c 256,11,12
 164 179 164 179 175 168 c 128,-1,13
 186 157 186 157 207 157 c 0,14,15
 226 157 226 157 241 168 c 1,16,17
 246 161 246 161 246 155 c 0,18,19
 246 141 246 141 231.5 130 c 128,-1,20
 217 119 217 119 190 119 c 0,21,22
 156 119 156 119 134 141 c 128,-1,23
 112 163 112 163 112 198 c 0,24,25
 112 237 112 237 138.5 261.5 c 128,-1,26
 165 286 165 286 207 286 c 0,27,28
 300 286 300 286 315 190 c 0,29,30
 325 122 325 122 327 49 c 0,31,32
 327 44 327 44 339.5 40.5 c 128,-1,33
 352 37 352 37 369 37 c 0,34,35
 387 37 387 37 398 40.5 c 128,-1,36
 409 44 409 44 410 49 c 2,37,-1
 415 82 l 2,38,39
 421 123 421 123 426.5 167 c 128,-1,40
 432 211 432 211 432 244 c 0,41,42
 432 302 432 302 399.5 331 c 128,-1,43
 367 360 367 360 290 360 c 0,44,45
 244 360 244 360 158 351 c 2,46,-1
 116 347 l 1,47,48
 76 391 76 391 76 450 c 0,49,50
 76 511 76 511 118.5 546.5 c 128,-1,51
 161 582 161 582 223 582 c 0,52,53
 246 582 246 582 273.5 578.5 c 128,-1,54
 301 575 301 575 325 571 c 0,55,56
 377 563 377 563 393 563 c 0,57,58
 470 563 470 563 509 589 c 1,59,60
 524 568 524 568 524 549 c 0,61,62
 524 526 524 526 492 515.5 c 128,-1,63
 460 505 460 505 410 505 c 0,64,65
 391 505 391 505 333 515 c 0,66,67
 307 520 307 520 277.5 524 c 128,-1,68
 248 528 248 528 223 528 c 0,69,70
 141 528 141 528 141 452 c 0,71,72
 141 420 141 420 153 405 c 1,73,-1
 179 407 l 2,74,75
 256 416 256 416 321 414 c 0,76,77
 404 411 404 411 450.5 369 c 128,-1,78
 497 327 497 327 497 253 c 0,79,80
 497 226 497 226 492.5 192 c 128,-1,81
 488 158 488 158 483 124 c 0,82,83
 471 46 471 46 469 18 c 0,84,85
 468 6 468 6 439.5 -1.5 c 128,-1,86
 411 -9 411 -9 371 -9 c 0,87,0
 330 -9 330 -9 299 -0.5 c 128,-1,1
EndSplineSet
EndChar

StartChar: uni0E11
Encoding: 3601 3601 452
Width: 655
GlyphClass: 2
Flags: W
AnchorPoint: "Anchor-12" 575 550 basechar 0
AnchorPoint: "Anchor-11" 575 0 basechar 0
LayerCount: 2
Fore
SplineSet
542 545.5 m 128,-1,1
 575 511 575 511 575 445 c 2,2,-1
 575 0 l 1,3,-1
 510 0 l 1,4,-1
 510 439 l 2,5,6
 510 488 510 488 496.5 507 c 128,-1,7
 483 526 483 526 452 526 c 0,8,9
 426 526 426 526 404.5 513 c 128,-1,10
 383 500 383 500 354.5 466.5 c 128,-1,11
 326 433 326 433 278 365 c 0,12,13
 247 321 247 321 231 290 c 128,-1,14
 215 259 215 259 215 222 c 2,15,-1
 214 0 l 1,16,-1
 165 0 l 2,17,18
 145 0 145 0 145 20 c 0,19,20
 145 24 145 24 147 44 c 0,21,22
 150 86 150 86 150 106 c 2,23,-1
 150 226 l 2,24,25
 150 261 150 261 161 290 c 128,-1,26
 172 319 172 319 185 338 c 128,-1,27
 198 357 198 357 226 393 c 0,28,29
 243 417 243 417 254.5 442.5 c 128,-1,30
 266 468 266 468 266 489 c 0,31,32
 266 508 266 508 258 519 c 128,-1,33
 250 530 250 530 236 530 c 0,34,35
 206 530 206 530 181 487 c 1,36,37
 165 513 165 513 153 523.5 c 128,-1,38
 141 534 141 534 120 534 c 0,39,40
 98 534 98 534 85 520 c 128,-1,41
 72 506 72 506 72 482 c 0,42,43
 72 459 72 459 85.5 445.5 c 128,-1,44
 99 432 99 432 120 432 c 0,45,46
 138 432 138 432 151.5 442.5 c 128,-1,47
 165 453 165 453 172 468 c 1,48,49
 187 460 187 460 187 445 c 0,50,51
 187 423 187 423 166.5 405.5 c 128,-1,52
 146 388 146 388 119 388 c 0,53,54
 77 388 77 388 51.5 413.5 c 128,-1,55
 26 439 26 439 26 481 c 0,56,57
 26 527 26 527 52.5 553.5 c 128,-1,58
 79 580 79 580 115 580 c 0,59,60
 141 580 141 580 155.5 570.5 c 128,-1,61
 170 561 170 561 182 541 c 1,62,63
 193 559 193 559 211 569.5 c 128,-1,64
 229 580 229 580 251 580 c 0,65,66
 280 580 280 580 299 562 c 128,-1,67
 318 544 318 544 324 512 c 1,68,69
 348 542 348 542 381 561 c 128,-1,70
 414 580 414 580 449 580 c 0,71,0
 509 580 509 580 542 545.5 c 128,-1,1
EndSplineSet
EndChar

StartChar: uni0E12
Encoding: 3602 3602 453
Width: 935
GlyphClass: 2
Flags: W
AnchorPoint: "Anchor-12" 840 550 basechar 0
AnchorPoint: "Anchor-11" 840 0 basechar 0
LayerCount: 2
Fore
SplineSet
841.5 50 m 128,-1,1
 843 27 843 27 843 20 c 0,2,3
 843 0 843 0 822 0 c 2,4,-1
 777 0 l 1,5,6
 743 78 743 78 686 119.5 c 128,-1,7
 629 161 629 161 554 170 c 1,8,-1
 554 110 l 2,9,10
 554 -9 554 -9 464 -9 c 0,11,12
 423 -9 423 -9 396 20 c 128,-1,13
 369 49 369 49 369 98 c 0,14,15
 369 152 369 152 404 183 c 128,-1,16
 439 214 439 214 488 221 c 1,17,-1
 488 370 l 2,18,19
 488 442 488 442 470 475.5 c 128,-1,20
 452 509 452 509 405 526 c 1,21,22
 381 504 381 504 322 466 c 1,23,24
 263 502 263 502 236 526 c 1,25,26
 188 506 188 506 160.5 460.5 c 128,-1,27
 133 415 133 415 133 342 c 0,28,29
 133 224 133 224 199 160 c 1,30,31
 222 184 222 184 291 234 c 2,32,-1
 316 253 l 2,33,34
 334 268 334 268 344 284 c 128,-1,35
 354 300 354 300 354 315 c 0,36,37
 354 339 354 339 341 351.5 c 128,-1,38
 328 364 328 364 307 364 c 0,39,40
 285 364 285 364 271.5 352.5 c 128,-1,41
 258 341 258 341 258 320 c 0,42,43
 258 303 258 303 265 290.5 c 128,-1,44
 272 278 272 278 288 265 c 1,45,46
 277 253 277 253 259 253 c 0,47,48
 238 253 238 253 224 273.5 c 128,-1,49
 210 294 210 294 210 319 c 0,50,51
 210 360 210 360 238 386 c 128,-1,52
 266 412 266 412 309 412 c 0,53,54
 354 412 354 412 380 385 c 128,-1,55
 406 358 406 358 406 322 c 0,56,57
 406 285 406 285 392 263 c 128,-1,58
 378 241 378 241 346 216 c 2,59,-1
 326 200 l 2,60,61
 278 163 278 163 249.5 137 c 128,-1,62
 221 111 221 111 201.5 76.5 c 128,-1,63
 182 42 182 42 182 0 c 1,64,-1
 125 0 l 2,65,66
 120 0 120 0 117 2 c 128,-1,67
 114 4 114 4 114 11 c 0,68,69
 114 32 114 32 122 49.5 c 128,-1,70
 130 67 130 67 145 92 c 0,71,72
 157 109 157 109 157 114 c 0,73,74
 157 116 157 116 145 130 c 0,75,76
 112 165 112 165 88.5 212.5 c 128,-1,77
 65 260 65 260 65 342 c 0,78,79
 65 433 65 433 110 494.5 c 128,-1,80
 155 556 155 556 235 586 c 1,81,82
 286 554 286 554 322 520 c 1,83,84
 354 551 354 551 406 586 c 1,85,86
 485 561 485 561 519 510.5 c 128,-1,87
 553 460 553 460 553 370 c 2,88,-1
 553 221 l 1,89,90
 619 214 619 214 676 185.5 c 128,-1,91
 733 157 733 157 775 109 c 1,92,-1
 775 576 l 1,93,-1
 840 576 l 1,94,-1
 840 126 l 2,95,0
 840 73 840 73 841.5 50 c 128,-1,1
486 58.5 m 128,-1,97
 492 74 492 74 492 112 c 0,98,99
 492 132 492 132 490 170 c 1,100,101
 462 166 462 166 443.5 149.5 c 128,-1,102
 425 133 425 133 425 101 c 0,103,104
 425 74 425 74 435 58.5 c 128,-1,105
 445 43 445 43 464 43 c 0,106,96
 480 43 480 43 486 58.5 c 128,-1,97
EndSplineSet
EndChar

StartChar: uni0E13
Encoding: 3603 3603 454
Width: 937
GlyphClass: 2
Flags: W
AnchorPoint: "Anchor-12" 860 550 basechar 0
AnchorPoint: "Anchor-11" 860 0 basechar 0
LayerCount: 2
Fore
SplineSet
886 171.5 m 128,-1,1
 905 143 905 143 905 105 c 0,2,3
 905 53 905 53 873.5 24.5 c 128,-1,4
 842 -4 842 -4 796 -4 c 256,5,6
 750 -4 750 -4 720 24 c 128,-1,7
 690 52 690 52 690 103 c 0,8,9
 690 131 690 131 702 152.5 c 128,-1,10
 714 174 714 174 736 195 c 1,11,-1
 720 195 l 2,12,13
 673 195 673 195 630 167 c 128,-1,14
 587 139 587 139 561 93.5 c 128,-1,15
 535 48 535 48 535 0 c 1,16,-1
 477 0 l 2,17,18
 472 0 472 0 469 2 c 128,-1,19
 466 4 466 4 466 11 c 0,20,21
 466 16 466 16 467 20 c 0,22,23
 471 39 471 39 471 123 c 2,24,-1
 470 383 l 2,25,26
 470 535 470 535 301 535 c 0,27,28
 250 535 250 535 208 520 c 128,-1,29
 166 505 166 505 142 483 c 128,-1,30
 118 461 118 461 118 443 c 0,31,32
 118 430 118 430 132.5 417.5 c 128,-1,33
 147 405 147 405 166.5 396.5 c 128,-1,34
 186 388 186 388 196 388 c 0,35,36
 210 388 210 388 234 399 c 0,37,38
 252 407 252 407 259 407 c 0,39,40
 265 407 265 407 274 394.5 c 128,-1,41
 283 382 283 382 286.5 370 c 128,-1,42
 290 358 290 358 283 358 c 0,43,44
 220 358 220 358 188.5 322 c 128,-1,45
 157 286 157 286 157 221 c 2,46,-1
 157 118 l 2,47,48
 157 80 157 80 173 60.5 c 128,-1,49
 189 41 189 41 216 41 c 0,50,51
 242 41 242 41 255 54.5 c 128,-1,52
 268 68 268 68 268 90 c 256,53,54
 268 112 268 112 255 124.5 c 128,-1,55
 242 137 242 137 220 137 c 0,56,57
 205 137 205 137 181 131 c 1,58,59
 178 137 178 137 178 144 c 0,60,61
 178 159 178 159 190.5 169 c 128,-1,62
 203 179 203 179 227 179 c 0,63,64
 265 179 265 179 290.5 156 c 128,-1,65
 316 133 316 133 316 90 c 256,66,67
 316 47 316 47 286.5 20 c 128,-1,68
 257 -7 257 -7 212 -7 c 0,69,70
 160 -7 160 -7 126 25.5 c 128,-1,71
 92 58 92 58 92 117 c 2,72,-1
 92 221 l 2,73,74
 92 306 92 306 144 353 c 1,75,76
 112 365 112 365 83.5 389 c 128,-1,77
 55 413 55 413 55 440 c 0,78,79
 55 472 55 472 86 506 c 128,-1,80
 117 540 117 540 173.5 563 c 128,-1,81
 230 586 230 586 301 586 c 0,82,83
 410 586 410 586 472.5 535 c 128,-1,84
 535 484 535 484 535 383 c 2,85,-1
 535 146 l 1,86,87
 569 192 569 192 617.5 217.5 c 128,-1,88
 666 243 666 243 723 243 c 0,89,90
 752 243 752 243 779 237 c 1,91,92
 795 259 795 259 795 286 c 2,93,-1
 795 576 l 1,94,-1
 860 576 l 1,95,-1
 860 286 l 2,96,97
 860 265 860 265 854.5 249.5 c 128,-1,98
 849 234 849 234 835 217 c 1,99,0
 867 200 867 200 886 171.5 c 128,-1,1
835 64 m 128,-1,101
 849 80 849 80 849 108 c 0,102,103
 849 133 849 133 835 151.5 c 128,-1,104
 821 170 821 170 796 181 c 1,105,106
 768 158 768 158 756 144 c 128,-1,107
 744 130 744 130 744 106 c 0,108,109
 744 80 744 80 758 64 c 128,-1,110
 772 48 772 48 796 48 c 0,111,100
 821 48 821 48 835 64 c 128,-1,101
EndSplineSet
EndChar

StartChar: uni0E14
Encoding: 3604 3604 455
Width: 622
GlyphClass: 2
Flags: W
AnchorPoint: "Anchor-12" 542 550 basechar 0
AnchorPoint: "Anchor-11" 542 0 basechar 0
LayerCount: 2
Fore
SplineSet
482.5 524 m 128,-1,1
 542 462 542 462 542 355 c 2,2,-1
 542 0 l 1,3,-1
 477 0 l 1,4,-1
 477 350 l 2,5,6
 477 440 477 440 435.5 487 c 128,-1,7
 394 534 394 534 310 534 c 256,8,9
 226 534 226 534 178 483 c 128,-1,10
 130 432 130 432 130 347 c 0,11,12
 130 239 130 239 195 159 c 1,13,14
 214 179 214 179 276 221 c 0,15,16
 307 242 307 242 311 245 c 0,17,18
 329 259 329 259 338 276.5 c 128,-1,19
 347 294 347 294 347 309 c 0,20,21
 347 333 347 333 334.5 346 c 128,-1,22
 322 359 322 359 301 359 c 0,23,24
 279 359 279 359 265 347 c 128,-1,25
 251 335 251 335 251 314 c 0,26,27
 251 297 251 297 259.5 284 c 128,-1,28
 268 271 268 271 286 258 c 1,29,30
 278 251 278 251 272.5 248.5 c 128,-1,31
 267 246 267 246 258 246 c 0,32,33
 234 246 234 246 218.5 266.5 c 128,-1,34
 203 287 203 287 203 313 c 0,35,36
 203 355 203 355 230 381 c 128,-1,37
 257 407 257 407 301 407 c 0,38,39
 346 407 346 407 372.5 379 c 128,-1,40
 399 351 399 351 399 316 c 0,41,42
 399 279 399 279 384.5 254.5 c 128,-1,43
 370 230 370 230 339 208 c 0,44,45
 319 194 319 194 317 192 c 0,46,47
 268 157 268 157 239 132.5 c 128,-1,48
 210 108 210 108 189.5 74.5 c 128,-1,49
 169 41 169 41 169 0 c 1,50,-1
 112 0 l 2,51,52
 107 0 107 0 104 2 c 128,-1,53
 101 4 101 4 101 11 c 0,54,55
 101 32 101 32 109 50.5 c 128,-1,56
 117 69 117 69 132 95 c 0,57,58
 144 112 144 112 144 118 c 0,59,60
 144 126 144 126 127 155 c 0,61,62
 100 202 100 202 82.5 248.5 c 128,-1,63
 65 295 65 295 65 357 c 0,64,65
 65 423 65 423 97.5 475.5 c 128,-1,66
 130 528 130 528 185.5 557 c 128,-1,67
 241 586 241 586 310 586 c 0,68,0
 423 586 423 586 482.5 524 c 128,-1,1
EndSplineSet
EndChar

StartChar: uni0E15
Encoding: 3605 3605 456
Width: 630
GlyphClass: 2
Flags: W
AnchorPoint: "Anchor-12" 550 550 basechar 0
AnchorPoint: "Anchor-11" 550 0 basechar 0
LayerCount: 2
Fore
SplineSet
516 513 m 128,-1,1
 550 461 550 461 550 370 c 2,2,-1
 550 0 l 1,3,-1
 485 0 l 1,4,-1
 485 370 l 2,5,6
 485 443 485 443 467 478 c 128,-1,7
 449 513 449 513 403 526 c 1,8,9
 374 500 374 500 322 466 c 1,10,11
 268 498 268 498 238 526 c 1,12,13
 191 508 191 508 162 460.5 c 128,-1,14
 133 413 133 413 133 342 c 0,15,16
 133 233 133 233 209 161 c 1,17,18
 224 178 224 178 253 197 c 128,-1,19
 282 216 282 216 286 219 c 0,20,21
 313 235 313 235 321 242 c 0,22,23
 358 272 358 272 358 306 c 0,24,25
 358 328 358 328 344.5 341.5 c 128,-1,26
 331 355 331 355 311 355 c 0,27,28
 289 355 289 355 275.5 343 c 128,-1,29
 262 331 262 331 262 310 c 0,30,31
 262 293 262 293 270.5 280 c 128,-1,32
 279 267 279 267 297 254 c 1,33,34
 289 247 289 247 283.5 244.5 c 128,-1,35
 278 242 278 242 269 242 c 0,36,37
 245 242 245 242 229.5 262.5 c 128,-1,38
 214 283 214 283 214 309 c 0,39,40
 214 351 214 351 241 377 c 128,-1,41
 268 403 268 403 311 403 c 0,42,43
 356 403 356 403 383 375.5 c 128,-1,44
 410 348 410 348 410 311 c 0,45,46
 410 273 410 273 396 250.5 c 128,-1,47
 382 228 382 228 351 206 c 0,48,49
 291 165 291 165 261.5 140.5 c 128,-1,50
 232 116 232 116 210 81 c 128,-1,51
 188 46 188 46 188 0 c 1,52,-1
 131 0 l 2,53,54
 126 0 126 0 123 2 c 128,-1,55
 120 4 120 4 120 11 c 0,56,57
 120 28 120 28 126.5 45 c 128,-1,58
 133 62 133 62 144 82 c 0,59,60
 150 93 150 93 154.5 102.5 c 128,-1,61
 159 112 159 112 159 119 c 0,62,63
 159 123 159 123 144 141 c 0,64,65
 111 182 111 182 88 228 c 128,-1,66
 65 274 65 274 65 342 c 0,67,68
 65 434 65 434 110 497 c 128,-1,69
 155 560 155 560 237 586 c 1,70,71
 282 558 282 558 322 520 c 1,72,73
 359 556 359 556 404 586 c 1,74,0
 482 565 482 565 516 513 c 128,-1,1
EndSplineSet
EndChar

StartChar: uni0E16
Encoding: 3606 3606 457
Width: 615
GlyphClass: 2
Flags: W
AnchorPoint: "Anchor-12" 535 550 basechar 0
AnchorPoint: "Anchor-11" 535 0 basechar 0
LayerCount: 2
Fore
SplineSet
468 534 m 128,-1,1
 535 482 535 482 535 383 c 2,2,-1
 535 0 l 1,3,-1
 470 0 l 1,4,-1
 470 383 l 2,5,6
 470 459 470 459 425.5 497 c 128,-1,7
 381 535 381 535 298 535 c 0,8,9
 250 535 250 535 208.5 519.5 c 128,-1,10
 167 504 167 504 142.5 482.5 c 128,-1,11
 118 461 118 461 118 443 c 0,12,13
 118 430 118 430 130.5 417.5 c 128,-1,14
 143 405 143 405 159.5 396.5 c 128,-1,15
 176 388 176 388 186 388 c 0,16,17
 199 388 199 388 219 396 c 0,18,19
 237 402 237 402 244 402 c 0,20,21
 250 402 250 402 259 389.5 c 128,-1,22
 268 377 268 377 271.5 365 c 128,-1,23
 275 353 275 353 268 353 c 0,24,25
 206 353 206 353 181.5 320.5 c 128,-1,26
 157 288 157 288 157 221 c 2,27,-1
 157 118 l 2,28,29
 157 80 157 80 173 60.5 c 128,-1,30
 189 41 189 41 216 41 c 0,31,32
 242 41 242 41 255 54.5 c 128,-1,33
 268 68 268 68 268 90 c 256,34,35
 268 112 268 112 255 124.5 c 128,-1,36
 242 137 242 137 220 137 c 0,37,38
 205 137 205 137 181 131 c 1,39,40
 178 137 178 137 178 144 c 0,41,42
 178 159 178 159 190.5 169 c 128,-1,43
 203 179 203 179 227 179 c 0,44,45
 266 179 266 179 291 156 c 128,-1,46
 316 133 316 133 316 90 c 256,47,48
 316 47 316 47 286.5 20 c 128,-1,49
 257 -7 257 -7 212 -7 c 0,50,51
 160 -7 160 -7 126 25.5 c 128,-1,52
 92 58 92 58 92 117 c 2,53,-1
 92 221 l 2,54,55
 92 268 92 268 102.5 300 c 128,-1,56
 113 332 113 332 135 353 c 1,57,58
 106 365 106 365 80.5 389 c 128,-1,59
 55 413 55 413 55 440 c 0,60,61
 55 472 55 472 87 506 c 128,-1,62
 119 540 119 540 174.5 563 c 128,-1,63
 230 586 230 586 298 586 c 0,64,0
 401 586 401 586 468 534 c 128,-1,1
EndSplineSet
EndChar

StartChar: uni0E17
Encoding: 3607 3607 458
Width: 665
GlyphClass: 2
Flags: W
AnchorPoint: "Anchor-12" 585 550 basechar 0
AnchorPoint: "Anchor-11" 585 0 basechar 0
LayerCount: 2
Fore
SplineSet
553.5 553.5 m 128,-1,1
 585 521 585 521 585 459 c 2,2,-1
 585 0 l 1,3,-1
 520 0 l 1,4,-1
 520 455 l 2,5,6
 520 530 520 530 461 530 c 0,7,8
 425 530 425 530 396.5 500 c 128,-1,9
 368 470 368 470 339 407 c 0,10,11
 284 287 284 287 260 205 c 128,-1,12
 236 123 236 123 234 42 c 2,13,-1
 233 0 l 1,14,-1
 179 0 l 2,15,16
 171 0 171 0 167.5 4 c 128,-1,17
 164 8 164 8 164 18 c 0,18,19
 164 25 164 25 166.5 51.5 c 128,-1,20
 169 78 169 78 169 112 c 2,21,-1
 169 485 l 2,22,23
 169 508 169 508 157.5 523 c 128,-1,24
 146 538 146 538 123 538 c 0,25,26
 101 538 101 538 89.5 525.5 c 128,-1,27
 78 513 78 513 78 491 c 0,28,29
 78 468 78 468 91.5 455 c 128,-1,30
 105 442 105 442 127 442 c 2,31,-1
 151 442 l 1,32,33
 151 402 151 402 110 402 c 0,34,35
 79 402 79 402 54.5 426.5 c 128,-1,36
 30 451 30 451 30 491 c 0,37,38
 30 532 30 532 57 559 c 128,-1,39
 84 586 84 586 127 586 c 0,40,41
 174 586 174 586 204.5 558.5 c 128,-1,42
 235 531 235 531 235 481 c 2,43,-1
 234 276 l 1,44,45
 267 376 267 376 293 435 c 0,46,47
 323 504 323 504 366.5 545 c 128,-1,48
 410 586 410 586 469 586 c 0,49,0
 522 586 522 586 553.5 553.5 c 128,-1,1
EndSplineSet
EndChar

StartChar: uni0E18
Encoding: 3608 3608 459
Width: 590
GlyphClass: 2
Flags: W
AnchorPoint: "Anchor-12" 500 550 basechar 0
AnchorPoint: "Anchor-11" 471 0 basechar 0
LayerCount: 2
Fore
SplineSet
178.5 5.5 m 128,-1,1
 137 20 137 20 118.5 54 c 128,-1,2
 100 88 100 88 100 150 c 2,3,-1
 100 264 l 1,4,5
 116 268 116 268 134 268 c 0,6,7
 150 268 150 268 157.5 263 c 128,-1,8
 165 258 165 258 165 246 c 2,9,-1
 165 154 l 2,10,11
 165 111 165 111 173.5 89 c 128,-1,12
 182 67 182 67 209 56 c 128,-1,13
 236 45 236 45 293 45 c 0,14,15
 351 45 351 45 381.5 55 c 128,-1,16
 412 65 412 65 423 86 c 128,-1,17
 434 107 434 107 434 146 c 2,18,-1
 434 223 l 2,19,20
 434 270 434 270 415.5 291 c 128,-1,21
 397 312 397 312 355 322 c 0,22,23
 304 335 304 335 181 335 c 2,24,-1
 101 334 l 1,25,26
 84 349 84 349 73 382.5 c 128,-1,27
 62 416 62 416 62 447 c 0,28,29
 62 509 62 509 107 545.5 c 128,-1,30
 152 582 152 582 221 582 c 0,31,32
 243 582 243 582 276 579 c 128,-1,33
 309 576 309 576 320 575 c 0,34,35
 380 569 380 569 399 569 c 0,36,37
 466 569 466 569 505 595 c 1,38,39
 520 576 520 576 520 556 c 0,40,41
 520 533 520 533 492 522 c 128,-1,42
 464 511 464 511 416 511 c 0,43,44
 380 511 380 511 319 520 c 0,45,46
 310 521 310 521 278 525 c 128,-1,47
 246 529 246 529 221 529 c 0,48,49
 173 529 173 529 148 507.5 c 128,-1,50
 123 486 123 486 123 448 c 0,51,52
 123 431 123 431 126.5 414 c 128,-1,53
 130 397 130 397 137 388 c 1,54,-1
 189 388 l 2,55,56
 312 388 312 388 371 374 c 0,57,58
 433 359 433 359 466 326 c 128,-1,59
 499 293 499 293 499 223 c 2,60,-1
 499 150 l 2,61,62
 499 88 499 88 477.5 53.5 c 128,-1,63
 456 19 456 19 412 5 c 128,-1,64
 368 -9 368 -9 293 -9 c 0,65,0
 220 -9 220 -9 178.5 5.5 c 128,-1,1
EndSplineSet
EndChar

StartChar: uni0E19
Encoding: 3609 3609 460
Width: 637
GlyphClass: 2
Flags: W
AnchorPoint: "Anchor-12" 557 550 basechar 0
AnchorPoint: "Anchor-11" 557 0 basechar 0
LayerCount: 2
Fore
SplineSet
602 99 m 0,1,2
 602 53 602 53 570.5 24.5 c 128,-1,3
 539 -4 539 -4 493 -4 c 0,4,5
 446 -4 446 -4 415.5 24.5 c 128,-1,6
 385 53 385 53 385 99 c 0,7,8
 385 127 385 127 395.5 147 c 128,-1,9
 406 167 406 167 424 184 c 1,10,-1
 413 184 l 2,11,12
 367 184 367 184 320.5 158 c 128,-1,13
 274 132 274 132 244 89.5 c 128,-1,14
 214 47 214 47 214 0 c 1,15,-1
 166 0 l 2,16,17
 146 0 146 0 146 20 c 0,18,19
 146 31 146 31 147 40 c 0,20,21
 150 91 150 91 150 113 c 2,22,-1
 149 485 l 2,23,24
 149 508 149 508 137.5 523 c 128,-1,25
 126 538 126 538 103 538 c 0,26,27
 81 538 81 538 69.5 525.5 c 128,-1,28
 58 513 58 513 58 491 c 0,29,30
 58 468 58 468 71.5 455 c 128,-1,31
 85 442 85 442 107 442 c 2,32,-1
 131 442 l 1,33,34
 131 402 131 402 90 402 c 0,35,36
 59 402 59 402 34.5 426.5 c 128,-1,37
 10 451 10 451 10 491 c 0,38,39
 10 532 10 532 37 559 c 128,-1,40
 64 586 64 586 107 586 c 0,41,42
 154 586 154 586 184.5 558.5 c 128,-1,43
 215 531 215 531 215 481 c 2,44,-1
 214 132 l 1,45,46
 249 180 249 180 302.5 206 c 128,-1,47
 356 232 356 232 416 232 c 0,48,49
 448 232 448 232 473 228 c 1,50,51
 483 240 483 240 487.5 250.5 c 128,-1,52
 492 261 492 261 492 275 c 2,53,-1
 492 576 l 1,54,-1
 557 576 l 1,55,-1
 557 270 l 2,56,57
 557 237 557 237 533 211 c 1,58,0
 602 179 602 179 602 99 c 0,1,2
532 62.5 m 128,-1,60
 546 77 546 77 546 103 c 0,61,62
 546 153 546 153 488 173 c 1,63,64
 464 156 464 156 451.5 140.5 c 128,-1,65
 439 125 439 125 439 103 c 0,66,67
 439 78 439 78 453.5 63 c 128,-1,68
 468 48 468 48 493 48 c 256,69,59
 518 48 518 48 532 62.5 c 128,-1,60
EndSplineSet
EndChar

StartChar: uni0E1A
Encoding: 3610 3610 461
Width: 665
GlyphClass: 2
Flags: W
AnchorPoint: "Anchor-12" 585 550 basechar 0
AnchorPoint: "Anchor-11" 585 0 basechar 0
LayerCount: 2
Fore
SplineSet
179 50 m 0,1,2
 162 70 162 70 155.5 104.5 c 128,-1,3
 149 139 149 139 149 190 c 2,4,-1
 149 485 l 2,5,6
 149 508 149 508 137.5 523 c 128,-1,7
 126 538 126 538 103 538 c 0,8,9
 81 538 81 538 69.5 525.5 c 128,-1,10
 58 513 58 513 58 491 c 0,11,12
 58 468 58 468 71.5 455 c 128,-1,13
 85 442 85 442 107 442 c 2,14,-1
 131 442 l 1,15,16
 131 402 131 402 90 402 c 0,17,18
 59 402 59 402 34.5 426.5 c 128,-1,19
 10 451 10 451 10 491 c 0,20,21
 10 532 10 532 37 559 c 128,-1,22
 64 586 64 586 107 586 c 0,23,24
 154 586 154 586 184.5 558.5 c 128,-1,25
 215 531 215 531 215 481 c 2,26,-1
 214 183 l 2,27,28
 214 102 214 102 234 81 c 0,29,30
 271 43 271 43 369 43 c 0,31,32
 469 43 469 43 503 81 c 0,33,34
 514 93 514 93 517 112 c 128,-1,35
 520 131 520 131 520 166 c 2,36,-1
 520 576 l 1,37,-1
 585 576 l 1,38,-1
 585 190 l 2,39,40
 585 132 585 132 578.5 102 c 128,-1,41
 572 72 572 72 553 50 c 0,42,43
 499 -9 499 -9 369 -9 c 0,44,0
 228 -9 228 -9 179 50 c 0,1,2
EndSplineSet
EndChar

StartChar: uni0E1B
Encoding: 3611 3611 462
Width: 665
GlyphClass: 2
Flags: W
AnchorPoint: "Anchor-12" 457 550 basechar 0
AnchorPoint: "Anchor-11" 585 0 basechar 0
LayerCount: 2
Fore
SplineSet
179 50 m 0,1,2
 162 70 162 70 155.5 104.5 c 128,-1,3
 149 139 149 139 149 190 c 2,4,-1
 149 485 l 2,5,6
 149 508 149 508 137.5 523 c 128,-1,7
 126 538 126 538 103 538 c 0,8,9
 81 538 81 538 69.5 525.5 c 128,-1,10
 58 513 58 513 58 491 c 0,11,12
 58 468 58 468 71.5 455 c 128,-1,13
 85 442 85 442 107 442 c 2,14,-1
 131 442 l 1,15,16
 131 402 131 402 90 402 c 0,17,18
 59 402 59 402 34.5 426.5 c 128,-1,19
 10 451 10 451 10 491 c 0,20,21
 10 532 10 532 37 559 c 128,-1,22
 64 586 64 586 107 586 c 0,23,24
 154 586 154 586 184.5 558.5 c 128,-1,25
 215 531 215 531 215 481 c 2,26,-1
 214 183 l 2,27,28
 214 102 214 102 234 81 c 0,29,30
 271 43 271 43 369 43 c 0,31,32
 469 43 469 43 503 81 c 0,33,34
 514 93 514 93 517 112 c 128,-1,35
 520 131 520 131 520 166 c 2,36,-1
 520 783 l 1,37,-1
 585 783 l 1,38,-1
 585 190 l 2,39,40
 585 132 585 132 578.5 102 c 128,-1,41
 572 72 572 72 553 50 c 0,42,43
 499 -9 499 -9 369 -9 c 0,44,0
 228 -9 228 -9 179 50 c 0,1,2
EndSplineSet
EndChar

StartChar: uni0E1C
Encoding: 3612 3612 463
Width: 624
GlyphClass: 2
Flags: W
AnchorPoint: "Anchor-12" 540 550 basechar 0
AnchorPoint: "Anchor-11" 540 0 basechar 0
LayerCount: 2
Fore
SplineSet
543 49 m 2,1,-1
 544 22 l 2,2,3
 544 9 544 9 540.5 4.5 c 128,-1,4
 537 0 537 0 529 0 c 2,5,-1
 478 0 l 1,6,-1
 478 14 l 2,7,8
 478 60 478 60 430.5 121.5 c 128,-1,9
 383 183 383 183 312 244 c 1,10,11
 238 184 238 184 187.5 122 c 128,-1,12
 137 60 137 60 137 14 c 2,13,-1
 137 0 l 1,14,-1
 83 0 l 2,15,16
 68 0 68 0 68 11 c 0,17,18
 68 23 68 23 71 47 c 0,19,20
 76 110 76 110 76 135 c 2,21,-1
 76 462 l 2,22,23
 76 521 76 521 110 553.5 c 128,-1,24
 144 586 144 586 196 586 c 0,25,26
 241 586 241 586 270.5 559 c 128,-1,27
 300 532 300 532 300 489 c 256,28,29
 300 446 300 446 275 423 c 128,-1,30
 250 400 250 400 211 400 c 0,31,32
 187 400 187 400 174.5 410 c 128,-1,33
 162 420 162 420 162 435 c 0,34,35
 162 442 162 442 165 448 c 1,36,37
 189 442 189 442 204 442 c 0,38,39
 226 442 226 442 239 454.5 c 128,-1,40
 252 467 252 467 252 489 c 0,41,42
 252 512 252 512 239 525 c 128,-1,43
 226 538 226 538 200 538 c 0,44,45
 173 538 173 538 156.5 518.5 c 128,-1,46
 140 499 140 499 140 461 c 2,47,-1
 141 141 l 1,48,49
 165 180 165 180 211 224.5 c 128,-1,50
 257 269 257 269 308 305 c 1,51,-1
 316 305 l 1,52,53
 365 272 365 272 407.5 228 c 128,-1,54
 450 184 450 184 475 143 c 1,55,-1
 475 576 l 1,56,-1
 540 576 l 1,57,-1
 540 132 l 2,58,0
 540 94 540 94 543 49 c 2,1,-1
EndSplineSet
EndChar

StartChar: uni0E1D
Encoding: 3613 3613 464
Width: 624
GlyphClass: 2
Flags: W
AnchorPoint: "Anchor-12" 416 550 basechar 0
AnchorPoint: "Anchor-11" 540 0 basechar 0
LayerCount: 2
Fore
SplineSet
543 49 m 2,1,-1
 544 22 l 2,2,3
 544 9 544 9 540.5 4.5 c 128,-1,4
 537 0 537 0 529 0 c 2,5,-1
 478 0 l 1,6,-1
 478 14 l 2,7,8
 478 60 478 60 430.5 121.5 c 128,-1,9
 383 183 383 183 312 244 c 1,10,11
 238 184 238 184 187.5 122 c 128,-1,12
 137 60 137 60 137 14 c 2,13,-1
 137 0 l 1,14,-1
 83 0 l 2,15,16
 68 0 68 0 68 11 c 0,17,18
 68 23 68 23 71 47 c 0,19,20
 76 110 76 110 76 135 c 2,21,-1
 76 462 l 2,22,23
 76 521 76 521 110 553.5 c 128,-1,24
 144 586 144 586 196 586 c 0,25,26
 241 586 241 586 270.5 559 c 128,-1,27
 300 532 300 532 300 489 c 256,28,29
 300 446 300 446 275 423 c 128,-1,30
 250 400 250 400 211 400 c 0,31,32
 187 400 187 400 174.5 410 c 128,-1,33
 162 420 162 420 162 435 c 0,34,35
 162 442 162 442 165 448 c 1,36,37
 189 442 189 442 204 442 c 0,38,39
 226 442 226 442 239 454.5 c 128,-1,40
 252 467 252 467 252 489 c 0,41,42
 252 512 252 512 239 525 c 128,-1,43
 226 538 226 538 200 538 c 0,44,45
 173 538 173 538 156.5 518.5 c 128,-1,46
 140 499 140 499 140 461 c 2,47,-1
 141 141 l 1,48,49
 165 180 165 180 211 224.5 c 128,-1,50
 257 269 257 269 308 305 c 1,51,-1
 316 305 l 1,52,53
 365 272 365 272 407.5 228 c 128,-1,54
 450 184 450 184 475 143 c 1,55,-1
 475 783 l 1,56,-1
 540 783 l 1,57,-1
 540 132 l 2,58,0
 540 94 540 94 543 49 c 2,1,-1
EndSplineSet
EndChar

StartChar: uni0E1E
Encoding: 3614 3614 465
Width: 719
GlyphClass: 2
Flags: W
AnchorPoint: "Anchor-12" 634 550 basechar 0
AnchorPoint: "Anchor-11" 634 0 basechar 0
LayerCount: 2
Fore
SplineSet
639 11 m 0,1,2
 639 4 639 4 636 2 c 128,-1,3
 633 0 633 0 628 0 c 2,4,-1
 571 0 l 1,5,-1
 571 14 l 2,6,7
 571 71 571 71 517.5 194.5 c 128,-1,8
 464 318 464 318 402 431 c 1,9,10
 338 315 338 315 284 192.5 c 128,-1,11
 230 70 230 70 230 14 c 2,12,-1
 230 0 l 1,13,-1
 170 0 l 2,14,15
 165 0 165 0 162 2 c 128,-1,16
 159 4 159 4 159 11 c 0,17,18
 159 16 159 16 160 20 c 0,19,20
 165 47 165 47 167 74.5 c 128,-1,21
 169 102 169 102 169 190 c 2,22,-1
 169 485 l 2,23,24
 169 508 169 508 157.5 523 c 128,-1,25
 146 538 146 538 123 538 c 0,26,27
 101 538 101 538 89.5 525.5 c 128,-1,28
 78 513 78 513 78 491 c 0,29,30
 78 468 78 468 91.5 455 c 128,-1,31
 105 442 105 442 127 442 c 2,32,-1
 151 442 l 1,33,34
 151 402 151 402 110 402 c 0,35,36
 79 402 79 402 54.5 426.5 c 128,-1,37
 30 451 30 451 30 491 c 0,38,39
 30 532 30 532 57 559 c 128,-1,40
 84 586 84 586 127 586 c 0,41,42
 174 586 174 586 204.5 558.5 c 128,-1,43
 235 531 235 531 235 481 c 2,44,-1
 234 205 l 1,45,46
 277 328 277 328 396 530 c 1,47,-1
 410 530 l 1,48,49
 455 457 455 457 500 365.5 c 128,-1,50
 545 274 545 274 569 203 c 1,51,-1
 569 576 l 1,52,-1
 634 576 l 1,53,-1
 634 190 l 2,54,55
 634 49 634 49 638 20 c 0,56,0
 639 16 639 16 639 11 c 0,1,2
EndSplineSet
EndChar

StartChar: uni0E1F
Encoding: 3615 3615 466
Width: 719
GlyphClass: 2
Flags: W
AnchorPoint: "Anchor-12" 511 550 basechar 0
AnchorPoint: "Anchor-11" 634 0 basechar 0
LayerCount: 2
Fore
SplineSet
639 11 m 0,1,2
 639 4 639 4 636 2 c 128,-1,3
 633 0 633 0 628 0 c 2,4,-1
 571 0 l 1,5,-1
 571 14 l 2,6,7
 571 71 571 71 517.5 194.5 c 128,-1,8
 464 318 464 318 402 431 c 1,9,10
 338 315 338 315 284 192.5 c 128,-1,11
 230 70 230 70 230 14 c 2,12,-1
 230 0 l 1,13,-1
 170 0 l 2,14,15
 165 0 165 0 162 2 c 128,-1,16
 159 4 159 4 159 11 c 0,17,18
 159 16 159 16 160 20 c 0,19,20
 165 47 165 47 167 74.5 c 128,-1,21
 169 102 169 102 169 190 c 2,22,-1
 169 485 l 2,23,24
 169 508 169 508 157.5 523 c 128,-1,25
 146 538 146 538 123 538 c 0,26,27
 101 538 101 538 89.5 525.5 c 128,-1,28
 78 513 78 513 78 491 c 0,29,30
 78 468 78 468 91.5 455 c 128,-1,31
 105 442 105 442 127 442 c 2,32,-1
 151 442 l 1,33,34
 151 402 151 402 110 402 c 0,35,36
 79 402 79 402 54.5 426.5 c 128,-1,37
 30 451 30 451 30 491 c 0,38,39
 30 532 30 532 57 559 c 128,-1,40
 84 586 84 586 127 586 c 0,41,42
 174 586 174 586 204.5 558.5 c 128,-1,43
 235 531 235 531 235 481 c 2,44,-1
 234 205 l 1,45,46
 277 328 277 328 396 530 c 1,47,-1
 410 530 l 1,48,49
 455 457 455 457 500 365.5 c 128,-1,50
 545 274 545 274 569 203 c 1,51,-1
 569 783 l 1,52,-1
 634 783 l 1,53,-1
 634 190 l 2,54,55
 634 49 634 49 638 20 c 0,56,0
 639 16 639 16 639 11 c 0,1,2
EndSplineSet
EndChar

StartChar: uni0E20
Encoding: 3616 3616 467
Width: 630
GlyphClass: 2
Flags: W
AnchorPoint: "Anchor-12" 550 550 basechar 0
AnchorPoint: "Anchor-11" 550 0 basechar 0
LayerCount: 2
Fore
SplineSet
484 534.5 m 128,-1,1
 550 483 550 483 550 366 c 2,2,-1
 550 0 l 1,3,-1
 485 0 l 1,4,-1
 485 366 l 2,5,6
 485 463 485 463 440.5 499 c 128,-1,7
 396 535 396 535 314 535 c 0,8,9
 264 535 264 535 221.5 521 c 128,-1,10
 179 507 179 507 154 486.5 c 128,-1,11
 129 466 129 466 129 448 c 0,12,13
 129 436 129 436 142 422 c 128,-1,14
 155 408 155 408 171 398.5 c 128,-1,15
 187 389 187 389 194 389 c 0,16,17
 200 389 200 389 210.5 393 c 128,-1,18
 221 397 221 397 224 398 c 0,19,20
 246 408 246 408 255 408 c 0,21,22
 262 408 262 408 271 396.5 c 128,-1,23
 280 385 280 385 283.5 373.5 c 128,-1,24
 287 362 287 362 279 362 c 0,25,26
 235 362 235 362 213.5 335 c 128,-1,27
 192 308 192 308 192 263 c 0,28,29
 192 239 192 239 195 212 c 128,-1,30
 198 185 198 185 199 177 c 0,31,32
 207 121 207 121 207 89 c 0,33,34
 207 43 207 43 181 17.5 c 128,-1,35
 155 -8 155 -8 107 -8 c 0,36,37
 67 -8 67 -8 41.5 17 c 128,-1,38
 16 42 16 42 16 80 c 0,39,40
 16 117 16 117 38 138 c 128,-1,41
 60 159 60 159 88 159 c 0,42,43
 105 159 105 159 115.5 149.5 c 128,-1,44
 126 140 126 140 126 125 c 1,45,-1
 107 125 l 2,46,47
 85 125 85 125 73.5 113 c 128,-1,48
 62 101 62 101 62 80 c 0,49,50
 62 63 62 63 74 50.5 c 128,-1,51
 86 38 86 38 107 38 c 256,52,53
 128 38 128 38 139.5 52 c 128,-1,54
 151 66 151 66 151 88 c 0,55,56
 151 118 151 118 145 148.5 c 128,-1,57
 139 179 139 179 138 184 c 0,58,59
 137 191 137 191 132 217 c 128,-1,60
 127 243 127 243 127 265 c 0,61,62
 127 321 127 321 157 351 c 1,63,64
 123 362 123 362 94 390.5 c 128,-1,65
 65 419 65 419 65 445 c 0,66,67
 65 473 65 473 98 506.5 c 128,-1,68
 131 540 131 540 188 563 c 128,-1,69
 245 586 245 586 314 586 c 0,70,0
 418 586 418 586 484 534.5 c 128,-1,1
EndSplineSet
EndChar

StartChar: uni0E21
Encoding: 3617 3617 468
Width: 657
GlyphClass: 2
Flags: W
AnchorPoint: "Anchor-12" 560 550 basechar 0
AnchorPoint: "Anchor-11" 560 0 basechar 0
LayerCount: 2
Fore
SplineSet
564 44 m 2,1,-1
 565 20 l 2,2,3
 565 0 565 0 550 0 c 2,4,-1
 497 0 l 1,5,6
 475 93 475 93 410 148.5 c 128,-1,7
 345 204 345 204 255 210 c 1,8,-1
 256 180 l 2,9,10
 258 140 258 140 258 120 c 0,11,12
 258 55 258 55 235.5 23 c 128,-1,13
 213 -9 213 -9 165 -9 c 0,14,15
 124 -9 124 -9 97 23 c 128,-1,16
 70 55 70 55 70 108 c 0,17,18
 70 169 70 169 105.5 209 c 128,-1,19
 141 249 141 249 191 258 c 1,20,21
 189 278 189 278 189 300 c 2,22,-1
 189 485 l 2,23,24
 189 508 189 508 177.5 523 c 128,-1,25
 166 538 166 538 143 538 c 0,26,27
 121 538 121 538 109.5 525.5 c 128,-1,28
 98 513 98 513 98 491 c 0,29,30
 98 468 98 468 111.5 455 c 128,-1,31
 125 442 125 442 147 442 c 2,32,-1
 171 442 l 1,33,34
 171 402 171 402 130 402 c 0,35,36
 99 402 99 402 74.5 426.5 c 128,-1,37
 50 451 50 451 50 491 c 0,38,39
 50 532 50 532 77 559 c 128,-1,40
 104 586 104 586 147 586 c 0,41,42
 194 586 194 586 224.5 558.5 c 128,-1,43
 255 531 255 531 255 481 c 2,44,-1
 254 260 l 1,45,46
 331 260 331 260 394.5 226 c 128,-1,47
 458 192 458 192 495 133 c 1,48,-1
 495 576 l 1,49,-1
 560 576 l 1,50,-1
 560 138 l 2,51,0
 560 86 560 86 564 44 c 2,1,-1
189 59.5 m 128,-1,53
 196 76 196 76 196 122 c 0,54,55
 196 153 196 153 193 186 c 2,56,-1
 192 207 l 1,57,58
 164 198 164 198 145 174.5 c 128,-1,59
 126 151 126 151 126 111 c 0,60,61
 126 79 126 79 136 61 c 128,-1,62
 146 43 146 43 165 43 c 0,63,52
 182 43 182 43 189 59.5 c 128,-1,53
EndSplineSet
EndChar

StartChar: uni0E22
Encoding: 3618 3618 469
Width: 610
GlyphClass: 2
Flags: W
AnchorPoint: "Anchor-12" 529 550 basechar 0
AnchorPoint: "Anchor-11" 529 0 basechar 0
LayerCount: 2
Fore
SplineSet
530 184 m 2,0,1
 530 134 530 134 523.5 103 c 128,-1,2
 517 72 517 72 497 50 c 0,3,4
 466 16 466 16 414.5 3.5 c 128,-1,5
 363 -9 363 -9 309 -9 c 256,6,7
 255 -9 255 -9 202.5 3.5 c 128,-1,8
 150 16 150 16 120 50 c 0,9,10
 99 75 99 75 89 102.5 c 128,-1,11
 79 130 79 130 79 172 c 2,12,-1
 79 181 l 2,13,14
 79 229 79 229 100.5 258.5 c 128,-1,15
 122 288 122 288 152 303 c 1,16,17
 118 318 118 318 94 353 c 128,-1,18
 70 388 70 388 70 446 c 0,19,20
 70 486 70 486 88.5 518 c 128,-1,21
 107 550 107 550 138 568 c 128,-1,22
 169 586 169 586 205 586 c 0,23,24
 252 586 252 586 279 561.5 c 128,-1,25
 306 537 306 537 306 497 c 0,26,27
 306 458 306 458 283.5 435 c 128,-1,28
 261 412 261 412 222 412 c 0,29,30
 197 412 197 412 181 423.5 c 128,-1,31
 165 435 165 435 165 452 c 0,32,33
 165 459 165 459 166 462 c 1,34,35
 186 452 186 452 212 452 c 0,36,37
 234 452 234 452 245 464 c 128,-1,38
 256 476 256 476 256 495 c 0,39,40
 256 515 256 515 243.5 526.5 c 128,-1,41
 231 538 231 538 209 538 c 0,42,43
 175 538 175 538 155 514.5 c 128,-1,44
 135 491 135 491 135 443 c 0,45,46
 135 377 135 377 175.5 346.5 c 128,-1,47
 216 316 216 316 314 316 c 0,48,49
 320 316 320 316 320 307 c 0,50,51
 320 296 320 296 310.5 280 c 128,-1,52
 301 264 301 264 292 264 c 0,53,54
 276 264 276 264 248 272 c 0,55,56
 225 279 225 279 211 279 c 0,57,58
 182 279 182 279 163 252.5 c 128,-1,59
 144 226 144 226 144 184 c 2,60,-1
 144 171 l 2,61,62
 144 137 144 137 150 118 c 128,-1,63
 156 99 156 99 171 83 c 0,64,65
 189 64 189 64 226 54.5 c 128,-1,66
 263 45 263 45 309 45 c 0,67,68
 405 45 405 45 442 83 c 0,69,70
 456 98 456 98 460.5 123 c 128,-1,71
 465 148 465 148 465 191 c 2,72,-1
 464 284 l 1,73,-1
 464 576 l 1,74,-1
 529 576 l 1,75,-1
 529 284 l 1,76,-1
 530 184 l 2,0,1
EndSplineSet
EndChar

StartChar: uni0E23
Encoding: 3619 3619 470
Width: 508
GlyphClass: 2
Flags: W
AnchorPoint: "Anchor-12" 428 550 basechar 0
AnchorPoint: "Anchor-11" 410 0 basechar 0
LayerCount: 2
Fore
SplineSet
217 20 m 128,-1,1
 187 49 187 49 187 91 c 256,2,3
 187 133 187 133 213 159.5 c 128,-1,4
 239 186 239 186 282 186 c 256,5,6
 325 186 325 186 325 140 c 1,7,8
 312 142 312 142 287 142 c 0,9,10
 264 142 264 142 251.5 128 c 128,-1,11
 239 114 239 114 239 91 c 0,12,13
 239 69 239 69 253 55.5 c 128,-1,14
 267 42 267 42 289 42 c 0,15,16
 321 42 321 42 338 65 c 128,-1,17
 355 88 355 88 355 143 c 2,18,-1
 355 203 l 2,19,20
 355 256 355 256 337 283.5 c 128,-1,21
 319 311 319 311 278 322 c 0,22,23
 233 335 233 335 155 335 c 2,24,-1
 82 334 l 1,25,26
 65 349 65 349 54 380 c 128,-1,27
 43 411 43 411 43 441 c 0,28,29
 43 506 43 506 85.5 544 c 128,-1,30
 128 582 128 582 190 582 c 0,31,32
 211 582 211 582 274 575 c 0,33,34
 322 569 322 569 340 569 c 0,35,36
 401 569 401 569 446 589 c 1,37,38
 452 586 452 586 456.5 576 c 128,-1,39
 461 566 461 566 461 555 c 0,40,41
 461 532 461 532 430.5 521.5 c 128,-1,42
 400 511 400 511 357 511 c 0,43,44
 336 511 336 511 282 519 c 0,45,46
 222 529 222 529 190 529 c 0,47,48
 149 529 149 529 128.5 506.5 c 128,-1,49
 108 484 108 484 108 442 c 0,50,51
 108 408 108 408 122 388 c 1,52,-1
 158 388 l 2,53,54
 241 388 241 388 295 375 c 0,55,56
 420 346 420 346 420 209 c 2,57,-1
 420 143 l 2,58,59
 420 68 420 68 385 29.5 c 128,-1,60
 350 -9 350 -9 289 -9 c 0,61,0
 247 -9 247 -9 217 20 c 128,-1,1
EndSplineSet
EndChar

StartChar: uni0E24
Encoding: 3620 3620 471
Width: 615
GlyphClass: 2
Flags: W
AnchorPoint: "Anchor-12" 535 550 basechar 0
AnchorPoint: "Anchor-11" 535 -220 basechar 0
LayerCount: 2
Fore
SplineSet
470 383 m 2,0,1
 470 459 470 459 425.5 497 c 128,-1,2
 381 535 381 535 298 535 c 0,3,4
 250 535 250 535 208.5 519.5 c 128,-1,5
 167 504 167 504 142.5 482.5 c 128,-1,6
 118 461 118 461 118 443 c 0,7,8
 118 430 118 430 130.5 417.5 c 128,-1,9
 143 405 143 405 159.5 396.5 c 128,-1,10
 176 388 176 388 186 388 c 0,11,12
 199 388 199 388 219 396 c 0,13,14
 237 402 237 402 244 402 c 0,15,16
 250 402 250 402 259 389.5 c 128,-1,17
 268 377 268 377 271.5 365 c 128,-1,18
 275 353 275 353 268 353 c 0,19,20
 206 353 206 353 181.5 320.5 c 128,-1,21
 157 288 157 288 157 221 c 2,22,-1
 157 118 l 2,23,24
 157 80 157 80 173 60.5 c 128,-1,25
 189 41 189 41 216 41 c 0,26,27
 242 41 242 41 255 54.5 c 128,-1,28
 268 68 268 68 268 90 c 256,29,30
 268 112 268 112 255 124.5 c 128,-1,31
 242 137 242 137 220 137 c 0,32,33
 205 137 205 137 181 131 c 1,34,35
 178 137 178 137 178 144 c 0,36,37
 178 159 178 159 190.5 169 c 128,-1,38
 203 179 203 179 227 179 c 0,39,40
 266 179 266 179 291 156 c 128,-1,41
 316 133 316 133 316 90 c 256,42,43
 316 47 316 47 286.5 20 c 128,-1,44
 257 -7 257 -7 212 -7 c 0,45,46
 160 -7 160 -7 126 25.5 c 128,-1,47
 92 58 92 58 92 117 c 2,48,-1
 92 221 l 2,49,50
 92 268 92 268 102.5 300 c 128,-1,51
 113 332 113 332 135 353 c 1,52,53
 106 365 106 365 80.5 389 c 128,-1,54
 55 413 55 413 55 440 c 0,55,56
 55 472 55 472 87 506 c 128,-1,57
 119 540 119 540 174.5 563 c 128,-1,58
 230 586 230 586 298 586 c 0,59,60
 401 586 401 586 468 534 c 128,-1,61
 535 482 535 482 535 383 c 2,62,-1
 535 -220 l 1,63,-1
 470 -220 l 1,64,-1
 470 383 l 2,0,1
EndSplineSet
Substitution2: "Single Substitution lookup 14 subtable" uni0E24.short
Substitution2: "'aalt' Access All Alternates lookup 0 subtable" uni0E24.short
EndChar

StartChar: uni0E24.short
Encoding: 65543 -1 472
Width: 615
GlyphClass: 2
Flags: W
AnchorPoint: "Anchor-12" 535 550 basechar 0
AnchorPoint: "Anchor-11" 535 -160 basechar 0
LayerCount: 2
Fore
SplineSet
470 383 m 2,0,1
 470 459 470 459 425.5 497 c 128,-1,2
 381 535 381 535 298 535 c 0,3,4
 250 535 250 535 208.5 519.5 c 128,-1,5
 167 504 167 504 142.5 482.5 c 128,-1,6
 118 461 118 461 118 443 c 0,7,8
 118 430 118 430 130.5 417.5 c 128,-1,9
 143 405 143 405 159.5 396.5 c 128,-1,10
 176 388 176 388 186 388 c 0,11,12
 199 388 199 388 219 396 c 0,13,14
 237 402 237 402 244 402 c 0,15,16
 250 402 250 402 259 389.5 c 128,-1,17
 268 377 268 377 271.5 365 c 128,-1,18
 275 353 275 353 268 353 c 0,19,20
 206 353 206 353 181.5 320.5 c 128,-1,21
 157 288 157 288 157 221 c 2,22,-1
 157 118 l 2,23,24
 157 80 157 80 173 60.5 c 128,-1,25
 189 41 189 41 216 41 c 0,26,27
 242 41 242 41 255 54.5 c 128,-1,28
 268 68 268 68 268 90 c 256,29,30
 268 112 268 112 255 124.5 c 128,-1,31
 242 137 242 137 220 137 c 0,32,33
 205 137 205 137 181 131 c 1,34,35
 178 137 178 137 178 144 c 0,36,37
 178 159 178 159 190.5 169 c 128,-1,38
 203 179 203 179 227 179 c 0,39,40
 266 179 266 179 291 156 c 128,-1,41
 316 133 316 133 316 90 c 256,42,43
 316 47 316 47 286.5 20 c 128,-1,44
 257 -7 257 -7 212 -7 c 0,45,46
 160 -7 160 -7 126 25.5 c 128,-1,47
 92 58 92 58 92 117 c 2,48,-1
 92 221 l 2,49,50
 92 268 92 268 102.5 300 c 128,-1,51
 113 332 113 332 135 353 c 1,52,53
 106 365 106 365 80.5 389 c 128,-1,54
 55 413 55 413 55 440 c 0,55,56
 55 472 55 472 87 506 c 128,-1,57
 119 540 119 540 174.5 563 c 128,-1,58
 230 586 230 586 298 586 c 0,59,60
 401 586 401 586 468 534 c 128,-1,61
 535 482 535 482 535 383 c 2,62,-1
 535 -160 l 1,63,-1
 470 -160 l 1,64,-1
 470 383 l 2,0,1
EndSplineSet
EndChar

StartChar: uni0E25
Encoding: 3621 3621 473
Width: 618
GlyphClass: 2
Flags: W
AnchorPoint: "Anchor-12" 525 550 basechar 0
AnchorPoint: "Anchor-11" 525 0 basechar 0
LayerCount: 2
Fore
SplineSet
529 294 m 0,1,2
 523 232 523 232 523 197 c 0,3,4
 523 176 523 176 530 87 c 0,5,6
 534 29 534 29 534 19 c 0,7,8
 534 0 534 0 522 0 c 2,9,-1
 463 0 l 1,10,11
 463 160 463 160 413 237.5 c 128,-1,12
 363 315 363 315 273 315 c 0,13,14
 216 315 216 315 180.5 275.5 c 128,-1,15
 145 236 145 236 145 166 c 0,16,17
 145 102 145 102 165 70.5 c 128,-1,18
 185 39 185 39 218 39 c 0,19,20
 240 39 240 39 251.5 51 c 128,-1,21
 263 63 263 63 263 84 c 0,22,23
 263 103 263 103 251.5 114.5 c 128,-1,24
 240 126 240 126 219 126 c 0,25,26
 207 126 207 126 197 122.5 c 128,-1,27
 187 119 187 119 175 111 c 1,28,29
 172 117 172 117 172 127 c 0,30,31
 172 142 172 142 187 154 c 128,-1,32
 202 166 202 166 228 166 c 0,33,34
 264 166 264 166 287.5 142.5 c 128,-1,35
 311 119 311 119 311 85 c 0,36,37
 311 43 311 43 285.5 17 c 128,-1,38
 260 -9 260 -9 217 -9 c 0,39,40
 160 -9 160 -9 122 33.5 c 128,-1,41
 84 76 84 76 84 166 c 0,42,43
 84 229 84 229 109.5 275 c 128,-1,44
 135 321 135 321 178 345 c 128,-1,45
 221 369 221 369 273 369 c 0,46,47
 335 369 335 369 384.5 340 c 128,-1,48
 434 311 434 311 462 263 c 1,49,50
 469 328 469 328 468 391 c 0,51,52
 467 457 467 457 426 494.5 c 128,-1,53
 385 532 385 532 314 532 c 0,54,55
 253 532 253 532 209.5 510 c 128,-1,56
 166 488 166 488 125 447 c 0,57,58
 119 441 119 441 110 441 c 0,59,60
 99 441 99 441 87 450 c 128,-1,61
 75 459 75 459 67 476 c 1,62,63
 99 521 99 521 165 553.5 c 128,-1,64
 231 586 231 586 315 586 c 0,65,66
 416 586 416 586 475.5 536 c 128,-1,67
 535 486 535 486 535 398 c 0,68,0
 535 358 535 358 529 294 c 0,1,2
EndSplineSet
EndChar

StartChar: uni0E26
Encoding: 3622 3622 474
Width: 630
GlyphClass: 2
Flags: W
AnchorPoint: "Anchor-12" 550 550 basechar 0
AnchorPoint: "Anchor-11" 550 -220 basechar 0
LayerCount: 2
Fore
SplineSet
485 366 m 2,0,1
 485 463 485 463 440.5 499 c 128,-1,2
 396 535 396 535 314 535 c 0,3,4
 264 535 264 535 221.5 521 c 128,-1,5
 179 507 179 507 154 486.5 c 128,-1,6
 129 466 129 466 129 448 c 0,7,8
 129 436 129 436 142 422 c 128,-1,9
 155 408 155 408 171 398.5 c 128,-1,10
 187 389 187 389 194 389 c 0,11,12
 200 389 200 389 210.5 393 c 128,-1,13
 221 397 221 397 224 398 c 0,14,15
 246 408 246 408 255 408 c 0,16,17
 262 408 262 408 271 396.5 c 128,-1,18
 280 385 280 385 283.5 373.5 c 128,-1,19
 287 362 287 362 279 362 c 0,20,21
 235 362 235 362 213.5 335 c 128,-1,22
 192 308 192 308 192 263 c 0,23,24
 192 239 192 239 195 212 c 128,-1,25
 198 185 198 185 199 177 c 0,26,27
 207 121 207 121 207 89 c 0,28,29
 207 43 207 43 181 17.5 c 128,-1,30
 155 -8 155 -8 107 -8 c 0,31,32
 67 -8 67 -8 41.5 17 c 128,-1,33
 16 42 16 42 16 80 c 0,34,35
 16 117 16 117 38 138 c 128,-1,36
 60 159 60 159 88 159 c 0,37,38
 105 159 105 159 115.5 149.5 c 128,-1,39
 126 140 126 140 126 125 c 1,40,-1
 107 125 l 2,41,42
 85 125 85 125 73.5 113 c 128,-1,43
 62 101 62 101 62 80 c 0,44,45
 62 63 62 63 74 50.5 c 128,-1,46
 86 38 86 38 107 38 c 256,47,48
 128 38 128 38 139.5 52 c 128,-1,49
 151 66 151 66 151 88 c 0,50,51
 151 118 151 118 145 148.5 c 128,-1,52
 139 179 139 179 138 184 c 0,53,54
 137 191 137 191 132 217 c 128,-1,55
 127 243 127 243 127 265 c 0,56,57
 127 321 127 321 157 351 c 1,58,59
 123 362 123 362 94 390.5 c 128,-1,60
 65 419 65 419 65 445 c 0,61,62
 65 473 65 473 98 506.5 c 128,-1,63
 131 540 131 540 188 563 c 128,-1,64
 245 586 245 586 314 586 c 0,65,66
 418 586 418 586 484 534.5 c 128,-1,67
 550 483 550 483 550 366 c 2,68,-1
 550 -220 l 1,69,-1
 485 -220 l 1,70,-1
 485 366 l 2,0,1
EndSplineSet
Substitution2: "Single Substitution lookup 14 subtable" uni0E26.short
Substitution2: "'aalt' Access All Alternates lookup 0 subtable" uni0E26.short
EndChar

StartChar: uni0E26.short
Encoding: 65544 -1 475
Width: 630
GlyphClass: 2
Flags: W
AnchorPoint: "Anchor-12" 550 550 basechar 0
AnchorPoint: "Anchor-11" 550 -160 basechar 0
LayerCount: 2
Fore
SplineSet
485 366 m 2,0,1
 485 463 485 463 440.5 499 c 128,-1,2
 396 535 396 535 314 535 c 0,3,4
 264 535 264 535 221.5 521 c 128,-1,5
 179 507 179 507 154 486.5 c 128,-1,6
 129 466 129 466 129 448 c 0,7,8
 129 436 129 436 142 422 c 128,-1,9
 155 408 155 408 171 398.5 c 128,-1,10
 187 389 187 389 194 389 c 0,11,12
 200 389 200 389 210.5 393 c 128,-1,13
 221 397 221 397 224 398 c 0,14,15
 246 408 246 408 255 408 c 0,16,17
 262 408 262 408 271 396.5 c 128,-1,18
 280 385 280 385 283.5 373.5 c 128,-1,19
 287 362 287 362 279 362 c 0,20,21
 235 362 235 362 213.5 335 c 128,-1,22
 192 308 192 308 192 263 c 0,23,24
 192 239 192 239 195 212 c 128,-1,25
 198 185 198 185 199 177 c 0,26,27
 207 121 207 121 207 89 c 0,28,29
 207 43 207 43 181 17.5 c 128,-1,30
 155 -8 155 -8 107 -8 c 0,31,32
 67 -8 67 -8 41.5 17 c 128,-1,33
 16 42 16 42 16 80 c 0,34,35
 16 117 16 117 38 138 c 128,-1,36
 60 159 60 159 88 159 c 0,37,38
 105 159 105 159 115.5 149.5 c 128,-1,39
 126 140 126 140 126 125 c 1,40,-1
 107 125 l 2,41,42
 85 125 85 125 73.5 113 c 128,-1,43
 62 101 62 101 62 80 c 0,44,45
 62 63 62 63 74 50.5 c 128,-1,46
 86 38 86 38 107 38 c 256,47,48
 128 38 128 38 139.5 52 c 128,-1,49
 151 66 151 66 151 88 c 0,50,51
 151 118 151 118 145 148.5 c 128,-1,52
 139 179 139 179 138 184 c 0,53,54
 137 191 137 191 132 217 c 128,-1,55
 127 243 127 243 127 265 c 0,56,57
 127 321 127 321 157 351 c 1,58,59
 123 362 123 362 94 390.5 c 128,-1,60
 65 419 65 419 65 445 c 0,61,62
 65 473 65 473 98 506.5 c 128,-1,63
 131 540 131 540 188 563 c 128,-1,64
 245 586 245 586 314 586 c 0,65,66
 418 586 418 586 484 534.5 c 128,-1,67
 550 483 550 483 550 366 c 2,68,-1
 550 -160 l 1,69,-1
 485 -160 l 1,70,-1
 485 366 l 2,0,1
EndSplineSet
EndChar

StartChar: uni0E27
Encoding: 3623 3623 476
Width: 528
GlyphClass: 2
Flags: W
AnchorPoint: "Anchor-12" 448 550 basechar 0
AnchorPoint: "Anchor-11" 448 0 basechar 0
LayerCount: 2
Fore
SplineSet
247.5 17.5 m 128,-1,1
 217 45 217 45 217 87 c 0,2,3
 217 127 217 127 244 152.5 c 128,-1,4
 271 178 271 178 309 178 c 0,5,6
 333 178 333 178 346.5 167 c 128,-1,7
 360 156 360 156 360 140 c 0,8,9
 360 134 360 134 359 131 c 1,10,11
 345 136 345 136 320 136 c 0,12,13
 298 136 298 136 284.5 122.5 c 128,-1,14
 271 109 271 109 271 88 c 256,15,16
 271 67 271 67 285 53.5 c 128,-1,17
 299 40 299 40 322 40 c 0,18,19
 354 40 354 40 370.5 63 c 128,-1,20
 387 86 387 86 387 126 c 2,21,-1
 387 386 l 2,22,23
 387 454 387 454 352.5 494 c 128,-1,24
 318 534 318 534 249 534 c 0,25,26
 192 534 192 534 155 510 c 128,-1,27
 118 486 118 486 87 439 c 0,28,29
 84 435 84 435 77 435 c 0,30,31
 67 435 67 435 52.5 443.5 c 128,-1,32
 38 452 38 452 29 465 c 1,33,34
 53 514 53 514 112 550 c 128,-1,35
 171 586 171 586 249 586 c 0,36,37
 343 586 343 586 395.5 532.5 c 128,-1,38
 448 479 448 479 448 380 c 2,39,-1
 448 126 l 2,40,41
 448 65 448 65 413 27.5 c 128,-1,42
 378 -10 378 -10 322 -10 c 0,43,0
 278 -10 278 -10 247.5 17.5 c 128,-1,1
EndSplineSet
EndChar

StartChar: uni0E28
Encoding: 3624 3624 477
Width: 609
GlyphClass: 2
Flags: W
AnchorPoint: "Anchor-12" 544 550 basechar 0
AnchorPoint: "Anchor-11" 544 0 basechar 0
LayerCount: 2
Fore
SplineSet
556 542.5 m 128,-1,1
 529 523 529 523 497 513 c 1,2,3
 544 456 544 456 544 360 c 2,4,-1
 544 0 l 1,5,-1
 479 0 l 1,6,-1
 479 355 l 2,7,8
 479 534 479 534 314 534 c 0,9,10
 231 534 231 534 184 490.5 c 128,-1,11
 137 447 137 447 137 355 c 0,12,13
 137 299 137 299 155 253 c 1,14,15
 181 313 181 313 222 348 c 128,-1,16
 263 383 263 383 320 383 c 0,17,18
 361 383 361 383 390 357 c 128,-1,19
 419 331 419 331 419 288 c 256,20,21
 419 245 419 245 393 220.5 c 128,-1,22
 367 196 367 196 325 196 c 0,23,24
 298 196 298 196 278 210 c 128,-1,25
 258 224 258 224 258 247 c 0,26,27
 258 266 258 266 271 273 c 1,28,29
 282 256 282 256 294.5 248 c 128,-1,30
 307 240 307 240 325 240 c 0,31,32
 348 240 348 240 359 252.5 c 128,-1,33
 370 265 370 265 370 288 c 0,34,35
 370 310 370 310 356.5 322.5 c 128,-1,36
 343 335 343 335 318 335 c 0,37,38
 275 335 275 335 241 292.5 c 128,-1,39
 207 250 207 250 186.5 174 c 128,-1,40
 166 98 166 98 164 0 c 1,41,-1
 113 0 l 2,42,43
 98 0 98 0 98 20 c 0,44,45
 98 64 98 64 117 142 c 0,46,47
 123 172 123 172 123 173 c 0,48,49
 123 178 123 178 112 202 c 0,50,51
 94 238 94 238 83 272 c 128,-1,52
 72 306 72 306 72 355 c 0,53,54
 72 428 72 428 103 480 c 128,-1,55
 134 532 134 532 189 559 c 128,-1,56
 244 586 244 586 314 586 c 0,57,58
 397 586 397 586 450 554 c 1,59,60
 477 561 477 561 499 579 c 128,-1,61
 521 597 521 597 535 621 c 1,62,63
 556 617 556 617 569.5 604.5 c 128,-1,64
 583 592 583 592 583 581 c 0,65,0
 583 562 583 562 556 542.5 c 128,-1,1
EndSplineSet
EndChar

StartChar: uni0E29
Encoding: 3625 3625 478
Width: 665
GlyphClass: 2
Flags: W
AnchorPoint: "Anchor-12" 585 550 basechar 0
AnchorPoint: "Anchor-11" 585 0 basechar 0
LayerCount: 2
Fore
SplineSet
585 576 m 1,0,-1
 585 190 l 2,1,2
 585 132 585 132 578.5 102 c 128,-1,3
 572 72 572 72 553 50 c 0,4,5
 499 -9 499 -9 369 -9 c 0,6,7
 228 -9 228 -9 179 50 c 0,8,9
 162 70 162 70 155.5 104.5 c 128,-1,10
 149 139 149 139 149 190 c 2,11,-1
 149 485 l 2,12,13
 149 508 149 508 137.5 523 c 128,-1,14
 126 538 126 538 103 538 c 0,15,16
 81 538 81 538 69.5 525.5 c 128,-1,17
 58 513 58 513 58 491 c 0,18,19
 58 468 58 468 71.5 455 c 128,-1,20
 85 442 85 442 107 442 c 2,21,-1
 131 442 l 1,22,23
 131 402 131 402 90 402 c 0,24,25
 59 402 59 402 34.5 426.5 c 128,-1,26
 10 451 10 451 10 491 c 0,27,28
 10 532 10 532 37 559 c 128,-1,29
 64 586 64 586 107 586 c 0,30,31
 154 586 154 586 184.5 558.5 c 128,-1,32
 215 531 215 531 215 481 c 2,33,-1
 214 183 l 2,34,35
 214 102 214 102 234 81 c 0,36,37
 271 43 271 43 369 43 c 0,38,39
 469 43 469 43 503 81 c 0,40,41
 514 93 514 93 517 112 c 128,-1,42
 520 131 520 131 520 166 c 2,43,-1
 520 237 l 1,44,45
 505 216 505 216 476 201 c 128,-1,46
 447 186 447 186 410 186 c 0,47,48
 357 186 357 186 321 214 c 128,-1,49
 285 242 285 242 285 290 c 0,50,51
 285 324 285 324 309 346.5 c 128,-1,52
 333 369 333 369 365 369 c 0,53,54
 396 369 396 369 417 350.5 c 128,-1,55
 438 332 438 332 438 300 c 0,56,57
 438 279 438 279 427 267.5 c 128,-1,58
 416 256 416 256 398 256 c 0,59,60
 392 256 392 256 384 260 c 1,61,62
 398 274 398 274 398 293 c 0,63,64
 398 308 398 308 389.5 317.5 c 128,-1,65
 381 327 381 327 367 327 c 0,66,67
 351 327 351 327 341 318 c 128,-1,68
 331 309 331 309 331 294 c 0,69,70
 331 264 331 264 353.5 248 c 128,-1,71
 376 232 376 232 415 232 c 0,72,73
 520 232 520 232 520 350 c 2,74,-1
 520 576 l 1,75,-1
 585 576 l 1,0,-1
EndSplineSet
EndChar

StartChar: uni0E2A
Encoding: 3626 3626 479
Width: 616
GlyphClass: 2
Flags: W
AnchorPoint: "Anchor-12" 531 550 basechar 0
AnchorPoint: "Anchor-11" 531 0 basechar 0
LayerCount: 2
Fore
SplineSet
555.5 542.5 m 128,-1,1
 528 523 528 523 497 514 c 1,2,3
 535 467 535 467 535 398 c 0,4,5
 535 358 535 358 529 294 c 0,6,7
 523 232 523 232 523 197 c 0,8,9
 523 176 523 176 530 87 c 0,10,11
 534 29 534 29 534 19 c 0,12,13
 534 0 534 0 522 0 c 2,14,-1
 463 0 l 1,15,16
 463 160 463 160 413 237.5 c 128,-1,17
 363 315 363 315 273 315 c 0,18,19
 216 315 216 315 180.5 275.5 c 128,-1,20
 145 236 145 236 145 166 c 0,21,22
 145 102 145 102 165 70.5 c 128,-1,23
 185 39 185 39 218 39 c 0,24,25
 240 39 240 39 251.5 51 c 128,-1,26
 263 63 263 63 263 84 c 0,27,28
 263 103 263 103 251.5 114.5 c 128,-1,29
 240 126 240 126 219 126 c 0,30,31
 207 126 207 126 197 122.5 c 128,-1,32
 187 119 187 119 175 111 c 1,33,34
 172 117 172 117 172 127 c 0,35,36
 172 142 172 142 187 154 c 128,-1,37
 202 166 202 166 228 166 c 0,38,39
 264 166 264 166 287.5 142.5 c 128,-1,40
 311 119 311 119 311 85 c 0,41,42
 311 43 311 43 285.5 17 c 128,-1,43
 260 -9 260 -9 217 -9 c 0,44,45
 160 -9 160 -9 122 33.5 c 128,-1,46
 84 76 84 76 84 166 c 0,47,48
 84 229 84 229 109.5 275 c 128,-1,49
 135 321 135 321 178 345 c 128,-1,50
 221 369 221 369 273 369 c 0,51,52
 335 369 335 369 384.5 340 c 128,-1,53
 434 311 434 311 462 263 c 1,54,55
 469 328 469 328 468 391 c 0,56,57
 467 457 467 457 426 494.5 c 128,-1,58
 385 532 385 532 314 532 c 0,59,60
 253 532 253 532 209.5 510 c 128,-1,61
 166 488 166 488 125 447 c 0,62,63
 119 441 119 441 110 441 c 0,64,65
 99 441 99 441 87 450 c 128,-1,66
 75 459 75 459 67 476 c 1,67,68
 99 521 99 521 165 553.5 c 128,-1,69
 231 586 231 586 315 586 c 0,70,71
 395 586 395 586 450 554 c 1,72,73
 477 562 477 562 499 580 c 128,-1,74
 521 598 521 598 535 621 c 1,75,76
 556 617 556 617 569.5 604.5 c 128,-1,77
 583 592 583 592 583 581 c 0,78,0
 583 562 583 562 555.5 542.5 c 128,-1,1
EndSplineSet
EndChar

StartChar: uni0E2B
Encoding: 3627 3627 480
Width: 658
GlyphClass: 2
Flags: W
AnchorPoint: "Anchor-12" 579 550 basechar 0
AnchorPoint: "Anchor-11" 579 0 basechar 0
LayerCount: 2
Fore
SplineSet
548 366 m 1,1,2
 579 334 579 334 579 288 c 2,3,-1
 579 0 l 1,4,-1
 514 0 l 1,5,-1
 514 276 l 2,6,7
 514 301 514 301 510 314.5 c 128,-1,8
 506 328 506 328 495 338 c 1,9,10
 396 293 396 293 338.5 258.5 c 128,-1,11
 281 224 281 224 247.5 180.5 c 128,-1,12
 214 137 214 137 214 79 c 2,13,-1
 214 0 l 1,14,-1
 160 0 l 2,15,16
 145 0 145 0 145 15 c 2,17,-1
 146 42 l 2,18,19
 149 105 149 105 149 116 c 2,20,-1
 149 485 l 2,21,22
 149 508 149 508 137.5 523 c 128,-1,23
 126 538 126 538 103 538 c 0,24,25
 81 538 81 538 69.5 525.5 c 128,-1,26
 58 513 58 513 58 491 c 0,27,28
 58 468 58 468 71.5 455 c 128,-1,29
 85 442 85 442 107 442 c 2,30,-1
 131 442 l 1,31,32
 131 402 131 402 90 402 c 0,33,34
 59 402 59 402 34.5 426.5 c 128,-1,35
 10 451 10 451 10 491 c 0,36,37
 10 532 10 532 37 559 c 128,-1,38
 64 586 64 586 107 586 c 0,39,40
 154 586 154 586 184.5 558.5 c 128,-1,41
 215 531 215 531 215 481 c 2,42,-1
 214 228 l 1,43,44
 241 266 241 266 289.5 295 c 128,-1,45
 338 324 338 324 444 376 c 1,46,47
 388 423 388 423 388 479 c 0,48,49
 388 527 388 527 418.5 556.5 c 128,-1,50
 449 586 449 586 498 586 c 0,51,52
 545 586 545 586 576.5 558.5 c 128,-1,53
 608 531 608 531 608 479 c 0,54,0
 608 408 608 408 548 366 c 1,1,2
459 518.5 m 128,-1,56
 444 503 444 503 444 479 c 0,57,58
 444 457 444 457 457 439.5 c 128,-1,59
 470 422 470 422 499 403 c 1,60,61
 527 419 527 419 539.5 436.5 c 128,-1,62
 552 454 552 454 552 479 c 0,63,64
 552 503 552 503 539 518.5 c 128,-1,65
 526 534 526 534 498 534 c 0,66,55
 474 534 474 534 459 518.5 c 128,-1,56
EndSplineSet
EndChar

StartChar: uni0E2C
Encoding: 3628 3628 481
Width: 708
GlyphClass: 2
Flags: W
AnchorPoint: "Anchor-12" 635 550 basechar 0
AnchorPoint: "Anchor-11" 635 0 basechar 0
LayerCount: 2
Fore
SplineSet
696.5 581.5 m 128,-1,1
 708 572 708 572 708 558 c 0,2,3
 708 542 708 542 697 523 c 0,4,5
 674 485 674 485 634 462 c 1,6,-1
 634 190 l 2,7,8
 634 49 634 49 638 20 c 0,9,10
 639 16 639 16 639 11 c 0,11,12
 639 4 639 4 636 2 c 128,-1,13
 633 0 633 0 628 0 c 2,14,-1
 571 0 l 1,15,-1
 571 14 l 2,16,17
 571 77 571 77 526 152 c 128,-1,18
 481 227 481 227 406 325 c 1,19,20
 353 259 353 259 319 212 c 128,-1,21
 285 165 285 165 257.5 111 c 128,-1,22
 230 57 230 57 230 14 c 2,23,-1
 230 0 l 1,24,-1
 170 0 l 2,25,26
 165 0 165 0 162 2 c 128,-1,27
 159 4 159 4 159 11 c 0,28,29
 159 16 159 16 160 20 c 0,30,31
 165 47 165 47 167 74.5 c 128,-1,32
 169 102 169 102 169 190 c 2,33,-1
 169 485 l 2,34,35
 169 508 169 508 157.5 523 c 128,-1,36
 146 538 146 538 123 538 c 0,37,38
 101 538 101 538 89.5 525.5 c 128,-1,39
 78 513 78 513 78 491 c 0,40,41
 78 468 78 468 91.5 455 c 128,-1,42
 105 442 105 442 127 442 c 2,43,-1
 151 442 l 1,44,45
 151 402 151 402 110 402 c 0,46,47
 79 402 79 402 54.5 426.5 c 128,-1,48
 30 451 30 451 30 491 c 0,49,50
 30 532 30 532 57 559 c 128,-1,51
 84 586 84 586 127 586 c 0,52,53
 174 586 174 586 204.5 558.5 c 128,-1,54
 235 531 235 531 235 481 c 2,55,-1
 234 186 l 1,56,57
 252 222 252 222 279 258 c 128,-1,58
 306 294 306 294 351 348 c 0,59,60
 387 391 387 391 402 410 c 1,61,-1
 410 410 l 1,62,63
 427 386 427 386 463 338 c 0,64,65
 502 287 502 287 527.5 250.5 c 128,-1,66
 553 214 553 214 569 178 c 1,67,-1
 569 437 l 1,68,69
 542 432 542 432 517 432 c 0,70,71
 456 432 456 432 419 458.5 c 128,-1,72
 382 485 382 485 382 526 c 0,73,74
 382 563 382 563 417 588 c 128,-1,75
 452 613 452 613 499 613 c 0,76,77
 541 613 541 613 575.5 590 c 128,-1,78
 610 567 610 567 625 530 c 1,79,80
 648 556 648 556 668 594 c 1,81,0
 685 591 685 591 696.5 581.5 c 128,-1,1
569 491 m 1,83,84
 567 525 567 525 548.5 544 c 128,-1,85
 530 563 530 563 499 563 c 0,86,87
 476 563 476 563 458.5 552.5 c 128,-1,88
 441 542 441 542 441 523 c 256,89,90
 441 504 441 504 461 493 c 128,-1,91
 481 482 481 482 516 482 c 0,92,82
 545 482 545 482 569 491 c 1,83,84
EndSplineSet
Substitution2: "Single Substitution lookup 14 subtable" loChulathai.short
Substitution2: "'aalt' Access All Alternates lookup 0 subtable" loChulathai.short
EndChar

StartChar: uni0E2D
Encoding: 3629 3629 483
Width: 615
GlyphClass: 2
Flags: W
AnchorPoint: "Anchor-12" 525 550 basechar 0
AnchorPoint: "Anchor-11" 525 0 basechar 0
LayerCount: 2
Fore
SplineSet
141 44 m 128,-1,1
 87 97 87 97 87 210 c 0,2,3
 87 259 87 259 106.5 294 c 128,-1,4
 126 329 126 329 156.5 347 c 128,-1,5
 187 365 187 365 220 365 c 0,6,7
 263 365 263 365 286 340.5 c 128,-1,8
 309 316 309 316 309 273 c 0,9,10
 309 234 309 234 286 211 c 128,-1,11
 263 188 263 188 228 188 c 0,12,13
 204 188 204 188 188.5 201.5 c 128,-1,14
 173 215 173 215 173 240 c 1,15,16
 195 232 195 232 214 232 c 0,17,18
 235 232 235 232 247 243 c 128,-1,19
 259 254 259 254 259 275 c 0,20,21
 259 315 259 315 219 315 c 0,22,23
 188 315 188 315 170 287.5 c 128,-1,24
 152 260 152 260 152 210 c 0,25,26
 152 122 152 122 188.5 84 c 128,-1,27
 225 46 225 46 311 46 c 0,28,29
 371 46 371 46 405.5 67 c 128,-1,30
 440 88 440 88 455 135.5 c 128,-1,31
 470 183 470 183 470 267 c 2,32,-1
 470 307 l 2,33,34
 470 397 470 397 449.5 446.5 c 128,-1,35
 429 496 429 496 392 514 c 128,-1,36
 355 532 355 532 297 532 c 0,37,38
 250 532 250 532 206.5 509 c 128,-1,39
 163 486 163 486 129 452 c 0,40,41
 122 445 122 445 116.5 442 c 128,-1,42
 111 439 111 439 103 439 c 0,43,44
 86 439 86 439 62 476 c 1,45,46
 95 519 95 519 158 552.5 c 128,-1,47
 221 586 221 586 297 586 c 0,48,49
 377 586 377 586 428.5 561 c 128,-1,50
 480 536 480 536 507.5 474.5 c 128,-1,51
 535 413 535 413 535 307 c 2,52,-1
 535 267 l 2,53,54
 535 168 535 168 512.5 107.5 c 128,-1,55
 490 47 490 47 441 19 c 128,-1,56
 392 -9 392 -9 311 -9 c 0,57,0
 195 -9 195 -9 141 44 c 128,-1,1
EndSplineSet
EndChar

